<svg xmlns="http://www.w3.org/2000/svg" viewBox="0 0 49.9 70.58"><defs><style>.cls-1{fill:#fff;}.cls-2{font-size:10px;fill:#1d1d1b;font-family:SerifGothicStd-ExtraBold, ITC Serif Gothic Std;font-weight:800;}.cls-3{fill:#cf1619;}</style></defs><title>Asset 12</title><g id="Layer_2" data-name="Layer 2"><g id="Layer_1-2" data-name="Layer 1"><rect class="cls-1" width="49.9" height="70.58" rx="3.03"/><text class="cls-2" transform="translate(2.61 10.34)">1</text><text class="cls-2" transform="translate(42.41 67.29)">1</text><path class="cls-3" d="M21.23,56.06q.29-8.55.37-17.12c0-1.25.31-7.43.32-8.91,0-6.89,0-13.78,0-20.67,0-.45.17-.67.59-1.07a3.6,3.6,0,0,1,1.19-.35c4.52-.1,4.79-.13,4.77,4.36C28.45,18.88,28,25.46,28,32c-.07,8.42.11,16.84.11,25.26A2.14,2.14,0,0,1,27,58.89a8.15,8.15,0,0,1-4.22.53C21.69,59.25,21.19,57,21.23,56.06Zm2.4-22.3c2.54.1,2.77-.1,2.88-2.37.15-3.17.34-6.34.42-9.51a1.8,1.8,0,0,0-.75-1.45c-1.64-.62-2.73.18-2.76,2,0,3.4,0,6.82,0,10.23A6.38,6.38,0,0,0,23.63,33.76Zm2.58,9.29h0c0-1.29,0-2.59,0-3.88s-.88-1.68-1.8-1.55a2,2,0,0,0-1.13,1.5c-.1,2.58,0,5.17,0,7.76,0,.89.15,1.68,1.29,1.68s1.63-.67,1.6-1.81S26.21,44.28,26.21,43.05ZM23.55,9.9c0,2,0,3.84,0,5.72,0,1.31.61,1.61,1.77,1.44s2-.75,2-2.17c0-.82,0-1.64-.06-2.47C27.08,9.73,26.65,9.4,23.55,9.9Zm-.79,45.55c.25,1,.73,1.63,1.34,1.76,1.43.3,2-.63,2-2.69,0-1,.08-2-1.45-2C22.75,52.51,23.17,53.66,22.76,55.45ZM26,36.14l.09-.92c-.72-.06-1.43-.15-2.14-.14-.1,0-.19.54-.28.83Zm0,14.57-.15-1-2.09.38a3.32,3.32,0,0,0,.15.73C24.59,50.85,25.28,50.77,26,50.71ZM23.86,18l0,1,2.53-.18v-.7Z"/></g></g></svg>