<svg xmlns="http://www.w3.org/2000/svg" viewBox="0 0 49.9 70.58"><defs><style>.cls-1{fill:#fff;}.cls-2{font-size:10px;fill:#1d1d1b;font-family:SerifGothicStd-ExtraBold, ITC Serif Gothic Std;font-weight:800;}.cls-3{fill:#14953d;}.cls-4{fill:#004f9f;}</style></defs><title>Asset 14</title><g id="Layer_2" data-name="Layer 2"><g id="Layer_1-2" data-name="Layer 1"><rect class="cls-1" width="49.9" height="70.58" rx="3.03"/><text class="cls-2" transform="translate(3.15 10.47)">3</text><text class="cls-2" transform="translate(41 67.14)">3</text><path class="cls-3" d="M31.83,59.27c.12-2.74.21-5.48.24-8.23,0-.6.2-3.57.21-4.28,0-3.31,0-6.62,0-9.93,0-.21.1-.32.37-.51a2.56,2.56,0,0,1,.76-.17c2.91,0,3.08-.06,3.07,2.1,0,3.15-.3,6.32-.34,9.48,0,4,.08,8.09.08,12.13a1.09,1.09,0,0,1-.7.77,6.89,6.89,0,0,1-2.71.25C32.13,60.8,31.81,59.74,31.83,59.27Zm1.54-10.72c1.64.05,1.78,0,1.85-1.13.1-1.53.23-3.05.28-4.57a.86.86,0,0,0-.49-.7c-1-.3-1.75.09-1.77.94,0,1.64,0,3.28,0,4.91A2.45,2.45,0,0,0,33.37,48.55ZM35,53h0c0-.62,0-1.25,0-1.87s-.56-.8-1.15-.74a1,1,0,0,0-.73.72c-.06,1.24,0,2.48,0,3.73,0,.42.1.8.83.8s1.05-.32,1-.86S35,53.61,35,53ZM33.32,37.09c0,.94,0,1.85,0,2.75,0,.63.39.77,1.13.69s1.31-.36,1.26-1c0-.39,0-.79-.05-1.19C35.59,37,35.31,36.85,33.32,37.09ZM32.82,59a1.11,1.11,0,0,0,.86.85c.91.15,1.29-.3,1.29-1.29,0-.5.06-1-.93-1C32.81,57.56,33.08,58.12,32.82,59Zm2-9.27.06-.44c-.46,0-.92-.08-1.37-.07-.07,0-.12.26-.18.4Zm0,7-.09-.46-1.35.18c0,.12.07.35.1.35C34,56.76,34.44,56.73,34.88,56.7ZM33.52,41v.48l1.62-.09v-.33Z"/><path class="cls-3" d="M14,59.27q.2-4.11.25-8.23c0-.6.19-3.57.2-4.28,0-3.31,0-6.62,0-9.93,0-.21.11-.32.37-.51a2.56,2.56,0,0,1,.77-.17c2.9,0,3.07-.06,3.06,2.1,0,3.15-.3,6.32-.33,9.48-.05,4,.07,8.09.07,12.13a1.09,1.09,0,0,1-.7.77,6.89,6.89,0,0,1-2.71.25C14.33,60.8,14,59.74,14,59.27Zm1.55-10.72c1.63.05,1.78,0,1.85-1.13.1-1.53.22-3.05.27-4.57a.85.85,0,0,0-.48-.7c-1.06-.3-1.76.09-1.78.94,0,1.64,0,3.28,0,4.91A2,2,0,0,0,15.58,48.55ZM17.24,53h0c0-.62,0-1.25,0-1.87s-.56-.8-1.15-.74a1,1,0,0,0-.73.72c-.06,1.24,0,2.48,0,3.73,0,.42.09.8.82.8s1.05-.32,1-.86S17.24,53.61,17.24,53ZM15.53,37.09c0,.94,0,1.85,0,2.75,0,.63.39.77,1.14.69s1.3-.36,1.25-1c0-.39,0-.79,0-1.19C17.79,37,17.52,36.85,15.53,37.09ZM15,59a1.14,1.14,0,0,0,.86.85c.92.15,1.29-.3,1.29-1.29,0-.5.06-1-.92-1C15,57.56,15.28,58.12,15,59Zm2.05-9.27.06-.44c-.46,0-.92-.08-1.37-.07-.07,0-.12.26-.18.4Zm0,7L17,56.24l-1.34.18c0,.12.06.35.09.35C16.19,56.76,16.64,56.73,17.08,56.7ZM15.73,41l0,.48,1.62-.09v-.33Z"/><path class="cls-4" d="M22.93,31.09q.2-4.11.25-8.22c0-.6.19-3.57.2-4.28,0-3.31,0-6.62,0-9.93,0-.22.1-.32.37-.52A2.91,2.91,0,0,1,24.53,8c2.9-.05,3.07-.07,3.06,2.09,0,3.16-.3,6.32-.33,9.48-.05,4.05.07,8.1.07,12.14a1.08,1.08,0,0,1-.7.76,6.89,6.89,0,0,1-2.71.26C23.23,32.63,22.91,31.56,22.93,31.09Zm1.55-10.71c1.63.05,1.77-.05,1.85-1.14.1-1.52.22-3,.27-4.57a.84.84,0,0,0-.49-.69c-1.05-.3-1.75.08-1.77.94,0,1.63,0,3.27,0,4.91A2.12,2.12,0,0,0,24.48,20.38Zm1.65,4.46h0c0-.62,0-1.24,0-1.86s-.56-.81-1.15-.74a1,1,0,0,0-.73.72c-.06,1.24,0,2.48,0,3.72,0,.43.09.81.82.81s1.05-.32,1-.87S26.13,25.44,26.13,24.84ZM24.42,8.92c0,.94,0,1.84,0,2.74,0,.63.39.78,1.14.7s1.3-.36,1.25-1c0-.4,0-.79,0-1.19C26.69,8.83,26.42,8.68,24.42,8.92Zm-.5,21.88a1.14,1.14,0,0,0,.86.85c.91.14,1.29-.31,1.29-1.3,0-.49.06-1-.93-1C23.91,29.39,24.18,29.94,23.92,30.8Zm2-9.27.06-.45c-.46,0-.92-.07-1.37-.06-.07,0-.12.26-.18.4Zm0,7-.09-.46-1.34.19c0,.12.06.35.09.35C25.09,28.59,25.54,28.55,26,28.52ZM24.63,12.81l0,.48,1.62-.08v-.34Z"/></g></g></svg>