<svg xmlns="http://www.w3.org/2000/svg" viewBox="0 0 49.9 70.58"><defs><style>.cls-1{fill:#fff;}.cls-2{font-size:10px;fill:#1d1d1b;font-family:SerifGothicStd-ExtraBold, ITC Serif Gothic Std;font-weight:800;}.cls-3{fill:#004f9f;}.cls-4{fill:#cf1619;}.cls-5{fill:#14953d;}</style></defs><title>Asset 18</title><g id="Layer_2" data-name="Layer 2"><g id="Layer_1-2" data-name="Layer 1"><rect class="cls-1" width="49.9" height="70.58" rx="3.03"/><text class="cls-2" transform="translate(2.72 10.34)">7</text><text class="cls-2" transform="translate(40.91 67.29)">7</text><path class="cls-3" d="M22.42,41.77c.08-1.88.14-3.77.17-5.65,0-.42.13-2.46.13-2.94,0-2.28,0-4.55,0-6.83,0-.15.08-.22.26-.35a1.65,1.65,0,0,1,.52-.12c2,0,2.12,0,2.11,1.44,0,2.17-.21,4.35-.23,6.52,0,2.78.05,5.56.05,8.34a.73.73,0,0,1-.48.52,4.69,4.69,0,0,1-1.86.18C22.62,42.82,22.41,42.09,22.42,41.77Zm1.06-7.36c1.12,0,1.22,0,1.27-.78.07-1.05.15-2.1.19-3.14a.58.58,0,0,0-.33-.48c-.73-.21-1.21.06-1.22.64,0,1.13,0,2.25,0,3.38A2.36,2.36,0,0,0,23.48,34.41Zm1.14,3.06h0c0-.42,0-.85,0-1.28s-.38-.55-.79-.51a.72.72,0,0,0-.5.5c0,.85,0,1.7,0,2.56,0,.29.06.55.57.55s.72-.22.7-.59S24.62,37.88,24.62,37.47ZM23.44,26.53c0,.65,0,1.27,0,1.89,0,.43.27.53.78.47s.9-.24.86-.71c0-.27,0-.55,0-.82C25,26.47,24.81,26.36,23.44,26.53Zm-.34,15a.76.76,0,0,0,.59.58c.63.1.89-.21.89-.89,0-.34,0-.66-.64-.66C23.09,40.6,23.28,41,23.1,41.57Zm1.41-6.38,0-.3c-.32,0-.63,0-.95,0,0,0-.08.18-.12.28Zm0,4.81-.07-.31-.92.12c0,.09,0,.24.06.24C23.9,40.05,24.21,40,24.52,40Zm-.94-10.79v.33l1.12-.06v-.23Z"/><path class="cls-4" d="M22.42,23.12c.08-1.88.14-3.77.17-5.65,0-.42.13-2.46.13-2.94,0-2.28,0-4.55,0-6.83,0-.15.08-.22.26-.35a2.49,2.49,0,0,1,.52-.12c2,0,2.12,0,2.11,1.44,0,2.17-.21,4.35-.23,6.52,0,2.78.05,5.56.05,8.34a.73.73,0,0,1-.48.52,4.69,4.69,0,0,1-1.86.18C22.62,24.18,22.41,23.44,22.42,23.12Zm1.06-7.36c1.12,0,1.22,0,1.27-.78.07-1.05.15-2.1.19-3.14a.58.58,0,0,0-.33-.48c-.73-.21-1.21.06-1.22.64,0,1.13,0,2.25,0,3.38A2.36,2.36,0,0,0,23.48,15.76Zm1.14,3.07h0c0-.43,0-.86,0-1.29s-.38-.55-.79-.51a.74.74,0,0,0-.5.5c0,.85,0,1.71,0,2.56,0,.29.06.55.57.55s.72-.22.7-.59S24.62,19.23,24.62,18.83ZM23.44,7.88c0,.65,0,1.27,0,1.89,0,.43.27.53.78.47s.9-.24.86-.71c0-.27,0-.54,0-.82C25,7.82,24.81,7.72,23.44,7.88Zm-.34,15a.76.76,0,0,0,.59.58c.63.1.89-.21.89-.89,0-.34,0-.66-.64-.66C23.09,22,23.28,22.33,23.1,22.92Zm1.41-6.37,0-.31c-.32,0-.63,0-.95,0,0,0-.08.18-.12.28Zm0,4.8L24.45,21l-.92.12c0,.09,0,.24.06.24C23.9,21.4,24.21,21.37,24.52,21.35Zm-.94-10.79v.33l1.12-.06V10.6Z"/><path class="cls-3" d="M22.42,60.45c.08-1.88.14-3.77.17-5.65,0-.41.13-2.46.13-2.94,0-2.28,0-4.55,0-6.83,0-.15.08-.22.26-.35a2.49,2.49,0,0,1,.52-.12c2,0,2.12,0,2.11,1.44,0,2.17-.21,4.35-.23,6.52,0,2.78.05,5.56.05,8.34a.76.76,0,0,1-.48.53,4.87,4.87,0,0,1-1.86.17C22.62,61.51,22.41,60.77,22.42,60.45Zm1.06-7.36c1.12,0,1.22,0,1.27-.78.07-1.05.15-2.1.19-3.14a.58.58,0,0,0-.33-.48c-.73-.21-1.21.06-1.22.64,0,1.13,0,2.25,0,3.38A2.36,2.36,0,0,0,23.48,53.09Zm1.14,3.07h0c0-.43,0-.86,0-1.29s-.38-.55-.79-.51a.74.74,0,0,0-.5.5c0,.85,0,1.71,0,2.56,0,.29.06.55.57.55s.72-.22.7-.59S24.62,56.56,24.62,56.16ZM23.44,45.21c0,.65,0,1.27,0,1.89,0,.43.27.53.78.48s.9-.25.86-.72c0-.27,0-.54,0-.82C25,45.15,24.81,45.05,23.44,45.21Zm-.34,15a.76.76,0,0,0,.59.58c.63.1.89-.21.89-.89,0-.34,0-.66-.64-.66C23.09,59.28,23.28,59.66,23.1,60.25Zm1.41-6.37,0-.31c-.32,0-.63,0-.95,0,0,0-.08.18-.12.28Zm0,4.8-.07-.31-.92.12c0,.09,0,.24.06.24C23.9,58.73,24.21,58.7,24.52,58.68Zm-.94-10.79v.33l1.12-.06v-.23Z"/><path class="cls-5" d="M29.9,60.43c.08-1.89.14-3.77.17-5.65,0-.42.13-2.46.13-2.94,0-2.28,0-4.56,0-6.83,0-.15.08-.22.26-.36a2,2,0,0,1,.52-.11c2,0,2.12,0,2.11,1.44,0,2.17-.21,4.35-.23,6.52,0,2.78.05,5.56.05,8.34a.73.73,0,0,1-.48.52,4.69,4.69,0,0,1-1.86.18C30.1,61.48,29.89,60.75,29.9,60.43ZM31,53.07c1.12,0,1.22,0,1.27-.79.07-1,.15-2.09.19-3.14a.57.57,0,0,0-.33-.47c-.73-.21-1.21,0-1.22.64,0,1.13,0,2.25,0,3.38A2.66,2.66,0,0,0,31,53.07Zm1.14,3.06h0c0-.42,0-.85,0-1.28s-.38-.55-.79-.51a.72.72,0,0,0-.5.49c0,.86,0,1.71,0,2.57,0,.29.06.55.57.55s.72-.22.7-.59S32.1,56.54,32.1,56.13ZM30.92,45.19c0,.65,0,1.27,0,1.89,0,.43.27.53.78.47s.9-.25.86-.71c0-.27,0-.55,0-.82C32.48,45.13,32.29,45,30.92,45.19Zm-.34,15a.77.77,0,0,0,.59.58c.63.1.89-.21.89-.89,0-.34,0-.66-.64-.66C30.57,59.26,30.76,59.64,30.58,60.23ZM32,53.85l0-.3c-.32,0-.63,0-1,0,0,0-.08.18-.12.28Zm0,4.81-.07-.31-.92.12c0,.09,0,.24.07.24C31.38,58.71,31.69,58.68,32,58.66Zm-.94-10.8v.33l1.12-.06v-.22Z"/><path class="cls-5" d="M14.92,60.43c.08-1.89.14-3.77.17-5.65,0-.42.13-2.46.14-2.94,0-2.28,0-4.56,0-6.83,0-.15.08-.22.26-.36a2,2,0,0,1,.52-.11c2,0,2.12,0,2.11,1.44,0,2.17-.21,4.35-.23,6.52,0,2.78.05,5.56.05,8.34a.73.73,0,0,1-.48.52,4.69,4.69,0,0,1-1.86.18C15.12,61.48,14.91,60.75,14.92,60.43ZM16,53.07c1.12,0,1.22,0,1.27-.79.07-1,.15-2.09.19-3.14a.57.57,0,0,0-.33-.47c-.73-.21-1.21,0-1.22.64,0,1.13,0,2.25,0,3.38A1.75,1.75,0,0,0,16,53.07Zm1.14,3.06h0c0-.42,0-.85,0-1.28s-.38-.55-.79-.51a.72.72,0,0,0-.5.49c0,.86,0,1.71,0,2.57,0,.29.06.55.57.55s.72-.22.7-.59S17.12,56.54,17.12,56.13ZM16,45.19c0,.65,0,1.27,0,1.89,0,.43.27.53.78.47s.9-.25.86-.71c0-.27,0-.55,0-.82C17.5,45.13,17.31,45,16,45.19Zm-.35,15a.79.79,0,0,0,.59.58c.63.1.89-.21.89-.89,0-.34,0-.66-.64-.66C15.59,59.26,15.78,59.64,15.6,60.23ZM17,53.85l0-.3c-.32,0-.63,0-.94,0-.05,0-.09.18-.13.28Zm0,4.81L17,58.35l-.92.12c0,.09,0,.24.07.24C16.4,58.71,16.71,58.68,17,58.66Zm-.94-10.8v.33l1.12-.06v-.22Z"/><path class="cls-5" d="M29.9,41.77c.08-1.88.14-3.77.17-5.65,0-.42.13-2.46.13-2.94,0-2.28,0-4.55,0-6.83,0-.15.08-.22.26-.35a1.65,1.65,0,0,1,.52-.12c2,0,2.12,0,2.11,1.44,0,2.17-.21,4.35-.23,6.52,0,2.78.05,5.56.05,8.34a.73.73,0,0,1-.48.52,4.69,4.69,0,0,1-1.86.18C30.1,42.82,29.89,42.09,29.9,41.77ZM31,34.41c1.12,0,1.22,0,1.27-.78.07-1.05.15-2.1.19-3.14a.58.58,0,0,0-.33-.48c-.73-.21-1.21.06-1.22.64,0,1.13,0,2.25,0,3.38A2.36,2.36,0,0,0,31,34.41Zm1.14,3.06h0c0-.42,0-.85,0-1.28s-.38-.55-.79-.51a.72.72,0,0,0-.5.5c0,.85,0,1.7,0,2.56,0,.29.06.55.57.55s.72-.22.7-.59S32.1,37.88,32.1,37.47ZM30.92,26.53c0,.65,0,1.27,0,1.89,0,.43.27.53.78.47s.9-.24.86-.71c0-.27,0-.55,0-.82C32.48,26.47,32.29,26.36,30.92,26.53Zm-.34,15a.76.76,0,0,0,.59.58c.63.1.89-.21.89-.89,0-.34,0-.66-.64-.66C30.57,40.6,30.76,41,30.58,41.57ZM32,35.19l0-.3c-.32,0-.63,0-1,0,0,0-.08.18-.12.28ZM32,40l-.07-.31-.92.12c0,.09,0,.24.07.24C31.38,40.05,31.69,40,32,40Zm-.94-10.79v.33l1.12-.06v-.23Z"/><path class="cls-5" d="M14.92,41.77c.08-1.88.14-3.77.17-5.65,0-.42.13-2.46.14-2.94,0-2.28,0-4.55,0-6.83,0-.15.08-.22.26-.35a1.65,1.65,0,0,1,.52-.12c2,0,2.12,0,2.11,1.44,0,2.17-.21,4.35-.23,6.52,0,2.78.05,5.56.05,8.34a.73.73,0,0,1-.48.52,4.69,4.69,0,0,1-1.86.18C15.12,42.82,14.91,42.09,14.92,41.77ZM16,34.41c1.12,0,1.22,0,1.27-.78.07-1.05.15-2.1.19-3.14a.58.58,0,0,0-.33-.48c-.73-.21-1.21.06-1.22.64,0,1.13,0,2.25,0,3.38A1.62,1.62,0,0,0,16,34.41Zm1.14,3.06h0c0-.42,0-.85,0-1.28s-.38-.55-.79-.51a.72.72,0,0,0-.5.5c0,.85,0,1.7,0,2.56,0,.29.06.55.57.55s.72-.22.7-.59S17.12,37.88,17.12,37.47ZM16,26.53c0,.65,0,1.27,0,1.89,0,.43.27.53.78.47s.9-.24.86-.71c0-.27,0-.55,0-.82C17.5,26.47,17.31,26.36,16,26.53Zm-.35,15a.77.77,0,0,0,.59.58c.63.1.89-.21.89-.89,0-.34,0-.66-.64-.66C15.59,40.6,15.78,41,15.6,41.57ZM17,35.19l0-.3c-.32,0-.63,0-.94,0-.05,0-.09.18-.13.28ZM17,40,17,39.69l-.92.12c0,.09,0,.24.07.24C16.4,40.05,16.71,40,17,40Zm-.94-10.79v.33l1.12-.06v-.23Z"/></g></g></svg>