<svg xmlns="http://www.w3.org/2000/svg" viewBox="0 0 49.9 70.58"><defs><style>.cls-1{fill:#fff;}.cls-2{font-size:10px;fill:#1d1d1b;font-family:SerifGothicStd-ExtraBold, ITC Serif Gothic Std;font-weight:800;}.cls-3{fill:#14953d;}</style></defs><title>Asset 13</title><g id="Layer_2" data-name="Layer 2"><g id="Layer_1-2" data-name="Layer 1"><rect class="cls-1" width="49.9" height="70.58" rx="3.03"/><text class="cls-2" transform="translate(3.26 10.6)">2</text><text class="cls-2" transform="translate(41.13 67.29)">2</text><path class="cls-3" d="M22,32.22q.21-4.56.27-9.14c0-.66.22-4,.22-4.75,0-3.68,0-7.36,0-11,0-.24.12-.35.41-.57a3.12,3.12,0,0,1,.85-.18c3.23-.06,3.42-.08,3.41,2.32,0,3.51-.34,7-.38,10.54,0,4.5.09,9,.08,13.49a1.16,1.16,0,0,1-.78.84,7.62,7.62,0,0,1-3,.29C22.34,33.93,22,32.74,22,32.22Zm1.72-11.9c1.81.05,2-.05,2.05-1.26.11-1.7.25-3.39.3-5.08a1,1,0,0,0-.53-.78c-1.18-.33-2,.1-2,1.05,0,1.82,0,3.64,0,5.46A2.2,2.2,0,0,0,23.73,20.32Zm1.84,5h0c0-.69,0-1.38,0-2.07s-.63-.9-1.28-.83a1.18,1.18,0,0,0-.82.8c-.06,1.38,0,2.76,0,4.14,0,.48.11.9.92.9s1.16-.36,1.14-1S25.57,25.94,25.57,25.28Zm-1.9-17.7c0,1.05,0,2.05,0,3.05,0,.7.44.86,1.26.77s1.46-.4,1.4-1.15c0-.44,0-.88-.05-1.32C26.19,7.49,25.88,7.32,23.67,7.58ZM23.1,31.9a1.27,1.27,0,0,0,1,.94c1,.16,1.44-.34,1.44-1.44,0-.55.06-1.07-1-1.07C23.1,30.33,23.39,30.94,23.1,31.9Zm2.29-10.31.06-.49c-.51,0-1-.08-1.52-.08-.07,0-.14.29-.2.45Zm0,7.78-.1-.51-1.5.2a1.81,1.81,0,0,0,.11.39C24.41,29.44,24.9,29.4,25.4,29.37ZM23.89,11.91v.53l1.8-.09V12Z"/><path class="cls-3" d="M22,62.22q.21-4.57.27-9.14c0-.67.22-4,.22-4.76,0-3.68,0-7.36,0-11,0-.24.12-.36.41-.58a3.12,3.12,0,0,1,.85-.18c3.23-.06,3.42-.07,3.41,2.33,0,3.51-.34,7-.38,10.53,0,4.5.09,9,.08,13.49a1.19,1.19,0,0,1-.78.85,7.62,7.62,0,0,1-3,.28C22.34,63.92,22,62.74,22,62.22Zm1.72-11.91c1.81,0,2-.05,2.05-1.26.11-1.69.25-3.39.3-5.08a.92.92,0,0,0-.53-.77c-1.18-.33-2,.09-2,1,0,1.82,0,3.64,0,5.46A2.11,2.11,0,0,0,23.73,50.31Zm1.84,5h0c0-.69,0-1.38,0-2.07s-.63-.9-1.28-.83a1.18,1.18,0,0,0-.82.8c-.06,1.38,0,2.76,0,4.14,0,.48.11.9.92.9s1.16-.35,1.14-1S25.57,55.93,25.57,55.27Zm-1.9-17.69c0,1,0,2,0,3.05,0,.7.44.86,1.26.77s1.46-.4,1.4-1.16c0-.44,0-.88-.05-1.32C26.19,37.48,25.88,37.31,23.67,37.58ZM23.1,61.89a1.27,1.27,0,0,0,1,.94c1,.16,1.44-.34,1.44-1.44,0-.54.06-1.07-1-1.07C23.1,60.32,23.39,60.94,23.1,61.89Zm2.29-10.31.06-.49c-.51,0-1-.08-1.52-.07-.07,0-.14.29-.2.44Zm0,7.78-.1-.51-1.5.2a1.81,1.81,0,0,0,.11.39C24.41,59.43,24.9,59.39,25.4,59.36ZM23.89,41.9v.54l1.8-.1V42Z"/></g></g></svg>