<svg xmlns="http://www.w3.org/2000/svg" viewBox="0 0 49.9 70.58"><defs><style>.cls-1{fill:#fff;}.cls-2{font-size:10px;fill:#1d1d1b;font-family:SerifGothicStd-ExtraBold, ITC Serif Gothic Std;font-weight:800;}.cls-3{fill:#14953d;}</style></defs><title>Asset 19</title><g id="Layer_2" data-name="Layer 2"><g id="Layer_1-2" data-name="Layer 1"><rect class="cls-1" width="49.9" height="70.58" rx="3.03"/><text class="cls-2" transform="translate(2.92 10.49)">8</text><text class="cls-2" transform="translate(40.91 67.17)">8</text><path class="cls-3" d="M35.22,32.82q.16-3.57.21-7.14c0-.52.17-3.1.18-3.71,0-2.88,0-5.75,0-8.62,0-.19.09-.28.32-.45a2.57,2.57,0,0,1,.66-.14c2.53,0,2.67-.06,2.66,1.82,0,2.74-.26,5.48-.29,8.22,0,3.51.07,7,.06,10.53a.92.92,0,0,1-.6.66,5.7,5.7,0,0,1-2.36.22C35.48,34.15,35.2,33.22,35.22,32.82Zm1.34-9.3c1.41,0,1.54,0,1.6-1,.09-1.32.2-2.64.24-4A.73.73,0,0,0,38,18c-.92-.25-1.52.08-1.54.82,0,1.42,0,2.84,0,4.26A1.88,1.88,0,0,0,36.56,23.52ZM38,27.39h0c0-.54,0-1.08,0-1.62s-.48-.7-1-.64a.91.91,0,0,0-.63.62c-.05,1.08,0,2.16,0,3.24,0,.37.09.7.72.7s.91-.28.89-.75S38,27.91,38,27.39ZM36.52,13.58c0,.81,0,1.6,0,2.38,0,.54.34.67,1,.6s1.13-.31,1.08-.9c0-.35,0-.69,0-1C38.48,13.5,38.24,13.37,36.52,13.58Zm-.45,19a1,1,0,0,0,.75.73c.8.13,1.12-.26,1.12-1.12,0-.42.05-.83-.8-.84C36.07,31.33,36.3,31.82,36.07,32.56Zm1.79-8,0-.38c-.4,0-.8-.07-1.19-.06-.06,0-.11.23-.16.35Zm0,6.07-.08-.39-1.17.16a1.88,1.88,0,0,0,.08.3C37.09,30.64,37.48,30.61,37.87,30.58ZM36.69,17v.42l1.4-.07V17Z"/><path class="cls-3" d="M16.81,17.49c2,.1,4.05.18,6.07.21.45,0,2.64.17,3.16.17,2.44,0,4.89,0,7.33,0,.16,0,.24.09.38.33a2.51,2.51,0,0,1,.12.66c0,2.52.05,2.67-1.54,2.66-2.33,0-4.67-.26-7-.29-3,0-6,.06-9,.06-.19,0-.49-.33-.56-.61a6.87,6.87,0,0,1-.19-2.35C15.68,17.74,16.47,17.47,16.81,17.49Zm7.91,1.33c0,1.42,0,1.55.84,1.61,1.12.09,2.25.19,3.37.24a.67.67,0,0,0,.52-.42c.21-.92-.07-1.53-.7-1.54-1.21,0-2.42,0-3.62,0A1.48,1.48,0,0,0,24.72,18.82Zm-3.29,1.44h0c.45,0,.91,0,1.37,0s.6-.49.55-1a.86.86,0,0,0-.53-.64c-.92-.05-1.83,0-2.75,0-.32,0-.6.08-.6.72s.24.9.64.89S21,20.26,21.43,20.26Zm11.75-1.48c-.7,0-1.36,0-2,0-.46,0-.57.35-.51,1s.27,1.13.77,1.09c.29,0,.58,0,.87,0C33.24,20.75,33.36,20.51,33.18,18.78ZM17,18.34a.93.93,0,0,0-.63.75c-.1.79.23,1.12,1,1.12.36,0,.71.05.71-.81C18.07,18.34,17.66,18.57,17,18.34Zm6.84,1.78.33.05c0-.4.06-.79.05-1.19,0-.05-.19-.1-.29-.16Zm-5.16,0,.34-.08-.14-1.17c-.09,0-.25.06-.25.09C18.66,19.36,18.69,19.74,18.71,20.13ZM30.31,19H30L30,20.35h.25Z"/><path class="cls-3" d="M16.81,25.47c2,.11,4.05.18,6.07.21.45,0,2.64.17,3.16.18,2.44,0,4.89,0,7.33,0,.16,0,.24.09.38.32a2.59,2.59,0,0,1,.12.66c0,2.53.05,2.67-1.54,2.66-2.33,0-4.67-.26-7-.29-3,0-6,.07-9,.06-.19,0-.49-.32-.56-.6a6.87,6.87,0,0,1-.19-2.35C15.68,25.73,16.47,25.45,16.81,25.47Zm7.91,1.34c0,1.42,0,1.54.84,1.6,1.12.09,2.25.2,3.37.24a.63.63,0,0,0,.52-.42c.21-.92-.07-1.52-.7-1.54-1.21,0-2.42,0-3.62,0A1.48,1.48,0,0,0,24.72,26.81Zm-3.29,1.44h0c.45,0,.91,0,1.37,0s.6-.49.55-1c0-.25-.34-.62-.53-.63-.92-.05-1.83,0-2.75,0-.32,0-.6.08-.6.71s.24.91.64.89S21,28.25,21.43,28.25Zm11.75-1.48c-.7,0-1.36,0-2,0-.46,0-.57.34-.51,1s.27,1.13.77,1.08c.29,0,.58,0,.87,0C33.24,28.73,33.36,28.49,33.18,26.77ZM17,26.33a.91.91,0,0,0-.63.74c-.1.8.23,1.12,1,1.13.36,0,.71,0,.71-.81C18.07,26.32,17.66,26.55,17,26.33Zm6.84,1.78.33.05c0-.4.06-.8.05-1.19,0-.06-.19-.11-.29-.16Zm-5.16,0,.34-.08-.14-1.17c-.09,0-.25.06-.25.09C18.66,27.34,18.69,27.73,18.71,28.12Zm11.6-1.18H30l.06,1.4h.25Z"/><path class="cls-3" d="M10.74,32.82c.1-2.38.18-4.76.21-7.14,0-.52.17-3.1.17-3.71,0-2.88,0-5.75,0-8.62,0-.19.1-.28.33-.45a2.48,2.48,0,0,1,.66-.14c2.52,0,2.67-.06,2.66,1.82,0,2.74-.26,5.48-.29,8.22,0,3.51.06,7,.06,10.53a.93.93,0,0,1-.61.66,5.64,5.64,0,0,1-2.35.22C11,34.15,10.72,33.22,10.74,32.82Zm1.34-9.3c1.41,0,1.54,0,1.6-1,.09-1.32.19-2.64.24-4A.77.77,0,0,0,13.5,18c-.92-.25-1.53.08-1.54.82,0,1.42,0,2.84,0,4.26A1.88,1.88,0,0,0,12.08,23.52Zm1.44,3.87h0c0-.54,0-1.08,0-1.62s-.49-.7-1-.64a.9.9,0,0,0-.63.62c-.06,1.08,0,2.16,0,3.24,0,.37.08.7.72.7s.91-.28.89-.75S13.52,27.91,13.52,27.39ZM12,13.58c0,.81,0,1.6,0,2.38,0,.54.34.67,1,.6s1.14-.31,1.09-.9c0-.35,0-.69,0-1C14,13.5,13.76,13.37,12,13.58Zm-.44,19a1,1,0,0,0,.75.73c.79.13,1.12-.26,1.12-1.12,0-.42,0-.83-.8-.84C11.59,31.33,11.82,31.82,11.59,32.56Zm1.79-8,0-.38a11.71,11.71,0,0,0-1.19-.06c-.05,0-.1.23-.15.35Zm0,6.07-.08-.39-1.16.16a1.88,1.88,0,0,0,.08.3C12.61,30.64,13,30.61,13.38,30.58ZM12.21,17l0,.42,1.41-.07V17Z"/><path class="cls-3" d="M35.22,55.94q.16-3.57.21-7.14c0-.52.17-3.1.18-3.71,0-2.87,0-5.75,0-8.62,0-.19.09-.28.32-.45a2.57,2.57,0,0,1,.66-.14c2.53,0,2.67-.06,2.66,1.82,0,2.74-.26,5.48-.29,8.23,0,3.5.07,7,.06,10.52a.93.93,0,0,1-.6.67,6.05,6.05,0,0,1-2.36.22C35.48,57.27,35.2,56.34,35.22,55.94Zm1.34-9.3c1.41,0,1.54,0,1.6-1,.09-1.33.2-2.65.24-4a.72.72,0,0,0-.42-.6c-.92-.26-1.52.07-1.54.81,0,1.42,0,2.84,0,4.27A1.91,1.91,0,0,0,36.56,46.64ZM38,50.51h0c0-.54,0-1.07,0-1.61s-.48-.7-1-.65a.91.91,0,0,0-.63.63c-.05,1.07,0,2.15,0,3.23,0,.37.09.7.72.7s.91-.28.89-.75S38,51,38,50.51ZM36.52,36.7c0,.82,0,1.6,0,2.38,0,.55.34.67,1,.6s1.13-.31,1.08-.9c0-.34,0-.69,0-1C38.48,36.62,38.24,36.49,36.52,36.7Zm-.45,19a1,1,0,0,0,.75.74c.8.12,1.12-.27,1.12-1.13,0-.42.05-.83-.8-.83C36.07,54.46,36.3,54.94,36.07,55.68Zm1.79-8,0-.39c-.4,0-.8-.06-1.19-.06-.06,0-.11.23-.16.35Zm0,6.07-.08-.4-1.17.16a1.88,1.88,0,0,0,.08.3ZM36.69,40.08v.41l1.4-.07v-.29Z"/><path class="cls-3" d="M16.81,40.61c2,.1,4.05.18,6.07.21.45,0,2.64.17,3.16.17,2.44,0,4.89,0,7.33,0,.16,0,.24.1.38.33a2.51,2.51,0,0,1,.12.66c0,2.52.05,2.67-1.54,2.66-2.33,0-4.67-.26-7-.29-3,0-6,.06-9,.06-.19,0-.49-.33-.56-.61a6.83,6.83,0,0,1-.19-2.35C15.68,40.87,16.47,40.59,16.81,40.61ZM24.72,42c0,1.41,0,1.54.84,1.6,1.12.09,2.25.19,3.37.24a.67.67,0,0,0,.52-.42c.21-.92-.07-1.53-.7-1.54-1.21,0-2.42,0-3.62,0A1.48,1.48,0,0,0,24.72,42Zm-3.29,1.44h0c.45,0,.91,0,1.37,0s.6-.49.55-1a.83.83,0,0,0-.53-.63c-.92-.06-1.83,0-2.75,0-.32,0-.6.08-.6.72s.24.91.64.89S21,43.39,21.43,43.39ZM33.18,41.9c-.7,0-1.36,0-2,0-.46,0-.57.34-.51,1s.27,1.14.77,1.09c.29,0,.58,0,.87,0C33.24,43.87,33.36,43.63,33.18,41.9ZM17,41.46a.94.94,0,0,0-.63.75c-.1.79.23,1.12,1,1.12.36,0,.71.05.71-.8C18.07,41.46,17.66,41.69,17,41.46Zm6.84,1.79.33,0c0-.39.06-.79.05-1.19,0-.05-.19-.1-.29-.15Zm-5.16,0,.34-.08L18.91,42c-.09,0-.25.06-.25.08C18.66,42.48,18.69,42.87,18.71,43.25Zm11.6-1.17-.36,0L30,43.47h.25Z"/><path class="cls-3" d="M16.81,48.59c2,.11,4.05.18,6.07.21.45,0,2.64.17,3.16.18,2.44,0,4.89,0,7.33,0,.16,0,.24.09.38.32a2.67,2.67,0,0,1,.12.67c0,2.52.05,2.66-1.54,2.65-2.33,0-4.67-.26-7-.29-3,0-6,.07-9,.07-.19,0-.49-.33-.56-.61a6.87,6.87,0,0,1-.19-2.35C15.68,48.85,16.47,48.58,16.81,48.59Zm7.91,1.34c0,1.42,0,1.54.84,1.61,1.12.08,2.25.19,3.37.23a.63.63,0,0,0,.52-.42c.21-.91-.07-1.52-.7-1.53-1.21,0-2.42,0-3.62,0A1.48,1.48,0,0,0,24.72,49.93Zm-3.29,1.44h0c.45,0,.91,0,1.37,0s.6-.49.55-1c0-.26-.34-.63-.53-.64-.92,0-1.83,0-2.75,0-.32,0-.6.08-.6.72s.24.9.64.89S21,51.37,21.43,51.37Zm11.75-1.48c-.7,0-1.36,0-2,0-.46,0-.57.34-.51,1s.27,1.13.77,1.09c.29,0,.58,0,.87,0C33.24,51.85,33.36,51.61,33.18,49.89ZM17,49.45a.91.91,0,0,0-.63.75c-.1.79.23,1.12,1,1.12.36,0,.71,0,.71-.81C18.07,49.44,17.66,49.67,17,49.45Zm6.84,1.78.33.05c0-.4.06-.79.05-1.19,0-.06-.19-.11-.29-.16Zm-5.16,0,.34-.08L18.91,50c-.09,0-.25.06-.25.09C18.66,50.47,18.69,50.85,18.71,51.24Zm11.6-1.18H30L30,51.46h.25Z"/><path class="cls-3" d="M10.74,55.94c.1-2.38.18-4.76.21-7.14,0-.52.17-3.1.17-3.71,0-2.87,0-5.75,0-8.62,0-.19.1-.28.33-.45a2.48,2.48,0,0,1,.66-.14c2.52,0,2.67-.06,2.66,1.82,0,2.74-.26,5.48-.29,8.23,0,3.5.06,7,.06,10.52a.94.94,0,0,1-.61.67,6,6,0,0,1-2.35.22C11,57.27,10.72,56.34,10.74,55.94Zm1.34-9.3c1.41,0,1.54,0,1.6-1,.09-1.33.19-2.65.24-4a.76.76,0,0,0-.42-.6c-.92-.26-1.53.07-1.54.81,0,1.42,0,2.84,0,4.27A1.91,1.91,0,0,0,12.08,46.64Zm1.44,3.87h0c0-.54,0-1.07,0-1.61s-.49-.7-1-.65a.89.89,0,0,0-.63.63c-.06,1.07,0,2.15,0,3.23,0,.37.08.7.72.7s.91-.28.89-.75S13.52,51,13.52,50.51ZM12,36.7c0,.82,0,1.6,0,2.38,0,.55.34.67,1,.6s1.14-.31,1.09-.9c0-.34,0-.69,0-1C14,36.62,13.76,36.49,12,36.7Zm-.44,19a1,1,0,0,0,.75.74c.79.12,1.12-.27,1.12-1.13,0-.42,0-.83-.8-.83C11.59,54.46,11.82,54.94,11.59,55.68Zm1.79-8,0-.39c-.39,0-.79-.06-1.19-.06-.05,0-.1.23-.15.35Zm0,6.07-.08-.4-1.16.16a1.88,1.88,0,0,0,.08.3C12.61,53.76,13,53.73,13.38,53.71ZM12.21,40.08l0,.41,1.41-.07v-.29Z"/></g></g></svg>