<svg xmlns="http://www.w3.org/2000/svg" viewBox="0 0 49.9 70.58"><defs><style>.cls-1{fill:#fff;}.cls-2{font-size:10px;fill:#1d1d1b;font-family:SerifGothicStd-ExtraBold, ITC Serif Gothic Std;font-weight:800;}.cls-3{fill:#14953d;}</style></defs><title>Asset 17</title><g id="Layer_2" data-name="Layer 2"><g id="Layer_1-2" data-name="Layer 1"><rect class="cls-1" width="49.9" height="70.58" rx="3.03"/><text class="cls-2" transform="translate(2.93 10.34)">6</text><text class="cls-2" transform="translate(40.91 67.14)">6</text><path class="cls-3" d="M22.62,31.84q.19-4.11.25-8.22c0-.61.19-3.57.2-4.28,0-3.31,0-6.62,0-9.93,0-.22.1-.33.37-.52a3.36,3.36,0,0,1,.77-.17c2.9,0,3.07-.06,3.06,2.1,0,3.16-.3,6.32-.34,9.48,0,4.05.08,8.09.08,12.14a1.08,1.08,0,0,1-.7.76,6.7,6.7,0,0,1-2.71.25C22.92,33.38,22.6,32.31,22.62,31.84Zm1.55-10.71c1.63.05,1.77-.05,1.85-1.14.09-1.52.22-3,.27-4.57a.83.83,0,0,0-.49-.69c-1.05-.3-1.75.08-1.77.93,0,1.64,0,3.28,0,4.92A2.12,2.12,0,0,0,24.17,21.13Zm1.65,4.46h0c0-.62,0-1.24,0-1.86s-.56-.81-1.15-.75a1,1,0,0,0-.73.72c-.06,1.24,0,2.49,0,3.73,0,.43.09.81.82.81s1.05-.32,1-.87S25.82,26.18,25.82,25.59ZM24.11,9.67c0,.94,0,1.84,0,2.74,0,.63.39.78,1.14.7s1.3-.36,1.25-1c0-.39,0-.79,0-1.18C26.38,9.58,26.1,9.43,24.11,9.67Zm-.5,21.88a1.11,1.11,0,0,0,.86.84c.91.15,1.29-.3,1.29-1.29,0-.49.06-1-.93-1C23.6,30.14,23.87,30.69,23.61,31.55Zm2.05-9.28.06-.44c-.46,0-.92-.07-1.37-.07-.07,0-.12.26-.18.4Zm0,7-.09-.46L24.24,29c0,.12.06.34.09.34C24.78,29.34,25.23,29.3,25.67,29.27ZM24.31,13.56V14L25.92,14v-.33Z"/><path class="cls-3" d="M22.62,60q.19-4.12.25-8.23c0-.6.19-3.57.2-4.28,0-3.31,0-6.62,0-9.93,0-.22.1-.32.37-.52a2.91,2.91,0,0,1,.77-.16c2.9,0,3.07-.07,3.06,2.09,0,3.16-.3,6.32-.34,9.49,0,4,.08,8.09.08,12.13a1.08,1.08,0,0,1-.7.76,6.89,6.89,0,0,1-2.71.26C22.92,61.56,22.6,60.49,22.62,60Zm1.55-10.72c1.63,0,1.77,0,1.85-1.14.09-1.52.22-3,.27-4.56a.84.84,0,0,0-.49-.7c-1.05-.3-1.75.08-1.77.94,0,1.64,0,3.27,0,4.91A2,2,0,0,0,24.17,49.31Zm1.65,4.46h0c0-.62,0-1.24,0-1.86s-.56-.81-1.15-.74a1,1,0,0,0-.73.72c-.06,1.24,0,2.48,0,3.72,0,.43.09.81.82.81s1.05-.32,1-.87S25.82,54.37,25.82,53.77ZM24.11,37.85c0,.94,0,1.84,0,2.75,0,.62.39.77,1.14.69s1.3-.36,1.25-1c0-.4,0-.79,0-1.19C26.38,37.77,26.1,37.61,24.11,37.85Zm-.5,21.88a1.14,1.14,0,0,0,.86.85c.91.14,1.29-.3,1.29-1.3,0-.49.06-1-.93-1C23.6,58.32,23.87,58.87,23.61,59.73Zm2.05-9.27.06-.45c-.46,0-.92-.07-1.37-.06-.07,0-.12.26-.18.4Zm0,7L25.58,57l-1.34.19c0,.12.06.35.09.35C24.78,57.52,25.23,57.48,25.67,57.45ZM24.31,41.74v.48l1.62-.08V41.8Z"/><path class="cls-3" d="M32.51,60q.18-4.11.24-8.22c0-.61.2-3.57.2-4.28,0-3.31,0-6.62,0-9.93,0-.22.11-.33.38-.52a3.16,3.16,0,0,1,.76-.17c2.91,0,3.08-.06,3.06,2.1,0,3.16-.3,6.32-.33,9.48,0,4,.07,8.09.07,12.14a1.06,1.06,0,0,1-.7.76,6.69,6.69,0,0,1-2.71.25C32.8,61.53,32.49,60.46,32.51,60Zm1.54-10.71c1.63,0,1.78-.05,1.85-1.14.1-1.52.22-3,.27-4.57a.82.82,0,0,0-.48-.69c-1.06-.3-1.76.08-1.77.93,0,1.64,0,3.28,0,4.92A2.12,2.12,0,0,0,34.05,49.28Zm1.66,4.46h0c0-.62,0-1.24,0-1.86s-.57-.81-1.16-.75a1.08,1.08,0,0,0-.73.72c-.06,1.24,0,2.49,0,3.73,0,.43.09.81.83.81s1-.32,1-.87S35.71,54.33,35.71,53.74ZM34,37.82c0,.94,0,1.84,0,2.74,0,.63.4.77,1.14.7s1.31-.36,1.25-1c0-.39,0-.79,0-1.18C36.27,37.73,36,37.57,34,37.82ZM33.49,59.7a1.12,1.12,0,0,0,.87.84c.91.15,1.28-.3,1.29-1.29,0-.49.05-1-.93-1C33.49,58.28,33.75,58.84,33.49,59.7Zm2.06-9.28L35.6,50c-.45,0-.91-.07-1.37-.07-.06,0-.12.26-.18.4Zm0,7-.1-.46-1.34.18c0,.13.07.35.1.35C34.66,57.49,35.11,57.45,35.56,57.42ZM34.2,41.71v.48l1.62-.09v-.33Z"/><path class="cls-3" d="M12.71,60c.12-2.74.21-5.48.24-8.22,0-.61.2-3.57.2-4.28,0-3.31,0-6.62,0-9.93,0-.22.11-.33.38-.52a3.27,3.27,0,0,1,.76-.17c2.91,0,3.08-.06,3.07,2.1,0,3.16-.3,6.32-.34,9.48,0,4,.08,8.09.07,12.14a1.06,1.06,0,0,1-.7.76,6.69,6.69,0,0,1-2.71.25C13,61.53,12.69,60.46,12.71,60Zm1.54-10.71c1.63,0,1.78-.05,1.85-1.14.1-1.52.22-3,.28-4.57a.85.85,0,0,0-.49-.69c-1.06-.3-1.76.08-1.77.93,0,1.64,0,3.28,0,4.92A3.41,3.41,0,0,0,14.25,49.28Zm1.66,4.46h0c0-.62,0-1.24,0-1.86s-.56-.81-1.15-.75a1,1,0,0,0-.73.72c-.06,1.24,0,2.49,0,3.73,0,.43.1.81.83.81s1-.32,1-.87S15.91,54.33,15.91,53.74ZM14.2,37.82c0,.94,0,1.84,0,2.74,0,.63.39.77,1.13.7s1.31-.36,1.26-1c0-.39,0-.79-.05-1.18C16.47,37.73,16.19,37.57,14.2,37.82ZM13.69,59.7a1.12,1.12,0,0,0,.87.84c.91.15,1.29-.3,1.29-1.29,0-.49.06-1-.93-1C13.69,58.28,14,58.84,13.69,59.7Zm2.06-9.28.06-.44c-.46,0-.92-.07-1.38-.07-.06,0-.12.26-.18.4Zm0,7L15.67,57l-1.35.18c0,.13.07.35.1.35C14.87,57.49,15.31,57.45,15.76,57.42ZM14.4,41.71v.48L16,42.1v-.33Z"/><path class="cls-3" d="M32.51,31.84q.18-4.11.24-8.22c0-.61.2-3.57.2-4.28,0-3.31,0-6.62,0-9.93,0-.22.11-.33.38-.52a3.16,3.16,0,0,1,.76-.17c2.91,0,3.08-.06,3.06,2.1,0,3.16-.3,6.32-.33,9.48,0,4.05.07,8.09.07,12.14a1.06,1.06,0,0,1-.7.76,6.69,6.69,0,0,1-2.71.25C32.8,33.38,32.49,32.31,32.51,31.84Zm1.54-10.71c1.63.05,1.78-.05,1.85-1.14.1-1.52.22-3,.27-4.57a.82.82,0,0,0-.48-.69c-1.06-.3-1.76.08-1.77.93,0,1.64,0,3.28,0,4.92A2.12,2.12,0,0,0,34.05,21.13Zm1.66,4.46h0c0-.62,0-1.24,0-1.86s-.57-.81-1.16-.75a1.08,1.08,0,0,0-.73.72c-.06,1.24,0,2.49,0,3.73,0,.43.09.81.83.81s1-.32,1-.87S35.71,26.18,35.71,25.59ZM34,9.67c0,.94,0,1.84,0,2.74,0,.63.4.78,1.14.7s1.31-.36,1.25-1c0-.39,0-.79,0-1.18C36.27,9.58,36,9.43,34,9.67Zm-.51,21.88a1.12,1.12,0,0,0,.87.84c.91.15,1.28-.3,1.29-1.29,0-.49.05-1-.93-1C33.49,30.14,33.75,30.69,33.49,31.55Zm2.06-9.28.05-.44c-.45,0-.91-.07-1.37-.07-.06,0-.12.26-.18.4Zm0,7-.1-.46L34.12,29c0,.12.07.34.1.34C34.66,29.34,35.11,29.3,35.56,29.27ZM34.2,13.56V14L35.81,14v-.33Z"/><path class="cls-3" d="M12.71,31.84c.12-2.74.21-5.48.24-8.22,0-.61.2-3.57.2-4.28,0-3.31,0-6.62,0-9.93,0-.22.11-.33.38-.52a3.27,3.27,0,0,1,.76-.17c2.91,0,3.08-.06,3.07,2.1,0,3.16-.3,6.32-.34,9.48,0,4.05.08,8.09.07,12.14a1.06,1.06,0,0,1-.7.76,6.69,6.69,0,0,1-2.71.25C13,33.38,12.69,32.31,12.71,31.84Zm1.54-10.71c1.63.05,1.78-.05,1.85-1.14.1-1.52.22-3,.28-4.57a.85.85,0,0,0-.49-.69c-1.06-.3-1.76.08-1.77.93,0,1.64,0,3.28,0,4.92A3.41,3.41,0,0,0,14.25,21.13Zm1.66,4.46h0c0-.62,0-1.24,0-1.86s-.56-.81-1.15-.75a1,1,0,0,0-.73.72c-.06,1.24,0,2.49,0,3.73,0,.43.1.81.83.81s1-.32,1-.87S15.91,26.18,15.91,25.59ZM14.2,9.67c0,.94,0,1.84,0,2.74,0,.63.39.78,1.13.7s1.31-.36,1.26-1c0-.39,0-.79-.05-1.18C16.47,9.58,16.19,9.43,14.2,9.67Zm-.51,21.88a1.12,1.12,0,0,0,.87.84c.91.15,1.29-.3,1.29-1.29,0-.49.06-1-.93-1C13.69,30.14,14,30.69,13.69,31.55Zm2.06-9.28.06-.44c-.46,0-.92-.07-1.38-.07-.06,0-.12.26-.18.4Zm0,7-.09-.46L14.32,29c0,.12.07.34.1.34C14.87,29.34,15.31,29.3,15.76,29.27ZM14.4,13.56V14L16,14v-.33Z"/></g></g></svg>