<svg xmlns="http://www.w3.org/2000/svg" viewBox="0 0 49.9 70.58"><defs><style>.cls-1{fill:#fff;}.cls-2{font-size:10px;fill:#1d1d1b;font-family:SerifGothicStd-ExtraBold, ITC Serif Gothic Std;font-weight:800;}.cls-3{fill:#14953d;}.cls-4{fill:#004f9f;}.cls-5{fill:#cf1619;}</style></defs><title>Asset 20</title><g id="Layer_2" data-name="Layer 2"><g id="Layer_1-2" data-name="Layer 1"><rect class="cls-1" width="49.9" height="70.58" rx="3.03"/><text class="cls-2" transform="translate(2.92 10.49)">9</text><text class="cls-2" transform="translate(40.91 67.29)">9</text><path class="cls-3" d="M23.22,42.61c.09-1.88.16-3.77.18-5.65,0-.41.15-2.45.15-2.94,0-2.28,0-4.55,0-6.83,0-.14.08-.22.28-.35a2.22,2.22,0,0,1,.56-.11c2.16,0,2.28-.05,2.27,1.44,0,2.17-.22,4.34-.24,6.51,0,2.78.05,5.56.05,8.34,0,.18-.28.46-.52.53a5.64,5.64,0,0,1-2,.17C23.44,43.67,23.21,42.93,23.22,42.61Zm1.15-7.36c1.2,0,1.31,0,1.37-.78.07-1,.16-2.09.2-3.14a.61.61,0,0,0-.36-.48c-.78-.21-1.3.06-1.31.64,0,1.13,0,2.26,0,3.38A1.27,1.27,0,0,0,24.37,35.25Zm1.23,3.07h0c0-.43,0-.86,0-1.28s-.42-.56-.86-.52a.76.76,0,0,0-.54.5c0,.85,0,1.71,0,2.56,0,.29.07.55.62.55s.77-.21.76-.59S25.6,38.72,25.6,38.32ZM24.33,27.37c0,.65,0,1.27,0,1.89,0,.43.3.53.85.48s1-.25.93-.72c0-.27,0-.54,0-.81C26,27.31,25.8,27.21,24.33,27.37Zm-.38,15a.82.82,0,0,0,.64.58c.68.1,1-.21,1-.89,0-.34,0-.66-.69-.66C24,41.44,24.14,41.82,24,42.41ZM25.48,36l0-.31c-.34,0-.68,0-1,0-.05,0-.09.17-.13.27Zm0,4.81-.07-.32-1,.13c0,.08,0,.24.07.24Zm-1-10.8v.33l1.2-.06v-.23Z"/><path class="cls-3" d="M23.22,61.29c.09-1.88.16-3.76.18-5.65,0-.41.15-2.45.15-2.94,0-2.27,0-4.55,0-6.82,0-.15.08-.23.28-.36a2.22,2.22,0,0,1,.56-.11c2.16,0,2.28,0,2.27,1.44,0,2.17-.22,4.34-.24,6.51,0,2.78.05,5.56.05,8.34,0,.18-.28.46-.52.53a5.64,5.64,0,0,1-2,.17C23.44,62.35,23.21,61.61,23.22,61.29Zm1.15-7.36c1.2,0,1.31,0,1.37-.78.07-1,.16-2.09.2-3.14a.61.61,0,0,0-.36-.48c-.78-.2-1.3.06-1.31.65,0,1.12,0,2.25,0,3.37A1.27,1.27,0,0,0,24.37,53.93ZM25.6,57h0c0-.43,0-.86,0-1.28s-.42-.56-.86-.51a.73.73,0,0,0-.54.49c0,.85,0,1.71,0,2.56,0,.29.07.56.62.56s.77-.22.76-.6S25.6,57.41,25.6,57Zm-1.27-11c0,.65,0,1.27,0,1.89,0,.43.3.53.85.48s1-.25.93-.72c0-.27,0-.54,0-.81C26,46,25.8,45.89,24.33,46.05Zm-.38,15a.82.82,0,0,0,.64.58c.68.1,1-.2,1-.89,0-.33,0-.66-.69-.66C24,60.12,24.14,60.5,24,61.09Zm1.53-6.37,0-.31c-.34,0-.68,0-1,0-.05,0-.09.18-.13.27Zm0,4.81-.07-.32-1,.13c0,.08,0,.24.07.24Zm-1-10.8v.33l1.2-.06v-.23Z"/><path class="cls-4" d="M31.29,61.27c.09-1.88.15-3.77.18-5.65,0-.42.15-2.46.15-2.94,0-2.28,0-4.55,0-6.83,0-.15.08-.22.28-.35a1.85,1.85,0,0,1,.56-.12c2.16,0,2.28,0,2.27,1.44,0,2.17-.22,4.35-.25,6.52,0,2.78.06,5.56.06,8.34,0,.18-.28.46-.52.52a5.44,5.44,0,0,1-2,.18C31.51,62.32,31.27,61.59,31.29,61.27Zm1.14-7.36c1.21,0,1.32,0,1.37-.78C33.88,52.08,34,51,34,50a.6.6,0,0,0-.36-.48c-.79-.21-1.3.06-1.31.64,0,1.13,0,2.25,0,3.38A1.64,1.64,0,0,0,32.43,53.91ZM33.66,57h0c0-.42,0-.85,0-1.28s-.42-.55-.86-.51a.74.74,0,0,0-.54.5c0,.85,0,1.7,0,2.56,0,.29.07.55.62.55s.77-.22.76-.59S33.66,57.38,33.66,57ZM32.4,46c0,.65,0,1.27,0,1.89,0,.43.29.53.84.47s1-.24.93-.71c0-.27,0-.55,0-.82C34.08,46,33.87,45.87,32.4,46Zm-.38,15a.82.82,0,0,0,.64.58c.68.1,1-.21,1-.89,0-.34,0-.66-.69-.66C32,60.1,32.21,60.48,32,61.07Zm1.52-6.38,0-.3c-.33,0-.67,0-1,0,0,0-.09.18-.14.28Zm0,4.81-.07-.31-1,.12c0,.09,0,.24.07.24C32.89,59.55,33.22,59.52,33.55,59.5Zm-1-10.79V49L33.74,49v-.23Z"/><path class="cls-5" d="M15.13,61.27c.09-1.88.16-3.77.18-5.65,0-.42.15-2.46.15-2.94,0-2.28,0-4.55,0-6.83,0-.15.08-.22.28-.35a1.85,1.85,0,0,1,.56-.12c2.16,0,2.28,0,2.28,1.44,0,2.17-.23,4.35-.25,6.52,0,2.78.05,5.56.05,8.34,0,.18-.28.46-.52.52a5.42,5.42,0,0,1-2,.18C15.35,62.32,15.12,61.59,15.13,61.27Zm1.15-7.36c1.21,0,1.31,0,1.37-.78.07-1.05.16-2.1.2-3.14a.56.56,0,0,0-.36-.48c-.78-.21-1.3.06-1.31.64,0,1.13,0,2.25,0,3.38A1.27,1.27,0,0,0,16.28,53.91ZM17.51,57h0c0-.42,0-.85,0-1.28s-.42-.55-.86-.51a.76.76,0,0,0-.54.5c0,.85,0,1.7,0,2.56,0,.29.07.55.61.55s.77-.22.76-.59S17.51,57.38,17.51,57ZM16.24,46c0,.65,0,1.27,0,1.89,0,.43.3.53.85.47s1-.24.93-.71c0-.27,0-.55,0-.82C17.92,46,17.71,45.87,16.24,46Zm-.38,15a.82.82,0,0,0,.64.58c.68.1,1-.21,1-.89,0-.34,0-.66-.69-.66C15.86,60.1,16.06,60.48,15.86,61.07Zm1.53-6.38,0-.3c-.34,0-.68,0-1,0-.05,0-.09.18-.13.28Zm0,4.81-.06-.31-1,.12c0,.09.05.24.07.24C16.73,59.55,17.06,59.52,17.39,59.5Zm-1-10.79V49l1.2-.06v-.23Z"/><path class="cls-4" d="M31.29,42.61c.09-1.88.15-3.77.18-5.65,0-.41.15-2.45.15-2.94,0-2.28,0-4.55,0-6.83,0-.14.08-.22.28-.35a2.22,2.22,0,0,1,.56-.11c2.16,0,2.28-.05,2.27,1.44,0,2.17-.22,4.34-.25,6.51,0,2.78.06,5.56.06,8.34,0,.18-.28.46-.52.53a5.66,5.66,0,0,1-2,.17C31.51,43.67,31.27,42.93,31.29,42.61Zm1.14-7.36c1.21,0,1.32,0,1.37-.78.08-1,.17-2.09.21-3.14a.61.61,0,0,0-.36-.48c-.79-.21-1.3.06-1.31.64,0,1.13,0,2.26,0,3.38A1.64,1.64,0,0,0,32.43,35.25Zm1.23,3.07h0c0-.43,0-.86,0-1.28s-.42-.56-.86-.52a.76.76,0,0,0-.54.5c0,.85,0,1.71,0,2.56,0,.29.07.55.62.55s.77-.21.76-.59S33.66,38.72,33.66,38.32ZM32.4,27.37c0,.65,0,1.27,0,1.89,0,.43.29.53.84.48s1-.25.93-.72c0-.27,0-.54,0-.81C34.08,27.31,33.87,27.21,32.4,27.37Zm-.38,15a.82.82,0,0,0,.64.58c.68.1,1-.21,1-.89,0-.34,0-.66-.69-.66C32,41.44,32.21,41.82,32,42.41ZM33.54,36l0-.31c-.33,0-.67,0-1,0,0,0-.09.17-.14.27Zm0,4.81-.07-.32-1,.13c0,.08,0,.24.07.24Zm-1-10.8v.33l1.21-.06v-.23Z"/><path class="cls-5" d="M15.13,42.61c.09-1.88.16-3.77.18-5.65,0-.41.15-2.45.15-2.94,0-2.28,0-4.55,0-6.83,0-.14.08-.22.28-.35a2.22,2.22,0,0,1,.56-.11c2.16,0,2.28-.05,2.28,1.44,0,2.17-.23,4.34-.25,6.51,0,2.78.05,5.56.05,8.34,0,.18-.28.46-.52.53a5.64,5.64,0,0,1-2,.17C15.35,43.67,15.12,42.93,15.13,42.61Zm1.15-7.36c1.21,0,1.31,0,1.37-.78.07-1,.16-2.09.2-3.14a.57.57,0,0,0-.36-.48c-.78-.21-1.3.06-1.31.64,0,1.13,0,2.26,0,3.38A1.27,1.27,0,0,0,16.28,35.25Zm1.23,3.07h0c0-.43,0-.86,0-1.28s-.42-.56-.86-.52a.78.78,0,0,0-.54.5c0,.85,0,1.71,0,2.56,0,.29.07.55.61.55s.77-.21.76-.59S17.51,38.72,17.51,38.32ZM16.24,27.37c0,.65,0,1.27,0,1.89,0,.43.3.53.85.48s1-.25.93-.72c0-.27,0-.54,0-.81C17.92,27.31,17.71,27.21,16.24,27.37Zm-.38,15a.82.82,0,0,0,.64.58c.68.1,1-.21,1-.89,0-.34,0-.66-.69-.66C15.86,41.44,16.06,41.82,15.86,42.41ZM17.39,36l0-.31c-.34,0-.68,0-1,0-.05,0-.09.17-.13.27Zm0,4.81-.06-.32-1,.13c0,.08.05.24.07.24Zm-1-10.8v.33l1.2-.06v-.23Z"/><path class="cls-3" d="M23.22,24c.09-1.88.16-3.76.18-5.65,0-.41.15-2.45.15-2.94,0-2.27,0-4.55,0-6.82,0-.15.08-.23.28-.36a2.22,2.22,0,0,1,.56-.11c2.16,0,2.28-.05,2.27,1.44,0,2.17-.22,4.34-.24,6.51,0,2.78.05,5.56.05,8.34,0,.19-.28.46-.52.53a5.42,5.42,0,0,1-2,.17C23.44,25,23.21,24.28,23.22,24Zm1.15-7.36c1.2,0,1.31,0,1.37-.78.07-1.05.16-2.09.2-3.14a.61.61,0,0,0-.36-.48c-.78-.2-1.3.06-1.31.65,0,1.12,0,2.25,0,3.37A1.27,1.27,0,0,0,24.37,16.59Zm1.23,3.07h0c0-.43,0-.86,0-1.28s-.42-.56-.86-.51a.73.73,0,0,0-.54.49c0,.85,0,1.71,0,2.56,0,.3.07.56.62.56s.77-.22.76-.6S25.6,20.07,25.6,19.66ZM24.33,8.72c0,.64,0,1.26,0,1.88,0,.43.3.53.85.48s1-.25.93-.72c0-.27,0-.54,0-.81C26,8.66,25.8,8.55,24.33,8.72Zm-.38,15a.82.82,0,0,0,.64.58c.68.1,1-.2,1-.88,0-.34,0-.67-.69-.67C24,22.78,24.14,23.16,24,23.75Zm1.53-6.37,0-.31c-.34,0-.68-.05-1,0-.05,0-.09.18-.13.27Zm0,4.81-.07-.32-1,.13c0,.08,0,.24.07.24Zm-1-10.8v.33l1.2-.06v-.23Z"/><path class="cls-4" d="M31.29,24c.09-1.88.15-3.76.18-5.65,0-.41.15-2.45.15-2.94,0-2.27,0-4.55,0-6.82,0-.15.08-.23.28-.36a2.22,2.22,0,0,1,.56-.11c2.16,0,2.28-.05,2.27,1.44,0,2.17-.22,4.34-.25,6.51,0,2.78.06,5.56.06,8.34,0,.19-.28.46-.52.53a5.44,5.44,0,0,1-2,.17C31.51,25,31.27,24.28,31.29,24Zm1.14-7.36c1.21,0,1.32,0,1.37-.78.08-1.05.17-2.09.21-3.14a.61.61,0,0,0-.36-.48c-.79-.2-1.3.06-1.31.65,0,1.12,0,2.25,0,3.37A1.64,1.64,0,0,0,32.43,16.59Zm1.23,3.07h0c0-.43,0-.86,0-1.28s-.42-.56-.86-.51a.73.73,0,0,0-.54.49c0,.85,0,1.71,0,2.56,0,.3.07.56.62.56s.77-.22.76-.6S33.66,20.07,33.66,19.66ZM32.4,8.72c0,.64,0,1.26,0,1.88,0,.43.29.53.84.48s1-.25.93-.72c0-.27,0-.54,0-.81C34.08,8.66,33.87,8.55,32.4,8.72Zm-.38,15a.82.82,0,0,0,.64.58c.68.1,1-.2,1-.88,0-.34,0-.67-.69-.67C32,22.78,32.21,23.16,32,23.75Zm1.52-6.37,0-.31c-.33,0-.67-.05-1,0,0,0-.09.18-.14.27Zm0,4.81-.07-.32-1,.13c0,.08,0,.24.07.24Zm-1-10.8v.33l1.21-.06v-.23Z"/><path class="cls-5" d="M15.13,24c.09-1.88.16-3.76.18-5.65,0-.41.15-2.45.15-2.94,0-2.27,0-4.55,0-6.82,0-.15.08-.23.28-.36a2.22,2.22,0,0,1,.56-.11c2.16,0,2.28-.05,2.28,1.44,0,2.17-.23,4.34-.25,6.51,0,2.78.05,5.56.05,8.34,0,.19-.28.46-.52.53a5.42,5.42,0,0,1-2,.17C15.35,25,15.12,24.28,15.13,24Zm1.15-7.36c1.21,0,1.31,0,1.37-.78.07-1.05.16-2.09.2-3.14a.57.57,0,0,0-.36-.48c-.78-.2-1.3.06-1.31.65,0,1.12,0,2.25,0,3.37A1.27,1.27,0,0,0,16.28,16.59Zm1.23,3.07h0c0-.43,0-.86,0-1.28s-.42-.56-.86-.51a.75.75,0,0,0-.54.49c0,.85,0,1.71,0,2.56,0,.3.07.56.61.56s.77-.22.76-.6S17.51,20.07,17.51,19.66ZM16.24,8.72c0,.64,0,1.26,0,1.88,0,.43.3.53.85.48s1-.25.93-.72c0-.27,0-.54,0-.81C17.92,8.66,17.71,8.55,16.24,8.72Zm-.38,15a.82.82,0,0,0,.64.58c.68.1,1-.2,1-.88,0-.34,0-.67-.69-.67C15.86,22.78,16.06,23.16,15.86,23.75Zm1.53-6.37,0-.31c-.34,0-.68-.05-1,0-.05,0-.09.18-.13.27Zm0,4.81-.06-.32-1,.13c0,.08.05.24.07.24Zm-1-10.8v.33l1.2-.06v-.23Z"/></g></g></svg>