<svg xmlns="http://www.w3.org/2000/svg" viewBox="0 0 49.9 70.58"><defs><style>.cls-1{fill:#fff;}.cls-2{font-size:10px;fill:#1d1d1b;font-family:SerifGothicStd-ExtraBold, ITC Serif Gothic Std;font-weight:800;}.cls-3{fill:#004f9f;}.cls-4{fill:#14953d;}</style></defs><title>Asset 15</title><g id="Layer_2" data-name="Layer 2"><g id="Layer_1-2" data-name="Layer 1"><rect class="cls-1" width="49.9" height="70.58" rx="3.03"/><text class="cls-2" transform="translate(3.26 10.34)">4</text><text class="cls-2" transform="translate(40.89 67.29)">4</text><path class="cls-3" d="M31.51,60q.18-4.11.24-8.22c0-.61.2-3.57.2-4.28,0-3.31,0-6.62,0-9.93,0-.22.11-.33.38-.52a3.16,3.16,0,0,1,.76-.17c2.91,0,3.08-.06,3.06,2.1,0,3.16-.3,6.32-.33,9.48,0,4,.07,8.09.07,12.14a1.06,1.06,0,0,1-.7.76,6.69,6.69,0,0,1-2.71.25C31.8,61.53,31.49,60.46,31.51,60Zm1.54-10.71c1.63,0,1.78-.05,1.85-1.14.1-1.52.22-3,.27-4.57a.82.82,0,0,0-.48-.69c-1.06-.3-1.76.08-1.77.93,0,1.64,0,3.28,0,4.92A2.12,2.12,0,0,0,33.05,49.28Zm1.66,4.46h0c0-.62,0-1.24,0-1.86s-.57-.81-1.16-.75a1.08,1.08,0,0,0-.73.72c-.06,1.24,0,2.49,0,3.73,0,.43.09.81.83.81s1-.32,1-.87S34.71,54.33,34.71,53.74ZM33,37.82c0,.94,0,1.84,0,2.74,0,.63.4.77,1.14.7s1.31-.36,1.25-1c0-.39,0-.79,0-1.18C35.27,37.73,35,37.57,33,37.82ZM32.49,59.7a1.12,1.12,0,0,0,.87.84c.91.15,1.28-.3,1.29-1.29,0-.49.05-1-.93-1C32.49,58.28,32.75,58.84,32.49,59.7Zm2.06-9.28L34.6,50c-.45,0-.91-.07-1.37-.07-.06,0-.12.26-.18.4Zm0,7-.1-.46-1.34.18c0,.13.07.35.1.35C33.66,57.49,34.11,57.45,34.56,57.42ZM33.2,41.71v.48l1.62-.09v-.33Z"/><path class="cls-4" d="M13.71,60c.12-2.74.21-5.48.24-8.22,0-.61.2-3.57.2-4.28,0-3.31,0-6.62,0-9.93,0-.22.11-.33.38-.52a3.27,3.27,0,0,1,.76-.17c2.91,0,3.08-.06,3.07,2.1,0,3.16-.3,6.32-.34,9.48,0,4,.08,8.09.07,12.14a1.06,1.06,0,0,1-.7.76,6.69,6.69,0,0,1-2.71.25C14,61.53,13.69,60.46,13.71,60Zm1.54-10.71c1.63,0,1.78-.05,1.85-1.14.1-1.52.22-3,.28-4.57a.85.85,0,0,0-.49-.69c-1.06-.3-1.76.08-1.77.93,0,1.64,0,3.28,0,4.92A3.41,3.41,0,0,0,15.25,49.28Zm1.66,4.46h0c0-.62,0-1.24,0-1.86s-.56-.81-1.15-.75a1,1,0,0,0-.73.72c-.06,1.24,0,2.49,0,3.73,0,.43.1.81.83.81s1.05-.32,1-.87S16.91,54.33,16.91,53.74ZM15.2,37.82c0,.94,0,1.84,0,2.74,0,.63.39.77,1.13.7s1.31-.36,1.26-1c0-.39,0-.79-.05-1.18C17.47,37.73,17.19,37.57,15.2,37.82ZM14.69,59.7a1.12,1.12,0,0,0,.87.84c.91.15,1.29-.3,1.29-1.29,0-.49.06-1-.93-1C14.69,58.28,15,58.84,14.69,59.7Zm2.06-9.28.06-.44c-.46,0-.92-.07-1.38-.07-.06,0-.12.26-.18.4Zm0,7L16.67,57l-1.35.18c0,.13.07.35.1.35C15.87,57.49,16.31,57.45,16.76,57.42ZM15.4,41.71v.48L17,42.1v-.33Z"/><path class="cls-4" d="M31.51,31.84q.18-4.11.24-8.22c0-.61.2-3.57.2-4.28,0-3.31,0-6.62,0-9.93,0-.22.11-.33.38-.52a3.16,3.16,0,0,1,.76-.17c2.91,0,3.08-.06,3.06,2.1,0,3.16-.3,6.32-.33,9.48,0,4.05.07,8.09.07,12.14a1.06,1.06,0,0,1-.7.76,6.69,6.69,0,0,1-2.71.25C31.8,33.38,31.49,32.31,31.51,31.84Zm1.54-10.71c1.63.05,1.78-.05,1.85-1.14.1-1.52.22-3,.27-4.57a.82.82,0,0,0-.48-.69c-1.06-.3-1.76.08-1.77.93,0,1.64,0,3.28,0,4.92A2.12,2.12,0,0,0,33.05,21.13Zm1.66,4.46h0c0-.62,0-1.24,0-1.86s-.57-.81-1.16-.75a1.08,1.08,0,0,0-.73.72c-.06,1.24,0,2.49,0,3.73,0,.43.09.81.83.81s1-.32,1-.87S34.71,26.18,34.71,25.59ZM33,9.67c0,.94,0,1.84,0,2.74,0,.63.4.78,1.14.7s1.31-.36,1.25-1c0-.39,0-.79,0-1.18C35.27,9.58,35,9.43,33,9.67Zm-.51,21.88a1.12,1.12,0,0,0,.87.84c.91.15,1.28-.3,1.29-1.29,0-.49.05-1-.93-1C32.49,30.14,32.75,30.69,32.49,31.55Zm2.06-9.28.05-.44c-.45,0-.91-.07-1.37-.07-.06,0-.12.26-.18.4Zm0,7-.1-.46L33.12,29c0,.12.07.34.1.34C33.66,29.34,34.11,29.3,34.56,29.27ZM33.2,13.56V14L34.81,14v-.33Z"/><path class="cls-3" d="M13.71,31.84c.12-2.74.21-5.48.24-8.22,0-.61.2-3.57.2-4.28,0-3.31,0-6.62,0-9.93,0-.22.11-.33.38-.52a3.27,3.27,0,0,1,.76-.17c2.91,0,3.08-.06,3.07,2.1,0,3.16-.3,6.32-.34,9.48,0,4.05.08,8.09.07,12.14a1.06,1.06,0,0,1-.7.76,6.69,6.69,0,0,1-2.71.25C14,33.38,13.69,32.31,13.71,31.84Zm1.54-10.71c1.63.05,1.78-.05,1.85-1.14.1-1.52.22-3,.28-4.57a.85.85,0,0,0-.49-.69c-1.06-.3-1.76.08-1.77.93,0,1.64,0,3.28,0,4.92A3.41,3.41,0,0,0,15.25,21.13Zm1.66,4.46h0c0-.62,0-1.24,0-1.86s-.56-.81-1.15-.75a1,1,0,0,0-.73.72c-.06,1.24,0,2.49,0,3.73,0,.43.1.81.83.81s1.05-.32,1-.87S16.91,26.18,16.91,25.59ZM15.2,9.67c0,.94,0,1.84,0,2.74,0,.63.39.78,1.13.7s1.31-.36,1.26-1c0-.39,0-.79-.05-1.18C17.47,9.58,17.19,9.43,15.2,9.67Zm-.51,21.88a1.12,1.12,0,0,0,.87.84c.91.15,1.29-.3,1.29-1.29,0-.49.06-1-.93-1C14.69,30.14,15,30.69,14.69,31.55Zm2.06-9.28.06-.44c-.46,0-.92-.07-1.38-.07-.06,0-.12.26-.18.4Zm0,7-.09-.46L15.32,29c0,.12.07.34.1.34C15.87,29.34,16.31,29.3,16.76,29.27ZM15.4,13.56V14L17,14v-.33Z"/></g></g></svg>