<svg xmlns="http://www.w3.org/2000/svg" viewBox="0 0 49.9 70.58"><defs><style>.cls-1{fill:#fff;}.cls-2{font-size:10px;fill:#1d1d1b;font-family:SerifGothicStd-ExtraBold, ITC Serif Gothic Std;font-weight:800;}.cls-3{fill:#cf1619;}.cls-4{fill:#004f9f;}</style></defs><title>Asset 21</title><g id="Layer_2" data-name="Layer 2"><g id="Layer_1-2" data-name="Layer 1"><rect class="cls-1" width="49.9" height="70.58" rx="3.03"/><text class="cls-2" transform="translate(2.61 10.34)">1</text><text class="cls-2" transform="translate(42.41 67.29)">1</text><path class="cls-3" d="M25.09,52.05v2.16a14,14,0,0,0,1.57-.82c1.1-.78,1.78-.74,2.57.33a3.66,3.66,0,0,1,1,3c-1.15-.09-2.25,0-3.21-1L28.75,55a3.66,3.66,0,0,0-.18-.77c-.35-.68-1-.79-1.45-.24A3.11,3.11,0,0,0,26.61,55a4.24,4.24,0,0,0-.18.77l-6.1,1.52c-.54-.48-.55-1.24-.54-2.15l2.84-.61V52.32l-4,1.41c-.51.18-.56.61-.59,1.08a15,15,0,0,0,.59,4.56c.11.47.23.93.35,1.38-1.16.68-1.53.6-2-.51a19.39,19.39,0,0,1-1.34-5.52c-.08-.76-.16-1.53-.18-2.3,0-.93.32-1.29,1.16-1a4.79,4.79,0,0,0,2.95-.12c1-.26,2-.42,3-.63l.05-.8c-.17-.06-.29-.14-.39-.12-.59.12-1.19.23-1.77.39a1,1,0,0,1-1.26-.46,14.65,14.65,0,0,1-1.92-6.44,1.17,1.17,0,0,1,.12-.38L21,42.44l-1.16-1.81c-1,.23-1.95.44-2.91.69a1.79,1.79,0,0,1-2.34-1.55c-.06-.56.36-.65.78-.69l2.91-.25c.23,0,.46-.09.76-.15-.08-.75-.19-1.47-.22-2.18-.05-1,.19-1.24,1.19-1.07a5.47,5.47,0,0,1,1.05.3.9.9,0,0,1,.64,1.14c-.09.42-.11.85-.18,1.48l5.06-.53c.4-1.11.76-2.18,1.16-3.24s.52-1,1.42-.57c.48.24.92.58,1.38.87l-1.39,2.77c1-.15,1.81-.24,2.57-.39,2.2-.45,2.45-.28,2.81,2a1.4,1.4,0,0,1-.09.23c-.29,0-.64.06-1,.06-1.17,0-2.35,0-3.52,0-1.73,0-1.73.05-2.41,1.88a3.63,3.63,0,0,0,1.64-.05,3.14,3.14,0,0,1,3.24,1.74c-1.27,1.47-1.82,3.35-2.59,5.12-.43,1-.43.9-1.52.84a12.9,12.9,0,0,0-2.77.23c-.21,0-.35.47-.7,1,.92-.06,1.51-.1,2.1-.12,1.7-.06,3.4-.18,5.09-.12a6.72,6.72,0,0,1,2.44.63c.8.35.81.73.52,1.55a12.16,12.16,0,0,0-.57,2.23,29,29,0,0,1-2.23,7.16c-.22.54-.62.73-1,.44C29.38,60.82,27.33,60,26,58.25c0,0,0-.08,0-.22a5.65,5.65,0,0,1,.78.16c.62.19,1.22.44,1.84.61.92.24,1.38.08,1.79-.76a12.22,12.22,0,0,0,1.31-4.77c.05-1.06-.3-1.51-1.38-1.57A15.12,15.12,0,0,0,25.09,52.05Zm.07-4.24a15.38,15.38,0,0,0,1.76-.26,1.07,1.07,0,0,0,.71-.55c.26-1.09.46-2.2.61-3.31.06-.46-.27-.76-.76-.73-.75,0-1.5.14-2.27.21v1.44l2.28-.23V45.8c-.46.12-.85.21-1.23.32l-1.18.36Zm-2.5-4.16a5.15,5.15,0,0,0-.56,0c-2.12.27-2.3.49-2.14,2.58,0,0,0,.08,0,.12.14,2,.09,2.23,2.47,1.74.07,0,.12-.09.27-.21l-.07-1.05c-2,0-2.18-.09-2-1.55l2-.32ZM26,39.83a16.86,16.86,0,0,0-3.95.54l.81,1.7,2.66-.34Z"/><path class="cls-4" d="M13.31,16a9.26,9.26,0,0,1,1.16-.29l17.77-1.45c.6,0,1.37-.33,1.76-.07a4.2,4.2,0,0,1,1,1.72,6,6,0,0,1,.5,1.48c.11.6-.25.91-.85.81a2.28,2.28,0,0,1-.58-.17,9.7,9.7,0,0,0-4.39-.68A89.77,89.77,0,0,0,15,18.62c-.47.09-.82,0-1-.46C13.76,17.49,13.57,16.8,13.31,16Z"/></g></g></svg>