<svg xmlns="http://www.w3.org/2000/svg" viewBox="0 0 49.9 70.58"><defs><style>.cls-1{fill:#fff;}.cls-2{font-size:10px;fill:#1d1d1b;font-family:SerifGothicStd-ExtraBold, ITC Serif Gothic Std;font-weight:800;}.cls-3{fill:#cf1619;}.cls-4{fill:#004f9f;}</style></defs><title>Asset 22</title><g id="Layer_2" data-name="Layer 2"><g id="Layer_1-2" data-name="Layer 1"><rect class="cls-1" width="49.9" height="70.58" rx="3.03"/><text class="cls-2" transform="translate(3.26 10.6)">2</text><text class="cls-2" transform="translate(41.13 67.29)">2</text><path class="cls-3" d="M26.06,58c.4.14.8.29,1.21.42s.84.3,1.27.41c1,.24,1.45.07,1.88-.82a12.59,12.59,0,0,0,1.27-4.65c.07-1.08-.28-1.55-1.33-1.62a16,16,0,0,0-5.31.33L25,54a2,2,0,0,0,1.73-.57c1-.78,1.72-.72,2.48.29a7.73,7.73,0,0,1,.95,1.68,5.77,5.77,0,0,1,.16,1.36c-1.24-.08-2.32,0-3.29-1,.47-.16.83-.27,1.18-.42.53-.23.64-.53.4-1.06s-.75-.79-1.16-.46a3.33,3.33,0,0,0-.79,1.15,3.63,3.63,0,0,0-.19.9l-6.05,1.51c-.59-.65-.64-.85-.5-2.17l2.74-.58V52.35l-4,1.39a.86.86,0,0,0-.58,1c.11,1.33.22,2.65.4,4,.1.72.33,1.41.49,2.09-1.13.69-1.53.6-2-.51A19.16,19.16,0,0,1,15.66,55c-.11-.92-.15-1.86-.21-2.79,0-.56.36-1,.82-.8,2.13.76,4-.46,6.05-.63a1.68,1.68,0,0,0,.3-.11l0-.75c-.18,0-.3-.13-.4-.11-.6.11-1.19.22-1.77.38a1,1,0,0,1-1.26-.45,16.77,16.77,0,0,1-2-6.2,1.75,1.75,0,0,1,.18-.64L21,42.46l-1.12-1.79c-.8.18-1.66.35-2.51.57-1.75.45-2,.34-2.76-1.36a.92.92,0,0,1-.05-.25c.21-.58.73-.51,1.21-.55l3.28-.3c-.08-.91-.18-1.71-.2-2.5s.2-.93,1-.85a4.54,4.54,0,0,1,.94.21c1,.34,1.06.48.92,1.5,0,.35-.06.7-.1,1.23l5-.51c.72-1.31.84-2.86,1.69-4.13A3.4,3.4,0,0,1,30.45,35L29.11,37.7c1.1-.18,1.92-.29,2.73-.46,1.95-.41,2.08-.34,2.58,1.59,0,.18.06.38.12.73-.44,0-.79,0-1.14,0-1.17,0-2.35,0-3.52,0-1.73,0-1.77.07-2.4,2,.6-.06,1.14-.1,1.68-.17a3.13,3.13,0,0,1,3.2,1.77A16.68,16.68,0,0,0,29.91,48c-.51,1.25-.51,1.18-1.82,1.11a14.43,14.43,0,0,0-2.53.23c-.36.05-.35.11-.39,1L27,50.18c1.66,0,3.32-.18,5-.11a7.41,7.41,0,0,1,2.55.67c.76.34.77.7.5,1.47a12.55,12.55,0,0,0-.59,2.22,31,31,0,0,1-2.26,7.29c-.2.49-.53.55-1,.4l-.11,0c-1.68-1.29-3.75-2.08-5.09-3.82Zm-.85-14.81v1.45l2.27-.22v1.41l-2.41.67.09,1.35a15.26,15.26,0,0,0,1.76-.27,1.09,1.09,0,0,0,.7-.56,30.85,30.85,0,0,0,.6-3.3.65.65,0,0,0-.77-.73C26.73,43,26,43.11,25.21,43.18Zm-2.57.49c-.21,0-.33,0-.45,0-2.24.25-2.41.48-2.24,2.7.16,2,.1,2.21,2.46,1.76.07,0,.13-.09.21-.14V46.87c-2.05,0-2.09,0-2-1.55l2-.32ZM26,39.85a15.36,15.36,0,0,0-3.94.57l.83,1.69,2.65-.36Z"/><path class="cls-4" d="M37.79,24.14a11,11,0,0,0-2.07-1,20.42,20.42,0,0,0-3.95-.55c-1.94,0-3.88.11-5.82.21-2.22.11-4.44.27-6.67.38a10.45,10.45,0,0,0-5.41,1.55c-.66.43-1,.29-1.26-.48a8.65,8.65,0,0,1-.36-2c-.06-.88.23-1.13,1.13-1.19,2.1-.15,4.2-.24,6.3-.45,1.88-.19,3.76-.58,5.64-.77,2.58-.27,5.16-.43,7.74-.65.93-.08,1.85-.2,2.77-.27a1.69,1.69,0,0,1,.93.08A3.71,3.71,0,0,1,38,24S38,24.06,37.79,24.14Z"/><path class="cls-4" d="M31.07,8.29a10.91,10.91,0,0,1,.34,1.27,1.44,1.44,0,0,1-1.15,1.92c-1.84.6-3.69,1.16-5.55,1.7a2.56,2.56,0,0,1-1.19.11,6.88,6.88,0,0,0-3.57.35,5.64,5.64,0,0,1-.7.21c-.54.13-.83-.09-.95-.63-.18-.79-.42-1.56-.62-2.34s.06-1.15.86-1.18a12,12,0,0,1,1.34,0,24.89,24.89,0,0,0,8.63-.9C29.32,8.63,30.15,8.48,31.07,8.29Z"/></g></g></svg>