<svg xmlns="http://www.w3.org/2000/svg" viewBox="0 0 49.9 70.58"><defs><style>.cls-1{fill:#fff;}.cls-2{font-size:10px;fill:#1d1d1b;font-family:SerifGothicStd-ExtraBold, ITC Serif Gothic Std;font-weight:800;}.cls-3{fill:#cf1619;}.cls-4{fill:#004f9f;}</style></defs><title>Asset 29</title><g id="Layer_2" data-name="Layer 2"><g id="Layer_1-2" data-name="Layer 1"><rect class="cls-1" width="49.9" height="70.58" rx="3.03"/><text class="cls-2" transform="translate(2.92 10.49)">9</text><text class="cls-2" transform="translate(40.91 67.29)">9</text><path class="cls-3" d="M25,50.11c1.58-.1,3.11-.27,4.64-.27a24.73,24.73,0,0,1,3.74.32,2.61,2.61,0,0,1,1.26.66,1.19,1.19,0,0,1,.26,1c-.22,1-.62,2-.79,3a29.34,29.34,0,0,1-2.43,7.25,2.83,2.83,0,0,1-1-.28c-1.64-1.25-3.68-2-4.83-4l1.41.5c2.16.79,2.69.57,3.41-1.62a23.51,23.51,0,0,0,.82-3.41c.18-1.07-.17-1.49-1.22-1.71-1.82-.4-3.59,0-5.43.22v2a1.83,1.83,0,0,0,1.57-.51c1.17-.9,1.88-.8,2.71.44a3.19,3.19,0,0,1,.88,2.7,3.75,3.75,0,0,1-3.28-.89,5.52,5.52,0,0,0,1.17-.38c.24-.14.55-.45.54-.67a1.27,1.27,0,0,0-.49-.88.92.92,0,0,0-.88.09,2.63,2.63,0,0,0-.62,1.12c-.28,1.05-.26,1-1.31,1.18-1.3.25-2.58.62-3.87,1-.38.1-.75.23-1.29.39-.18-.82-.33-1.5-.51-2.29l3-.63V52.31a13.54,13.54,0,0,0-4.25,1.4,1.05,1.05,0,0,0-.35.83,23.33,23.33,0,0,0,.21,3c.15,1,.43,2,.64,3-1.14.67-1.49.6-1.93-.45a21.62,21.62,0,0,1-1.52-8.07c0-.72.37-1.12.95-.87,1.37.6,2.61,0,3.89-.23l2.35-.46.05-1c-.82.18-1.54.29-2.22.49a1,1,0,0,1-1.25-.42,17.44,17.44,0,0,1-2-6.2.72.72,0,0,1,.06-.35,2.52,2.52,0,0,1,.16-.29l3.52-.43-1.17-1.82-3.15.78a1.89,1.89,0,0,1-2.12-1.72c0-.48.41-.55.79-.58l2.42-.2,1.29-.16c-.1-.82-.22-1.56-.28-2.31s.21-1.14,1-1a5.94,5.94,0,0,1,1.17.31c.56.2.88.52.7,1.2a9.11,9.11,0,0,0-.14,1.44l5-.52c.35-1,.7-2,1.06-2.94.48-1.31.66-1.39,1.9-.7a7.71,7.71,0,0,1,1,.76c-.45.9-.84,1.68-1.37,2.72,1-.16,1.75-.26,2.48-.39.44-.07.87-.17,1.31-.28a.84.84,0,0,1,1.12.62c.18.57.38,1.13.61,1.83-.45.05-.76.11-1.06.11-1.25,0-2.5,0-3.76,0-1.67,0-1.79.13-2.31,2L29,41.19a3.29,3.29,0,0,1,2.75,1,.86.86,0,0,1,.14,1.19c-.7,1.26-1.33,2.57-2,3.87a9.87,9.87,0,0,0-.41,1c-.23.57-.57.73-1.23.68a16.56,16.56,0,0,0-2.89.14C24.86,49.17,24.75,49.52,25,50.11Zm0-2.48a9.42,9.42,0,0,0,1.51-.19,1.38,1.38,0,0,0,.86-.55,5.75,5.75,0,0,0,.44-4.09L25,43v1.49l2.35-.25v1.41c-.49.13-1,.27-1.41.37C24.8,46.23,24.74,46.32,25,47.63Zm-4.53-2.47,2-.42c0-.33,0-.53,0-.73a5.72,5.72,0,0,0-.13-.58l-.78.11c-1.94.35-2.13.6-1.93,2.55.23,2.25.29,2.3,2.52,1.86.07,0,.13-.08.27-.15s0-.43,0-.66a2.23,2.23,0,0,0-.08-.45C20.4,46.7,20.32,46.65,20.49,45.16Zm1.3-5,.85,1.77,2.66-.37.48-1.82A16.23,16.23,0,0,0,21.79,40.16Z"/><path class="cls-4" d="M12.58,27.45c.37-.4.67-.77,1-1.08a19.32,19.32,0,0,0,5.78-9.79,1.36,1.36,0,0,0,0-.34,3.34,3.34,0,0,0-.78.06q-2.09.66-4.14,1.38c-.79.27-1,.23-1.37-.48L13,17.09c-.76-1.43-.59-1.81,1-2.2,1.76-.45,3.52-1,5.29-1.36a1.35,1.35,0,0,0,1.21-1.26c.32-2.2.72-4.4,1.05-6.6.16-1.06.28-1.18,1.29-1,.24,0,.48.11.71.17,1.54.42,1.61.6,1,2.06a17,17,0,0,0-1.18,5.32c2.32-.8,4.55-1.73,7.06-.75a5.56,5.56,0,0,1-.43.88,9.37,9.37,0,0,0-1.75,4.22c-.26,1.48-.5,3-.69,4.44a3,3,0,0,0,2.78,3.67,17.07,17.07,0,0,0,3.49-.15A1.55,1.55,0,0,0,35.27,23c.13-1.58.26-3.15.36-4.72,0-.51,0-1,0-1.53l.28-.08a3.87,3.87,0,0,1,.43.57,21.93,21.93,0,0,1,1.8,6.66c.1.72.28,1.42.44,2.13s.06.95-.65,1.18a5.8,5.8,0,0,1-1.31.23c-1.86.13-3.72.36-5.57.33-3.85,0-5.82-2.11-5.76-6,0-1.5.22-3,.33-4.48.05-.65.12-1.29.12-1.94s-.19-.86-.88-.75c-.12,0-.23.07-.35.08-1.42.12-2.08.87-2.54,2.26a51.52,51.52,0,0,1-2.59,5.61,9.66,9.66,0,0,0-.63,1.53c-.57,2-3.61,4-5.65,3.62A2.3,2.3,0,0,1,12.58,27.45Z"/></g></g></svg>