<svg xmlns="http://www.w3.org/2000/svg" viewBox="0 0 49.9 70.58"><defs><style>.cls-1{fill:#fff;}.cls-2{font-size:10px;fill:#1d1d1b;font-family:SerifGothicStd-ExtraBold, ITC Serif Gothic Std;font-weight:800;}.cls-3{fill:#cf1619;}.cls-4{fill:#004f9f;}</style></defs><title>Asset 24</title><g id="Layer_2" data-name="Layer 2"><g id="Layer_1-2" data-name="Layer 1"><rect class="cls-1" width="49.9" height="70.58" rx="3.03"/><text class="cls-2" transform="translate(3.26 10.34)">4</text><text class="cls-2" transform="translate(40.89 67.29)">4</text><path class="cls-3" d="M23.57,49.06c-.8.17-1.45.29-2.1.44-.84.2-1.09.15-1.5-.61a18.08,18.08,0,0,1-1.87-5.74,3,3,0,0,1,.12-.89l3.6-.41L20.65,40l-3.13.79a1.87,1.87,0,0,1-2.13-1.73c0-.47.4-.56.78-.59l3-.26.7-.1c-.1-.79-.21-1.53-.28-2.28s.17-1.13,1-1a5.16,5.16,0,0,1,1.17.3c.73.29.79.46.69,1.3,0,.39-.05.79-.08,1.33l2.49-.24,2.46-.27c.7-1.3.81-2.87,1.69-4.12a3.61,3.61,0,0,1,2.25,1.29L30,37.1c1.13-.2,2-.33,2.86-.51,1.78-.37,2-.27,2.43,1.51a6.25,6.25,0,0,1,.1.84H34.23c-1.18,0-2.35,0-3.53,0-1.7,0-1.78.12-2.34,2,.59-.05,1.14-.09,1.69-.16a3.25,3.25,0,0,1,2.73,1A.86.86,0,0,1,32.92,43c-.72,1.31-1.35,2.66-2,4-.18.36-.3.75-.48,1.11a.86.86,0,0,1-1,.49,27.39,27.39,0,0,0-3,.08c-.54,0-.66.38-.44,1l1.74-.08c1.69,0,3.39-.16,5.09-.12a6.82,6.82,0,0,1,2.33.58c.85.36.89.77.61,1.64a19.77,19.77,0,0,0-.7,2.95A30.32,30.32,0,0,1,33,61.06c-.19.48-.56.69-.94.44-1.8-1.21-3.83-2.1-5.35-4a3,3,0,0,1,.76,0c.7.21,1.37.5,2.07.69a1.18,1.18,0,0,0,1.63-.65,12.33,12.33,0,0,0,1.42-5.1c.06-.83-.42-1.31-1.37-1.37a15.29,15.29,0,0,0-5.28.34v1.93a2,2,0,0,0,1.55-.55c1.14-.86,1.79-.77,2.65.35a3.59,3.59,0,0,1,.92,2.9,4.51,4.51,0,0,1-3.28-1,7,7,0,0,0,1.13-.38c.25-.15.59-.41.59-.63a1.17,1.17,0,0,0-.43-.91,1.09,1.09,0,0,0-1,.11,2.48,2.48,0,0,0-.59,1,5.56,5.56,0,0,0-.21.9l-6.1,1.53c-.62-.5-.52-1.3-.53-2.16L23.54,54v-2.1a15.26,15.26,0,0,0-4.17,1.38,1.12,1.12,0,0,0-.45.89c.1,1.4.27,2.8.46,4.2a17.62,17.62,0,0,0,.4,1.84c-1.17.65-1.5.59-1.94-.47a21.4,21.4,0,0,1-1.51-8.06c0-.72.32-1.06,1-.83,2.07.7,3.87-.5,5.81-.66C23.49,50.1,23.48,50,23.57,49.06ZM26,44l2.34-.26V45.2l-1.21.32L26,45.85v1.29c2.43-.1,2.56-.07,3-2.58a7.26,7.26,0,0,0,.08-1.32c0-.58-.25-.93-.87-.87s-1.42.15-2.17.23Zm-2.49,3.49V46.26c-2.13,0-2.21-.11-2-1.57l2-.33V42.92c-.82.21-1.55.37-2.25.61a.89.89,0,0,0-.52.59,8,8,0,0,0,.45,3.62Zm-.75-7.86.92,1.83,2.63-.35.5-1.93Z"/><path class="cls-4" d="M14.76,12c1.07.5,2.12-.14,3.2-.38A70.07,70.07,0,0,1,31.55,9.88a19.54,19.54,0,0,1,4.09.44,5,5,0,0,1,1.7.88c.45.31.49.73.19,1.27a9.52,9.52,0,0,0-.76,2c-.34,1.29-.59,2.6-.91,3.9a15.89,15.89,0,0,1-1.63,4.3,17.25,17.25,0,0,0-.92,2.11c-.41,1-.84,1.14-1.77.6s-2.06-1.29-3.13-1.86a3,3,0,0,0-1.47-.38c-1.94.12-3.88.31-5.8.53a5,5,0,0,0-2.28.75A1.47,1.47,0,0,1,16.73,24a5,5,0,0,1-.54-.81,22.33,22.33,0,0,1-2.54-10C13.62,12.28,13.9,12,14.76,12Zm14.05.06c-.12.89-.26,1.67-.31,2.46-.15,2,.09,2.17,1.94,1.29a1.31,1.31,0,0,1,1.74.81c.22.55,0,1.07-.76,1.25a14.54,14.54,0,0,1-3.34.41,1.84,1.84,0,0,1-1.81-1.81c-.09-.92,0-1.86,0-2.79,0-.42,0-.84,0-1.33a7.12,7.12,0,0,1-1.13.12,1.2,1.2,0,0,0-1.33,1.12l-.63,3.08a2.59,2.59,0,0,1-.14.58,4.81,4.81,0,0,1-4.36,2.16,23.34,23.34,0,0,0,2.19-2.55c.62-1,.46-2.17.36-3.51l-4,1.54A9.36,9.36,0,0,0,18,21.33c.77-.06,1.49-.1,2.21-.18q4-.46,8-1a1,1,0,0,1,1.14.66c.16.39.36.77.53,1.12a2.15,2.15,0,0,0,1.77-1.33,18.2,18.2,0,0,0,2-6.21A1.81,1.81,0,0,0,31.7,12.1,24.84,24.84,0,0,0,28.81,12.08Z"/></g></g></svg>