<svg xmlns="http://www.w3.org/2000/svg" viewBox="0 0 49.9 70.58"><defs><style>.cls-1{fill:#fff;}.cls-2{font-size:10px;fill:#1d1d1b;font-family:SerifGothicStd-ExtraBold, ITC Serif Gothic Std;font-weight:800;}.cls-3{fill:#cf1619;}.cls-4{fill:#004f9f;}</style></defs><title>Asset 26</title><g id="Layer_2" data-name="Layer 2"><g id="Layer_1-2" data-name="Layer 1"><rect class="cls-1" width="49.9" height="70.58" rx="3.03"/><text class="cls-2" transform="translate(2.93 10.34)">6</text><text class="cls-2" transform="translate(40.91 67.14)">6</text><path class="cls-3" d="M32.73,43.54c-.7,1.41-1.3,2.59-1.87,3.79-.27.59-.49,1.2-.73,1.8a1,1,0,0,1-1.22.68,17.15,17.15,0,0,0-2.77.1c-.59,0-.76.37-.58,1h1.15c1.94-.06,3.88-.19,5.82-.16a6.2,6.2,0,0,1,2.32.61c.79.36.8.74.53,1.56a15.72,15.72,0,0,0-.59,2.34,27.54,27.54,0,0,1-2.51,7.54c-1.2-.07-4.79-2.5-6-4.14.44.11.73.16,1,.25.66.19,1.3.44,2,.61a1.24,1.24,0,0,0,1.52-.7,12.64,12.64,0,0,0,1.38-5.11,1.17,1.17,0,0,0-.93-1.25l-.12,0a12.86,12.86,0,0,0-5.6.36v1.85a2,2,0,0,0,1.6-.56c1.11-.84,1.74-.78,2.56.31a3.47,3.47,0,0,1,1,2.85,3.64,3.64,0,0,1-3.25-.88A5.2,5.2,0,0,0,28.52,56c.24-.14.58-.44.57-.65a1.26,1.26,0,0,0-.51-.88.9.9,0,0,0-.87.08A3,3,0,0,0,27,55.75c-.24.93-.21.88-1.15,1a32.09,32.09,0,0,0-3.87.94c-1.36.45-1.63.35-1.8-1.08,0-.23,0-.47,0-.82L23,55.25V53.14a14.2,14.2,0,0,0-4.14,1.37,1.16,1.16,0,0,0-.39.92c.07,1.25.18,2.5.36,3.74a21,21,0,0,0,.52,2.22c-1.09.74-1.49.66-2-.43a19,19,0,0,1-1.34-5.4c-.1-.84-.18-1.69-.2-2.54s.4-1.25,1.21-.94A4.19,4.19,0,0,0,19.8,52c1.06-.26,2.13-.45,3.26-.68l.06-.84c-.16,0-.28-.11-.38-.09-.56.1-1.11.22-1.66.34-.89.2-1.18.14-1.58-.67a20.4,20.4,0,0,1-1.16-2.92,26.81,26.81,0,0,1-.62-3,2.09,2.09,0,0,1,.13-.65l3.54-.44-1.15-1.82c-1,.24-2,.47-2.94.72-1.12.29-1.39.21-2-.8-.17-.31-.29-.65-.43-1,.64-.79,1.49-.41,2.2-.55s1.51-.19,2.32-.29l-.26-3.07a2.48,2.48,0,0,1,2.68.33c.19.12.24.56.24.85A13.69,13.69,0,0,1,21.91,39L27,38.5c.38-1.08.75-2.15,1.14-3.2s.54-1.07,1.52-.58a12.33,12.33,0,0,1,1.3.83l-1.39,2.82,3.38-.61c1.19-.22,1.24-.2,1.68,1,.16.4.27.83.45,1.4-.45.05-.79.11-1.12.12-1.3,0-2.6.06-3.89,0a1.69,1.69,0,0,0-1.93,1.24c-.06.19-.15.37-.3.74L29.55,42A3.18,3.18,0,0,1,32.73,43.54Zm-7.15,4.9c.51,0,.9-.11,1.29-.12a1.28,1.28,0,0,0,1.38-1.11A19,19,0,0,0,28.68,45c.1-1.14-.11-1.31-1.29-1.31-.24,0-.49,0-.73,0-1.16.1-1.3.35-.89,1.58L28,45l-.07,1.43-2.43.67Zm-2.53.31V47.52c-2,0-2.2-.13-1.93-1.55l1.95-.36V44.2c-.75.18-1.41.33-2.06.5a.86.86,0,0,0-.71,1c.06.85.1,1.7.23,2.53s.33.83,1.11.76C22.08,48.93,22.52,48.84,23.05,48.75Zm.2-6,2.67-.36.46-1.84a12.36,12.36,0,0,0-3.94.49Z"/><path class="cls-4" d="M12.92,16.06a8,8,0,0,1,1-.29l20.77-2c.6-.06,1.2-.21,1.8-.24.28,0,.73.1.82.3a18.86,18.86,0,0,1,1.23,2.89c.22.7-.28,1.14-1,.84-2.72-1.25-5.58-.84-8.38-.7-3.55.18-7.1.55-10.64.89-1.24.12-2.47.38-3.7.61s-1.32.17-1.67-.94C13.11,17,13,16.6,12.92,16.06Z"/><path class="cls-4" d="M27.38,19c.3.11.61.18.89.31,1.6.78,3.18,1.59,4.79,2.35a1.55,1.55,0,0,1,1,1.82c-.18,1.11-.3,2.24-.54,3.35-.07.33-.47.86-.69.84A2,2,0,0,1,31.83,27c-.19-.18-.24-.5-.38-.75-1-1.78-2.05-3.57-3.11-5.34a4.27,4.27,0,0,0-.81-.89A.7.7,0,0,1,27.38,19Z"/><path class="cls-4" d="M15,27.73a16.8,16.8,0,0,0,1.85-2.14c1-1.73,2-3.5,2.87-5.32.71-1.45.93-1.54,2.08-.37.17.17.34.35.5.53.88,1,.87,1.17,0,2.18l-4,4.51a2.79,2.79,0,0,1-2.42.89A4.62,4.62,0,0,1,15,27.73Z"/><path class="cls-4" d="M24.53,5.35a7.27,7.27,0,0,1,.66.93c.54,1.18,1,2.36,1.58,3.54a.76.76,0,0,1,0,.11c.22.65.59,1.37,0,1.94a1.91,1.91,0,0,1-2.17.22,7.8,7.8,0,0,1-1.16-.65,1.56,1.56,0,0,1-.84-1.73A15.17,15.17,0,0,1,23.29,7,7.89,7.89,0,0,1,24.53,5.35Z"/></g></g></svg>