<svg xmlns="http://www.w3.org/2000/svg" viewBox="0 0 49.9 70.58"><defs><style>.cls-1{fill:#fff;}.cls-2{font-size:10px;fill:#1d1d1b;font-family:SerifGothicStd-ExtraBold, ITC Serif Gothic Std;font-weight:800;}.cls-3{fill:#cf1619;}.cls-4{fill:#004f9f;}</style></defs><title>Asset 25</title><g id="Layer_2" data-name="Layer 2"><g id="Layer_1-2" data-name="Layer 1"><rect class="cls-1" width="49.9" height="70.58" rx="3.03"/><text class="cls-2" transform="translate(3.15 10.34)">5</text><text class="cls-2" transform="translate(41.26 67.14)">5</text><path class="cls-3" d="M32.39,61.65c-1.36-.09-5.16-2.71-5.93-4.1.34.08.6.12.85.2.54.17,1.06.4,1.61.55,1.09.31,1.59.12,2.06-.88a14,14,0,0,0,1.26-4.66c.09-.9-.37-1.37-1.35-1.53a18.3,18.3,0,0,0-5.31.38c0,.59,0,1.21-.08,1.88A2,2,0,0,0,27.13,53c1.16-.89,1.85-.77,2.72.43a3.72,3.72,0,0,1,.88,2.8,4.59,4.59,0,0,1-3.35-1c.55-.18.91-.27,1.25-.41a.75.75,0,0,0,.42-1.17.78.78,0,0,0-1.22-.33,2.59,2.59,0,0,0-.65,1,5.61,5.61,0,0,0-.24,1l-6.11,1.53c-.65-.44-.35-1.3-.73-2.11l3.09-.68V52A16.43,16.43,0,0,0,19,53.32a1,1,0,0,0-.51,1.15c.14,1.36.34,2.72.54,4.08.09.59.26,1.17.38,1.72-1.11.68-1.51.61-1.93-.43A21,21,0,0,1,16,51.66c0-.63.33-.94.94-.74,2.05.68,3.86-.48,5.8-.64.61-.05.52-.47.41-1.07-.64.13-1.22.21-1.79.35-1.14.29-1.49.24-1.91-.84a52.08,52.08,0,0,1-1.67-5.18c-.27-1,0-1.19,1.12-1.26.81,0,1.6-.19,2.57-.32l-1.16-1.78c-.87.2-1.77.38-2.65.61-1.5.39-1.78.28-2.46-1.11-.08-.17-.13-.37-.24-.68,1.43-.75,3-.28,4.57-.81-.09-.67-.2-1.38-.27-2.08-.1-1,.2-1.32,1.25-1.14a5.84,5.84,0,0,1,.93.27.92.92,0,0,1,.72,1.19,9.68,9.68,0,0,0-.11,1.46l5-.52c.37-1,.73-2.07,1.1-3.08s.58-1.22,1.66-.66a10.77,10.77,0,0,1,1.19.8l-1.37,2.8c1.15-.21,2-.34,2.88-.52,1.72-.35,1.92-.24,2.37,1.44A7.72,7.72,0,0,1,35,39c-.4,0-.74.08-1.08.09-1.18,0-2.35,0-3.53,0-1.73,0-1.78.09-2.39,2,.6-.06,1.14-.08,1.67-.15A3.21,3.21,0,0,1,32.5,42a.79.79,0,0,1,.11,1.08c-.7,1.27-1.33,2.58-2,3.87-.16.33-.29.67-.42,1-.23.61-.56.81-1.29.72a13.4,13.4,0,0,0-2.89.14c-.49,0-.53.41-.39.89.57,0,1.16,0,1.75,0,1.65-.05,3.31-.18,5-.12a7.48,7.48,0,0,1,2.56.64c.8.34.81.72.53,1.56a16.62,16.62,0,0,0-.66,2.7A29,29,0,0,1,32.39,61.65ZM25.61,47.37c.62-.09,1.05-.19,1.49-.21a1.16,1.16,0,0,0,1.2-1c.18-.94.29-1.9.4-2.86.05-.54-.22-.86-.79-.81-.74.06-1.49.15-2.32.24,0,.58.06,1,.08,1.42l2.27-.25c.24,1.37.19,1.46-.92,1.71L25.61,46Zm-2.4-2.87V43.05c-.83.21-1.56.37-2.26.61a.84.84,0,0,0-.51.59,7.38,7.38,0,0,0,.47,3.62l2.27-.22V46.38c-2.21.08-2.12-.06-2-1.58Zm3.3-5.16a18,18,0,0,0-3.9.56,4.36,4.36,0,0,0,.19.65c.42,1,.49,1.07,1.62,1,.51-.06,1-.16,1.56-.25C26.14,40.66,26.29,40.12,26.51,39.34Z"/><path class="cls-4" d="M30.67,23.3l6.88-.54c.4.91.82,1.74,1.12,2.61a1.39,1.39,0,0,1-.11,1.1c-.11.17-.68.17-1,.05a13.82,13.82,0,0,0-6-.62c-3.76.22-7.52.37-11.28.64-2.13.16-4.26.51-6.38.79-.85.11-1,.08-1.25-.72a17.69,17.69,0,0,1-.47-1.85c.52-.08.91-.16,1.29-.19,1.86-.13,3.72-.26,5.58-.35A1.41,1.41,0,0,0,20.64,23c.4-1.65.85-3.28,1.34-5.16-.71.15-1.21.22-1.69.36-.7.19-1.38.44-2.08.66s-1,.15-1.23-.65c-.05-.15-.09-.31-.13-.47-.32-1.42-.13-1.64,1.29-1.57a2.49,2.49,0,0,0,.61,0l3.48-.49a19.47,19.47,0,0,0,.6-4.42,11.21,11.21,0,0,0-3.69.26c-1.15.15-1.21.16-1.49-1a9.6,9.6,0,0,1-.2-1.07c-.12-1,0-1.1,1-1.18,2.42-.19,4.85-.32,7.26-.59,1.53-.17,3-.54,4.54-.84,1-.21,1.2-.15,1.55.81.18.48.27,1,.44,1.61-1.84.72-3.76.79-5.63,1.29-.29,1.44-.57,2.85-.87,4.33a4.75,4.75,0,0,0,2.67-.35,4.69,4.69,0,0,1,4.47.72c.83.56.81.75.4,1.66C32.4,19,31.61,21,30.67,23.3Zm-3.26.23a16.83,16.83,0,0,0,1.44-4.91,2.65,2.65,0,0,0-.06-.84c-.18-.75-.52-1-1.31-.93-.52,0-1,.16-1.55.2a.92.92,0,0,0-.88.83c-.33,1.33-.68,2.65-1,4-.16.61-.36,1.22-.59,2Z"/></g></g></svg>