<svg xmlns="http://www.w3.org/2000/svg" viewBox="0 0 49.9 70.58"><defs><style>.cls-1{fill:#fff;}.cls-2{font-size:10px;fill:#1d1d1b;font-family:SerifGothicStd-ExtraBold, ITC Serif Gothic Std;font-weight:800;}.cls-3{fill:#cf1619;}.cls-4{fill:#004f9f;}</style></defs><title>Asset 27</title><g id="Layer_2" data-name="Layer 2"><g id="Layer_1-2" data-name="Layer 1"><rect class="cls-1" width="49.9" height="70.58" rx="3.03"/><text class="cls-2" transform="translate(2.72 10.34)">7</text><text class="cls-2" transform="translate(40.91 67.29)">7</text><path class="cls-3" d="M32.25,62.47c-1.32-.19-4.81-2.59-5.9-4,.48-.27.86.07,1.23.21,2.51.93,3,.74,3.78-1.83a20.3,20.3,0,0,0,.71-3.18c.14-1-.18-1.41-1.18-1.62a5.6,5.6,0,0,0-1.57-.17c-1.28.08-2.55.23-3.89.36v2A1.45,1.45,0,0,0,27,53.7c1-.92,1.95-.61,2.66.38a3.68,3.68,0,0,1,.91,2.77,3.87,3.87,0,0,1-3.26-.79l1.79-.77C29,54.62,29,54,28.21,54c-.54,0-1,.44-1.2,1.16-.28,1.18-.29,1.11-1.4,1.32a26.07,26.07,0,0,0-3.63.92c-1.36.46-1.65.35-1.8-1.07,0-.24,0-.48,0-.83L23,54.85V52.76a14.31,14.31,0,0,0-4.17,1.38c-.24.12-.38.59-.41.92A14,14,0,0,0,19,59.74L19.33,61c-1.06.77-1.49.69-2-.41a18.71,18.71,0,0,1-1.3-5.16,25.82,25.82,0,0,1-.22-2.78c0-.9.38-1.26,1.2-.94a4.06,4.06,0,0,0,2.71-.07c.54-.15,1.11-.23,1.66-.34L23,51l.07-.84c-.15,0-.27-.12-.37-.1-.51.09-1,.19-1.54.31-1.07.26-1.34.19-1.82-.81a22.37,22.37,0,0,1-1.06-2.71,20.68,20.68,0,0,1-.6-2.47,5.62,5.62,0,0,1,0-1.16l3.67-.44-1.18-1.83c-1,.24-2,.47-3,.72s-1.32.18-1.88-.75c-.18-.3-.32-.64-.54-1.09,1.47-.79,3.13-.32,4.58-.83l-.22-3a2.59,2.59,0,0,1,2.67.3,1.4,1.4,0,0,1,.21.87,11.5,11.5,0,0,1-.14,1.48l5-.51c.22-.61.46-1.24.69-1.88s.4-1.14.62-1.71a.6.6,0,0,1,.86-.42,3.12,3.12,0,0,1,1.76,1.17l-1.26,2.5c1.63.17,3-.54,4.55-.51L35,39.76c-.48.05-.78.1-1.09.11-1.25,0-2.5,0-3.76,0-1.67,0-1.76.1-2.32,2,1.9-.31,3.77-.54,4.93,1.53A15.84,15.84,0,0,0,30.37,48c-.12.3-.24.6-.37.9-.21.47-.53.57-1.07.54a16.45,16.45,0,0,0-2.89.12c-.55.06-.54.13-.49,1,.47,0,.94-.11,1.41-.12,1.94,0,3.89-.15,5.82-.08a6.67,6.67,0,0,1,2.27.75.8.8,0,0,1,.45,1c-.36,1.32-.75,2.64-1,4A33.87,33.87,0,0,1,32.25,62.47Zm-6.7-17.58L28,44.7l-.08,1.4c-.52.13-1,.26-1.45.36-1.06.24-1.17.47-.71,1.61.35,0,.71-.11,1.07-.12a1.34,1.34,0,0,0,1.43-1.2c.09-.39.2-.78.26-1.18a3,3,0,0,0-.16-2.26,5.78,5.78,0,0,0-2.78.3ZM23.1,48.31,23,47.12c-2,.12-2.13,0-2-1.53.33,0,.68-.08,1-.14s.68-.18,1.06-.28L23,43.89c-.34,0-.58.07-.82.12-2,.36-2.1.51-1.88,2.55S20.17,49,23.1,48.31Zm3.23-8.13a12.64,12.64,0,0,0-3.93.51l.8,1.7L25.87,42Z"/><path class="cls-4" d="M25.11,17.7c0,1.39-.07,2.6,0,3.8A2.52,2.52,0,0,0,27.28,24a8.84,8.84,0,0,0,5-.19c1.08-.38,1.47-.46,2,.95.83,2.21.44,2.81-1.89,2.87a21.21,21.21,0,0,1-5.67-.45,4.64,4.64,0,0,1-3.33-2.76,8.27,8.27,0,0,1-.85-3.63c0-.8,0-1.6,0-2.58a31.55,31.55,0,0,0-9.2,2.57c-.91-.95-1-2.16-1.3-3.41l10.39-1.66c0-.41.1-.72.1-1,0-1.7,0-3.4,0-5.1,0-.52-.13-1-.18-1.56-.08-.73.19-1.1.85-.93A18.11,18.11,0,0,1,26.05,8.1c.46.2.55.6.28,1.11-1,1.81-.83,3.82-1,6,3.63-.6,7.13-1,10.66-1.87.52,1.06,1,2,1.45,3a2.58,2.58,0,0,1,.21.95c0,.58-.37.86-1,.75a2.76,2.76,0,0,1-.58-.16,13.64,13.64,0,0,0-6.82-.58C28,17.44,26.63,17.55,25.11,17.7Z"/></g></g></svg>