<svg xmlns="http://www.w3.org/2000/svg" viewBox="0 0 49.9 70.58"><defs><style>.cls-1{fill:#fff;}.cls-2{font-size:10px;fill:#1d1d1b;font-family:SerifGothicStd-ExtraBold, ITC Serif Gothic Std;font-weight:800;}.cls-3{fill:#cf1619;}.cls-4{fill:#004f9f;}</style></defs><title>Asset 23</title><g id="Layer_2" data-name="Layer 2"><g id="Layer_1-2" data-name="Layer 1"><rect class="cls-1" width="49.9" height="70.58" rx="3.03"/><text class="cls-2" transform="translate(3.15 10.47)">3</text><text class="cls-2" transform="translate(41 67.14)">3</text><path class="cls-3" d="M18,42.46l3.55-.41-1.16-1.8c-.81.19-1.67.36-2.52.59-1.68.44-1.94.33-2.7-1.28a2.91,2.91,0,0,1-.12-.48c1.4-.8,3.08-.22,4.53-.84-.07-.74-.18-1.5-.21-2.25s.19-1.08,1.08-1a4,4,0,0,1,.83.2c1,.33,1,.48.91,1.5-.05.35-.05.7-.09,1.24l5-.53c.38-1.09.73-2.13,1.1-3.15s.58-1.13,1.6-.61a12.24,12.24,0,0,1,1.24.84l-1.39,2.77c1.12-.19,1.94-.3,2.75-.47,1.93-.39,2.18-.23,2.6,1.74a3.43,3.43,0,0,1,0,.56H32.83l-2.56,0c-1.55,0-1.71.18-2.19,2A10.75,10.75,0,0,0,29.52,41a3,3,0,0,1,2.42.54c1,.67,1,1,.38,2a18.52,18.52,0,0,0-1.14,2.27c-.32.7-.57,1.43-.88,2.13s-.47.81-1.36.77a20,20,0,0,0-2.89.17c-.5,0-.51.43-.33,1l1.72-.08c1.7-.05,3.4-.16,5.1-.12a6.66,6.66,0,0,1,2.33.58c.84.35.87.76.61,1.64A21.74,21.74,0,0,0,34.75,55a31.26,31.26,0,0,1-2.07,6.33.65.65,0,0,1-1.06.38c-1.73-1.23-3.74-2.09-5.24-3.93a3.1,3.1,0,0,1,.77,0c.69.22,1.36.5,2.07.69s1.23.09,1.62-.64a11.92,11.92,0,0,0,1.42-5.1c0-.84-.41-1.32-1.35-1.38a16.05,16.05,0,0,0-5.28.33v2A2.07,2.07,0,0,0,27.26,53c1-.78,1.69-.71,2.47.31a3.64,3.64,0,0,1,1.05,3,4.64,4.64,0,0,1-3.33-.94c.56-.19.93-.29,1.28-.44a.77.77,0,0,0,.35-1.21A.75.75,0,0,0,28,53.38a3.61,3.61,0,0,0-.77,1.17,3.83,3.83,0,0,0-.21.87L20.86,57c-.55-.51-.51-1.27-.5-2.18l2.85-.61V52.08A13.49,13.49,0,0,0,19,53.47a1.18,1.18,0,0,0-.38.94c.08,1.28.21,2.57.39,3.85a20.49,20.49,0,0,0,.49,2.09c-1.12.69-1.52.6-2-.49a18.27,18.27,0,0,1-1.27-5c-.12-1-.2-1.93-.23-2.9,0-.79.33-1.16,1-.9a5.65,5.65,0,0,0,3.43-.18c.87-.19,1.74-.36,2.69-.55l.1-.77c-.16-.06-.28-.16-.38-.14a13.24,13.24,0,0,0-1.77.37,1.08,1.08,0,0,1-1.42-.58,18.31,18.31,0,0,1-1.9-6A1.66,1.66,0,0,1,18,42.46Zm7.73.3v1.49c.42-.06.77-.12,1.12-.15s.78-.06,1.22-.09v1.4l-2.46.67.07,1.36c.71-.1,1.28-.14,1.82-.27a1,1,0,0,0,.65-.48,6.4,6.4,0,0,0,.48-4.16Zm-2.46.38c-.79.19-1.47.3-2.11.52-.27.09-.64.38-.66.6A6.93,6.93,0,0,0,21,47.93c.57,0,1.06,0,1.54-.09a5.83,5.83,0,0,0,.71-.19V46.47c-2.13,0-2.25-.14-1.94-1.58l2-.33Zm3.31-3.72-4,.45.87,1.82L26,41.35Z"/><path class="cls-4" d="M15.51,26.52c-.75-.85-.91-1.27-1.17-3a11.81,11.81,0,0,1,1.34-.29c5-.49,10-1,15-1.42,1.72-.17,3.44-.37,5.3-.57.47,1,1,2,1.4,3s-.09,1.52-1.12,1.15a16.49,16.49,0,0,0-6.59-.58,92,92,0,0,0-12.17,1.29C16.8,26.21,16.14,26.38,15.51,26.52Z"/><path class="cls-4" d="M30.73,6.68A12.86,12.86,0,0,1,31.06,8c.13,1-.06,1.32-1,1.64-1.41.49-2.83,1-4.28,1.37a18.58,18.58,0,0,1-2.39.28c-1,.12-2,.21-3,.41s-1.25,0-1.33-.84a9.46,9.46,0,0,0-.42-1.51c-.27-.92-.08-1.2.86-1.23.65,0,1.3,0,1.94,0a23.93,23.93,0,0,0,6.73-.88C29,7,29.82,6.86,30.73,6.68Z"/><path class="cls-4" d="M30.87,16c0,.78-.2,1.06-1.16,1.27-1.3.28-2.61.51-3.93.71s-2.8.36-4.2.56c-.55.08-1.07.16-1.39-.42A2.7,2.7,0,0,1,19.74,16c.06-.18.44-.34.68-.37,3-.41,6-.8,9-1.19C30.55,14.26,30.87,14.63,30.87,16Z"/></g></g></svg>