<svg xmlns="http://www.w3.org/2000/svg" viewBox="0 0 49.9 70.58"><defs><style>.cls-1{fill:#fff;}.cls-2{font-size:10px;fill:#1d1d1b;font-family:SerifGothicStd-ExtraBold, ITC Serif Gothic Std;font-weight:800;}.cls-3{fill:#cf1619;}.cls-4{fill:#004f9f;}</style></defs><title>Asset 28</title><g id="Layer_2" data-name="Layer 2"><g id="Layer_1-2" data-name="Layer 1"><rect class="cls-1" width="49.9" height="70.58" rx="3.03"/><text class="cls-2" transform="translate(2.92 10.49)">8</text><text class="cls-2" transform="translate(40.91 67.17)">8</text><path class="cls-3" d="M22.72,50.59l0-.8c-.13-.06-.21-.13-.27-.12a17.26,17.26,0,0,0-1.9.38,1.08,1.08,0,0,1-1.41-.59A8.79,8.79,0,0,1,18.51,48q-.63-2-1.14-4a5.22,5.22,0,0,1,0-1.25L21,42.38l-1.14-1.82c-1,.23-1.93.45-2.9.7-1.16.3-1.47.19-2-.85-.15-.28-.26-.58-.44-1,1.46-.79,3.13-.27,4.55-.83-.08-1.05-.15-2-.22-3a2.54,2.54,0,0,1,2.61.33,1.13,1.13,0,0,1,.28.83,12.58,12.58,0,0,1-.14,1.57l5-.52c.36-1,.71-2,1.08-3,.43-1.18.63-1.26,1.76-.66a9.25,9.25,0,0,1,1.11.8l-1.39,2.75,4.48-.75a4.31,4.31,0,0,1,.9,2.57c-.33,0-.6.07-.87.07-1.26,0-2.51,0-3.77,0-1.71,0-1.71,0-2.39,2,.57-.07,1.07-.11,1.56-.19a3.33,3.33,0,0,1,2.88,1,.85.85,0,0,1,.25,1.17c-.69,1.23-1.31,2.5-1.95,3.76-.16.32-.26.68-.41,1-.4.89-.45.85-1.47.82a19.65,19.65,0,0,0-2.65.17c-.61,0-.71.41-.48,1l1.18-.07c2,0,4-.16,5.95-.13a5.53,5.53,0,0,1,2.08.57c.78.35.8.75.56,1.57a26.7,26.7,0,0,0-.75,3.18,30.86,30.86,0,0,1-2.31,6.72c-1.2-.05-4.8-2.47-6-4.07a6.65,6.65,0,0,1,.85.12c.65.2,1.29.5,1.95.65A1.28,1.28,0,0,0,30.44,58a12.77,12.77,0,0,0,1.33-4.88c.05-.81-.27-1.17-1.06-1.4-.11,0-.24,0-.36-.06a13.18,13.18,0,0,0-5.23.43v1.75a1.39,1.39,0,0,0,1.55-.46,1.61,1.61,0,0,1,2.66.36,3.32,3.32,0,0,1,.88,2.74,3.23,3.23,0,0,1-3.16-.83,6.13,6.13,0,0,0,1-.35c.25-.15.62-.44.6-.63a1.41,1.41,0,0,0-.54-1,1.07,1.07,0,0,0-1,.22A2.28,2.28,0,0,0,26.67,55c-.24,1-.23.93-1.22,1.12a30.34,30.34,0,0,0-3.87,1c-1.29.43-1.55.33-1.71-1,0-.24,0-.48,0-.87l2.83-.63V52.42c-.41.08-.8.12-1.16.23-.66.19-1.31.41-2,.65-1.5.56-1.69.8-1.5,2.43.15,1.32.45,2.63.69,3.94.06.35.15.7.23,1-1.16.69-1.58.64-2-.52a41.75,41.75,0,0,1-1.26-4.92,17.84,17.84,0,0,1-.25-3c0-.84.37-1.21,1.12-.9a4.26,4.26,0,0,0,2.82-.07C20.53,51,21.6,50.82,22.72,50.59Zm2.51-2.86a9.65,9.65,0,0,0,1.62-.21,1.37,1.37,0,0,0,.82-.6A5.93,5.93,0,0,0,28.11,43a4.64,4.64,0,0,0-2.94.24l.07,1.26,2.35-.23v1.4c-.52.14-1,.28-1.51.39C25.06,46.32,25,46.42,25.23,47.73ZM20.7,45.26l2.1-.42-.08-1.37c-.78.18-1.45.32-2.1.5a.88.88,0,0,0-.7,1c.07.84.13,1.68.22,2.52a.77.77,0,0,0,1,.77L22.79,48l-.05-1.18C20.61,46.74,20.58,46.72,20.7,45.26ZM22,40.19,22.86,42l2.68-.36.47-2Z"/><path class="cls-4" d="M39.92,25.42a9.19,9.19,0,0,1-1.68.15c-2.69-.33-5.37-.67-8-1.07-1-.15-1.33-.57-1.36-1.55A9.91,9.91,0,0,0,26.66,17c-1.16-1.51-2.25-3.07-3.43-4.57a12.48,12.48,0,0,0-1.69-1.72.81.81,0,0,1-.3-1.05,11.43,11.43,0,0,1,.7-1.4c.45-.69.82-.65,1.28,0,1.57,2.3,3.16,4.59,4.74,6.89a20.48,20.48,0,0,0,5.24,5.18C35,21.6,36.75,22.76,38.54,24A2.74,2.74,0,0,1,39.92,25.42Z"/><path class="cls-4" d="M10.24,25.55c.46-.39.76-.69,1.11-.94a11.36,11.36,0,0,0,3.42-3.87c1-1.88,2.16-3.71,3.27-5.55a2.75,2.75,0,0,1,.75-.93A1.31,1.31,0,0,1,19.87,14a13,13,0,0,1,2.18,1.5c.24.2.31.61.46.94a30.08,30.08,0,0,0-5.9,5.18A5.08,5.08,0,0,0,15,24.3a1.5,1.5,0,0,1-.43.72A4.62,4.62,0,0,1,10.24,25.55Z"/></g></g></svg>