<svg xmlns="http://www.w3.org/2000/svg" viewBox="0 0 49.9 70.58"><defs><style>.cls-1{fill:#fff;}.cls-2{font-size:10px;fill:#1d1d1b;font-family:SerifGothicStd-ExtraBold, ITC Serif Gothic Std;font-weight:800;}.cls-3{fill:#004f9f;}.cls-4{fill:#14953d;}</style></defs><title>Asset 5</title><g id="Layer_2" data-name="Layer 2"><g id="Layer_1-2" data-name="Layer 1"><rect class="cls-1" width="49.9" height="70.58" rx="3.03"/><text class="cls-2" transform="translate(3.26 10.34)">4</text><text class="cls-2" transform="translate(40.89 67.29)">4</text><path class="cls-3" d="M23.68,25.47a8.48,8.48,0,0,1-9,8.56c-4.15-.1-7.72-3.93-7.82-8.74a8.26,8.26,0,0,1,8.35-8.35A8.41,8.41,0,0,1,23.68,25.47Zm-2.07-.25C22.07,22,18.4,18.83,14.85,19A6.25,6.25,0,0,0,8.69,25.4,6.41,6.41,0,0,0,15,31.75,6.57,6.57,0,0,0,21.61,25.22Z"/><path class="cls-3" d="M15.06,21.16a4.32,4.32,0,0,1,4.38,4.25,4.53,4.53,0,0,1-4.58,4.53c-2.3,0-3.95-2-3.93-4.7A4.25,4.25,0,0,1,15.06,21.16Zm0,1.65a2.4,2.4,0,0,0-2.64,2.59,2.64,2.64,0,0,0,2.64,2.68,2.82,2.82,0,0,0,2.78-2.5A2.76,2.76,0,0,0,15.07,22.81Z"/><path class="cls-3" d="M16.26,25.48a1,1,0,0,1-1.19,1.05c-.7,0-1-.48-.92-1.13s.35-1.08,1-1S16.2,24.83,16.26,25.48Z"/><path class="cls-4" d="M23.79,45.07a8.48,8.48,0,0,1-9,8.56C10.67,53.53,7.1,49.7,7,44.89a8.27,8.27,0,0,1,8.35-8.35A8.41,8.41,0,0,1,23.79,45.07Zm-2.07-.25c.47-3.27-3.21-6.39-6.76-6.23A6.23,6.23,0,0,0,8.81,45a6.39,6.39,0,0,0,6.3,6.35A6.56,6.56,0,0,0,21.72,44.82Z"/><path class="cls-4" d="M15.17,40.77A4.31,4.31,0,0,1,19.55,45,4.52,4.52,0,0,1,15,49.54c-2.3,0-4-2-3.93-4.69A4.24,4.24,0,0,1,15.17,40.77Zm0,1.64A2.41,2.41,0,0,0,12.54,45a2.65,2.65,0,0,0,2.65,2.68A2.8,2.8,0,0,0,18,45.18,2.76,2.76,0,0,0,15.19,42.41Z"/><path class="cls-4" d="M16.37,45.08a1.05,1.05,0,0,1-1.18,1.06c-.71,0-1-.49-.93-1.13s.35-1.08,1-1.06A1.08,1.08,0,0,1,16.37,45.08Z"/><path class="cls-4" d="M42.91,25.47a8.48,8.48,0,0,1-9,8.56c-4.15-.1-7.72-3.93-7.83-8.74a8.26,8.26,0,0,1,8.35-8.35A8.42,8.42,0,0,1,42.91,25.47Zm-2.07-.25C41.3,22,37.63,18.83,34.07,19a6.24,6.24,0,0,0-6.15,6.42,6.4,6.4,0,0,0,6.31,6.35A6.57,6.57,0,0,0,40.84,25.22Z"/><path class="cls-4" d="M34.28,21.16a4.34,4.34,0,0,1,4.39,4.25,4.55,4.55,0,0,1-4.59,4.53c-2.3,0-3.95-2-3.92-4.7A4.24,4.24,0,0,1,34.28,21.16Zm0,1.65a2.41,2.41,0,0,0-2.65,2.59,2.65,2.65,0,0,0,2.65,2.68,2.8,2.8,0,0,0,2.77-2.5A2.75,2.75,0,0,0,34.3,22.81Z"/><path class="cls-4" d="M35.48,25.48a1,1,0,0,1-1.18,1.05c-.7,0-1-.48-.93-1.13s.35-1.08,1-1S35.42,24.83,35.48,25.48Z"/><path class="cls-3" d="M43,45.07a8.48,8.48,0,0,1-9,8.56c-4.15-.1-7.72-3.93-7.83-8.74a8.28,8.28,0,0,1,8.35-8.35A8.42,8.42,0,0,1,43,45.07ZM41,44.82c.46-3.27-3.21-6.39-6.77-6.23A6.24,6.24,0,0,0,28,45a6.39,6.39,0,0,0,6.31,6.35A6.56,6.56,0,0,0,41,44.82Z"/><path class="cls-3" d="M34.4,40.77A4.32,4.32,0,0,1,38.78,45a4.52,4.52,0,0,1-4.58,4.53c-2.31,0-4-2-3.93-4.69A4.24,4.24,0,0,1,34.4,40.77Zm0,1.64A2.42,2.42,0,0,0,31.76,45a2.65,2.65,0,0,0,2.65,2.68,2.79,2.79,0,0,0,2.77-2.5A2.74,2.74,0,0,0,34.41,42.41Z"/><path class="cls-3" d="M35.6,45.08a1.07,1.07,0,0,1-1.19,1.06c-.7,0-1-.49-.92-1.13s.35-1.08,1-1.06A1.08,1.08,0,0,1,35.6,45.08Z"/></g></g></svg>