<svg xmlns="http://www.w3.org/2000/svg" viewBox="0 0 49.9 70.58"><defs><style>.cls-1{fill:#fff;}.cls-2{font-size:10px;fill:#1d1d1b;font-family:SerifGothicStd-ExtraBold, ITC Serif Gothic Std;font-weight:800;}.cls-3{fill:#004f9f;}.cls-4{fill:#14953d;}.cls-5{fill:#cf1619;}</style></defs><title>Asset 6</title><g id="Layer_2" data-name="Layer 2"><g id="Layer_1-2" data-name="Layer 1"><rect class="cls-1" width="49.9" height="70.58" rx="3.03"/><text class="cls-2" transform="translate(3.15 10.34)">5</text><text class="cls-2" transform="translate(41.26 67.14)">5</text><path class="cls-3" d="M23.87,20.3a7.53,7.53,0,0,1-8,7.61c-3.68-.1-6.85-3.5-6.94-7.77a7.33,7.33,0,0,1,7.41-7.4A7.46,7.46,0,0,1,23.87,20.3ZM22,20.09c.42-2.91-2.84-5.68-6-5.54a5.54,5.54,0,0,0-5.46,5.69,5.68,5.68,0,0,0,5.6,5.64A5.82,5.82,0,0,0,22,20.09Z"/><path class="cls-3" d="M16.22,16.49a3.83,3.83,0,0,1,3.89,3.76,4,4,0,0,1-4.07,4c-2,0-3.51-1.76-3.48-4.16A3.75,3.75,0,0,1,16.22,16.49Zm0,1.45a2.15,2.15,0,0,0-2.35,2.3,2.35,2.35,0,0,0,2.35,2.38,2.5,2.5,0,0,0,2.47-2.21A2.46,2.46,0,0,0,16.23,17.94Z"/><path class="cls-3" d="M17.28,20.31a.93.93,0,0,1-1.05.94c-.62,0-.85-.43-.82-1s.31-1,.92-.94A1,1,0,0,1,17.28,20.31Z"/><path class="cls-4" d="M40.94,20.3a7.54,7.54,0,0,1-8,7.61c-3.69-.1-6.86-3.5-6.95-7.77a7.33,7.33,0,0,1,7.41-7.4A7.46,7.46,0,0,1,40.94,20.3Zm-1.84-.21c.41-2.91-2.85-5.68-6-5.54a5.54,5.54,0,0,0-5.47,5.69,5.69,5.69,0,0,0,5.6,5.64A5.82,5.82,0,0,0,39.1,20.09Z"/><path class="cls-4" d="M33.29,16.49a3.84,3.84,0,0,1,3.89,3.76,4,4,0,0,1-4.07,4c-2.05,0-3.51-1.76-3.49-4.16A3.76,3.76,0,0,1,33.29,16.49Zm0,1.45A2.14,2.14,0,0,0,31,20.24a2.34,2.34,0,0,0,2.35,2.38,2.48,2.48,0,0,0,2.46-2.21A2.45,2.45,0,0,0,33.3,17.94Z"/><path class="cls-4" d="M34.35,20.31a.93.93,0,0,1-1.05.94c-.63,0-.85-.43-.82-1s.31-1,.91-.94A1,1,0,0,1,34.35,20.31Z"/><path class="cls-5" d="M32.41,35.4a7.54,7.54,0,0,1-8,7.6c-3.68-.09-6.85-3.49-6.94-7.76a7.34,7.34,0,0,1,7.41-7.41A7.48,7.48,0,0,1,32.41,35.4Zm-1.84-.22c.41-2.9-2.85-5.67-6-5.53a5.54,5.54,0,0,0-5.46,5.69A5.66,5.66,0,0,0,24.7,41,5.82,5.82,0,0,0,30.57,35.18Z"/><path class="cls-5" d="M24.75,31.58a3.83,3.83,0,0,1,3.89,3.77,4,4,0,0,1-4.07,4c-2,0-3.5-1.76-3.48-4.17A3.78,3.78,0,0,1,24.75,31.58Zm0,1.46a2.14,2.14,0,0,0-2.35,2.3,2.35,2.35,0,0,0,2.35,2.38,2.49,2.49,0,0,0,2.46-2.22A2.45,2.45,0,0,0,24.77,33Z"/><path class="cls-5" d="M25.82,35.41a.94.94,0,0,1-1.05.94c-.63,0-.85-.43-.82-1s.31-1,.91-.94S25.76,34.84,25.82,35.41Z"/><path class="cls-4" d="M23.87,50.5a7.53,7.53,0,0,1-8,7.6C12.23,58,9.06,54.6,9,50.34a7.33,7.33,0,0,1,7.41-7.41A7.46,7.46,0,0,1,23.87,50.5ZM22,50.28c.42-2.91-2.84-5.68-6-5.54a5.54,5.54,0,0,0-5.46,5.69,5.68,5.68,0,0,0,5.6,5.64A5.82,5.82,0,0,0,22,50.28Z"/><path class="cls-4" d="M16.22,46.68a3.83,3.83,0,0,1,3.89,3.76,4,4,0,0,1-4.07,4c-2,0-3.51-1.77-3.48-4.17A3.75,3.75,0,0,1,16.22,46.68Zm0,1.45a2.15,2.15,0,0,0-2.35,2.3,2.35,2.35,0,0,0,2.35,2.38A2.5,2.5,0,0,0,18.7,50.6,2.46,2.46,0,0,0,16.23,48.13Z"/><path class="cls-4" d="M17.28,50.5a.93.93,0,0,1-1.05.94c-.62,0-.85-.43-.82-1s.31-1,.92-.94A1,1,0,0,1,17.28,50.5Z"/><path class="cls-3" d="M40.94,50.5a7.54,7.54,0,0,1-8,7.6c-3.69-.1-6.86-3.5-6.95-7.76a7.33,7.33,0,0,1,7.41-7.41A7.47,7.47,0,0,1,40.94,50.5Zm-1.84-.22c.41-2.91-2.85-5.68-6-5.54a5.54,5.54,0,0,0-5.47,5.69,5.69,5.69,0,0,0,5.6,5.64A5.82,5.82,0,0,0,39.1,50.28Z"/><path class="cls-3" d="M33.29,46.68a3.84,3.84,0,0,1,3.89,3.76,4,4,0,0,1-4.07,4c-2.05,0-3.51-1.77-3.49-4.17A3.76,3.76,0,0,1,33.29,46.68Zm0,1.45A2.15,2.15,0,0,0,31,50.43a2.34,2.34,0,0,0,2.35,2.38,2.34,2.34,0,1,0,0-4.68Z"/><path class="cls-3" d="M34.35,50.5a.93.93,0,0,1-1.05.94c-.63,0-.85-.43-.82-1s.31-1,.91-.94A1,1,0,0,1,34.35,50.5Z"/></g></g></svg>