<svg xmlns="http://www.w3.org/2000/svg" viewBox="0 0 49.9 70.58"><defs><style>.cls-1{fill:#fff;}.cls-2{font-size:10px;fill:#1d1d1b;font-family:SerifGothicStd-ExtraBold, ITC Serif Gothic Std;font-weight:800;}.cls-3{fill:#cf1619;}.cls-4{fill:#14953d;}.cls-5{fill:#004f9f;}</style></defs><title>Asset 2</title><g id="Layer_2" data-name="Layer 2"><g id="Layer_1-2" data-name="Layer 1"><rect class="cls-1" width="49.9" height="70.58" rx="3.03"/><text class="cls-2" transform="translate(2.61 10.34)">1</text><text class="cls-2" transform="translate(42.41 67.29)">1</text><path class="cls-3" d="M42.19,35.38c.08,10-7.9,17.83-18.41,17.57C15.26,52.74,7.93,44.88,7.72,35A17,17,0,0,1,24.86,17.88,17.27,17.27,0,0,1,42.19,35.38Zm-4.25-.51c1-6.71-6.59-13.11-13.88-12.8-7.14.31-12.8,5.76-12.63,13.16a13.11,13.11,0,0,0,12.94,13C31.68,48.46,38.31,41.92,37.94,34.87Z"/><path class="cls-4" d="M24.49,26.55a8.86,8.86,0,0,1,9,8.7,9.31,9.31,0,0,1-9.41,9.31c-4.72,0-8.11-4.08-8.06-9.64A8.7,8.7,0,0,1,24.49,26.55Zm0,3.37c-3.3-.09-5.3,1.87-5.43,5.31a5.42,5.42,0,0,0,5.43,5.5c2.87,0,5.67-2.48,5.7-5.12A5.66,5.66,0,0,0,24.52,29.92Z"/><path class="cls-5" d="M27,35.39a2.17,2.17,0,0,1-2.43,2.18c-1.44,0-2-1-1.9-2.32s.72-2.22,2.12-2.17A2.22,2.22,0,0,1,27,35.39Z"/></g></g></svg>