<svg xmlns="http://www.w3.org/2000/svg" viewBox="0 0 49.9 70.58"><defs><style>.cls-1{fill:#fff;}.cls-2{font-size:10px;fill:#1d1d1b;font-family:SerifGothicStd-ExtraBold, ITC Serif Gothic Std;font-weight:800;}.cls-3{fill:#004f9f;}.cls-4{fill:#14953d;}.cls-5{fill:#cf1619;}</style></defs><title>Asset 10</title><g id="Layer_2" data-name="Layer 2"><g id="Layer_1-2" data-name="Layer 1"><rect class="cls-1" width="49.9" height="70.58" rx="3.03"/><text class="cls-2" transform="translate(2.92 10.49)">9</text><text class="cls-2" transform="translate(40.91 67.29)">9</text><path class="cls-3" d="M18.2,50a5.2,5.2,0,0,1-5.5,5.25,5.26,5.26,0,0,1-4.8-5.36A5.07,5.07,0,0,1,13,44.75,5.15,5.15,0,0,1,18.2,50Zm-1.27-.15c.29-2-2-3.93-4.15-3.83A3.82,3.82,0,0,0,9,49.93a3.92,3.92,0,0,0,3.87,3.9A4,4,0,0,0,16.93,49.83Z"/><path class="cls-3" d="M12.91,47.34a2.64,2.64,0,0,1,2.69,2.6,2.77,2.77,0,0,1-2.81,2.78,2.7,2.7,0,0,1,.12-5.38Zm0,1a1.47,1.47,0,0,0-1.62,1.58,1.62,1.62,0,0,0,1.62,1.65,1.71,1.71,0,0,0,1.7-1.53A1.69,1.69,0,0,0,12.92,48.35Z"/><path class="cls-3" d="M13.65,50a.65.65,0,0,1-.73.65c-.43,0-.58-.3-.56-.69s.21-.66.63-.65S13.61,49.59,13.65,50Z"/><path class="cls-4" d="M18.2,20.57a5.2,5.2,0,0,1-5.5,5.26,5.27,5.27,0,0,1-4.8-5.37A5.07,5.07,0,0,1,13,15.34,5.16,5.16,0,0,1,18.2,20.57Zm-1.27-.15c.29-2-2-3.92-4.15-3.82A3.82,3.82,0,0,0,9,20.53a3.93,3.93,0,0,0,3.87,3.9A4,4,0,0,0,16.93,20.42Z"/><path class="cls-4" d="M12.91,17.93a2.66,2.66,0,0,1,2.69,2.61,2.77,2.77,0,0,1-2.81,2.78,2.58,2.58,0,0,1-2.41-2.88A2.6,2.6,0,0,1,12.91,17.93Zm0,1a1.48,1.48,0,0,0-1.62,1.59,1.63,1.63,0,0,0,1.62,1.65,1.72,1.72,0,0,0,1.7-1.54A1.7,1.7,0,0,0,12.92,18.94Z"/><path class="cls-4" d="M13.65,20.58a.65.65,0,0,1-.73.65c-.43,0-.58-.3-.56-.69s.21-.67.63-.65S13.61,20.19,13.65,20.58Z"/><path class="cls-5" d="M18.27,35.2a5.2,5.2,0,0,1-5.5,5.26A5.27,5.27,0,0,1,8,35.09,5.07,5.07,0,0,1,13.09,30,5.16,5.16,0,0,1,18.27,35.2ZM17,35.05c.29-2-2-3.92-4.15-3.83a3.84,3.84,0,0,0-3.77,3.94A3.92,3.92,0,0,0,13,39.06,4,4,0,0,0,17,35.05Z"/><path class="cls-5" d="M13,32.56a2.66,2.66,0,0,1,2.69,2.61A2.78,2.78,0,0,1,12.86,38,2.71,2.71,0,0,1,13,32.56Zm0,1a1.47,1.47,0,0,0-1.62,1.59A1.62,1.62,0,0,0,13,36.81a1.72,1.72,0,0,0,1.7-1.54A1.7,1.7,0,0,0,13,33.57Z"/><path class="cls-5" d="M13.72,35.21a.65.65,0,0,1-.73.65c-.43,0-.59-.3-.57-.69s.22-.67.64-.65S13.68,34.82,13.72,35.21Z"/><path class="cls-3" d="M30.07,50a5.2,5.2,0,0,1-5.5,5.25,5.28,5.28,0,0,1-4.81-5.36,5.07,5.07,0,0,1,5.13-5.12A5.15,5.15,0,0,1,30.07,50Zm-1.27-.15c.29-2-2-3.93-4.15-3.83a3.83,3.83,0,0,0-3.78,3.93,3.92,3.92,0,0,0,3.87,3.9A4,4,0,0,0,28.8,49.83Z"/><path class="cls-3" d="M24.78,47.34a2.64,2.64,0,0,1,2.69,2.6,2.77,2.77,0,0,1-2.81,2.78,2.7,2.7,0,0,1,.12-5.38Zm0,1a1.48,1.48,0,0,0-1.63,1.58,1.63,1.63,0,0,0,1.63,1.65,1.72,1.72,0,0,0,1.7-1.53A1.69,1.69,0,0,0,24.79,48.35Z"/><path class="cls-3" d="M25.52,50a.65.65,0,0,1-.73.65c-.43,0-.59-.3-.57-.69s.22-.66.63-.65A.67.67,0,0,1,25.52,50Z"/><path class="cls-4" d="M30.07,20.57a5.2,5.2,0,0,1-5.5,5.26,5.29,5.29,0,0,1-4.81-5.37,5.08,5.08,0,0,1,5.13-5.12A5.16,5.16,0,0,1,30.07,20.57Zm-1.27-.15c.29-2-2-3.92-4.15-3.82a3.83,3.83,0,0,0-3.78,3.93,3.93,3.93,0,0,0,3.87,3.9A4,4,0,0,0,28.8,20.42Z"/><path class="cls-4" d="M24.78,17.93a2.66,2.66,0,0,1,2.69,2.61,2.78,2.78,0,0,1-2.81,2.78,2.57,2.57,0,0,1-2.41-2.88A2.6,2.6,0,0,1,24.78,17.93Zm0,1a1.49,1.49,0,0,0-1.63,1.59,1.63,1.63,0,0,0,1.63,1.65,1.72,1.72,0,0,0,1.7-1.54A1.7,1.7,0,0,0,24.79,18.94Z"/><path class="cls-4" d="M25.52,20.58a.66.66,0,0,1-.73.65c-.43,0-.59-.3-.57-.69s.22-.67.63-.65A.67.67,0,0,1,25.52,20.58Z"/><path class="cls-5" d="M30.14,35.2a5.21,5.21,0,0,1-5.51,5.26,5.29,5.29,0,0,1-4.8-5.37A5.08,5.08,0,0,1,25,30,5.17,5.17,0,0,1,30.14,35.2Zm-1.27-.15c.28-2-2-3.92-4.15-3.83a3.84,3.84,0,0,0-3.78,3.94,3.93,3.93,0,0,0,3.87,3.9A4,4,0,0,0,28.87,35.05Z"/><path class="cls-5" d="M24.85,32.56a2.66,2.66,0,0,1,2.69,2.61A2.79,2.79,0,0,1,24.73,38a2.58,2.58,0,0,1-2.42-2.88A2.62,2.62,0,0,1,24.85,32.56Zm0,1a1.49,1.49,0,0,0-1.63,1.59,1.63,1.63,0,0,0,1.63,1.65,1.72,1.72,0,0,0,1.7-1.54A1.7,1.7,0,0,0,24.86,33.57Z"/><path class="cls-5" d="M25.58,35.21a.64.64,0,0,1-.72.65c-.43,0-.59-.3-.57-.69s.21-.67.63-.65A.65.65,0,0,1,25.58,35.21Z"/><path class="cls-3" d="M41.94,50a5.21,5.21,0,0,1-5.51,5.25,5.27,5.27,0,0,1-4.8-5.36,5.07,5.07,0,0,1,5.12-5.12A5.16,5.16,0,0,1,41.94,50Zm-1.27-.15c.28-2-2-3.93-4.15-3.83a3.82,3.82,0,0,0-3.78,3.93,3.92,3.92,0,0,0,3.87,3.9A4,4,0,0,0,40.67,49.83Z"/><path class="cls-3" d="M36.65,47.34a2.65,2.65,0,0,1,2.69,2.6,2.78,2.78,0,0,1-2.82,2.78,2.7,2.7,0,0,1,.13-5.38Zm0,1A1.48,1.48,0,0,0,35,49.93a1.63,1.63,0,0,0,1.62,1.65,1.73,1.73,0,0,0,1.71-1.53A1.69,1.69,0,0,0,36.65,48.35Z"/><path class="cls-3" d="M37.38,50a.65.65,0,0,1-.73.65c-.43,0-.58-.3-.56-.69s.21-.66.63-.65S37.34,49.59,37.38,50Z"/><path class="cls-4" d="M41.94,20.57a5.21,5.21,0,0,1-5.51,5.26,5.28,5.28,0,0,1-4.8-5.37,5.07,5.07,0,0,1,5.12-5.12A5.17,5.17,0,0,1,41.94,20.57Zm-1.27-.15c.28-2-2-3.92-4.15-3.82a3.82,3.82,0,0,0-3.78,3.93,3.93,3.93,0,0,0,3.87,3.9A4,4,0,0,0,40.67,20.42Z"/><path class="cls-4" d="M36.65,17.93a2.67,2.67,0,0,1,2.69,2.61,2.79,2.79,0,0,1-2.82,2.78,2.58,2.58,0,0,1-2.41-2.88A2.61,2.61,0,0,1,36.65,17.93Zm0,1A1.48,1.48,0,0,0,35,20.53a1.63,1.63,0,0,0,1.62,1.65,1.73,1.73,0,0,0,1.71-1.54A1.7,1.7,0,0,0,36.65,18.94Z"/><path class="cls-4" d="M37.38,20.58a.65.65,0,0,1-.73.65c-.43,0-.58-.3-.56-.69s.21-.67.63-.65S37.34,20.19,37.38,20.58Z"/><path class="cls-5" d="M42,35.2a5.21,5.21,0,0,1-5.51,5.26,5.27,5.27,0,0,1-4.8-5.37A5.07,5.07,0,0,1,36.82,30,5.17,5.17,0,0,1,42,35.2Zm-1.27-.15c.28-2-2-3.92-4.16-3.83a3.84,3.84,0,0,0-3.77,3.94,3.93,3.93,0,0,0,3.87,3.9A4,4,0,0,0,40.74,35.05Z"/><path class="cls-5" d="M36.71,32.56a2.66,2.66,0,0,1,2.69,2.61A2.77,2.77,0,0,1,36.59,38a2.58,2.58,0,0,1-2.41-2.88A2.61,2.61,0,0,1,36.71,32.56Zm0,1a1.48,1.48,0,0,0-1.62,1.59,1.63,1.63,0,0,0,1.62,1.65,1.73,1.73,0,0,0,1.71-1.54A1.7,1.7,0,0,0,36.72,33.57Z"/><path class="cls-5" d="M37.45,35.21a.65.65,0,0,1-.73.65c-.43,0-.58-.3-.56-.69s.21-.67.63-.65S37.41,34.82,37.45,35.21Z"/></g></g></svg>