<svg xmlns="http://www.w3.org/2000/svg" viewBox="0 0 49.9 70.58"><defs><style>.cls-1{fill:#fff;}.cls-2{font-size:10px;fill:#1d1d1b;font-family:SerifGothicStd-ExtraBold, ITC Serif Gothic Std;font-weight:800;}.cls-3{fill:#004f9f;}</style></defs><title>Asset 9</title><g id="Layer_2" data-name="Layer 2"><g id="Layer_1-2" data-name="Layer 1"><rect class="cls-1" width="49.9" height="70.58" rx="3.03"/><text class="cls-2" transform="translate(2.92 10.49)">8</text><text class="cls-2" transform="translate(40.91 67.17)">8</text><path class="cls-3" d="M24.05,42.43a6,6,0,0,1-6.35,6.06c-2.94-.07-5.47-2.78-5.54-6.19a5.85,5.85,0,0,1,5.91-5.91A6,6,0,0,1,24.05,42.43Zm-1.47-.17c.33-2.32-2.27-4.53-4.79-4.42a4.4,4.4,0,0,0-4.35,4.54,4.52,4.52,0,0,0,4.46,4.5A4.64,4.64,0,0,0,22.58,42.26Z"/><path class="cls-3" d="M17.94,39.38a3.07,3.07,0,0,1,3.11,3A3.22,3.22,0,0,1,17.8,45.6c-1.63,0-2.8-1.41-2.78-3.33A3,3,0,0,1,17.94,39.38Zm0,1.17a1.7,1.7,0,0,0-1.87,1.83A1.87,1.87,0,0,0,18,44.28a2,2,0,0,0,2-1.77A2,2,0,0,0,18,40.55Z"/><path class="cls-3" d="M18.79,42.44a.73.73,0,0,1-.84.74c-.49,0-.67-.34-.65-.79s.25-.77.73-.75S18.75,42,18.79,42.44Z"/><path class="cls-3" d="M24.13,56.31a6,6,0,0,1-6.35,6.07c-2.94-.07-5.47-2.79-5.55-6.19a5.85,5.85,0,0,1,5.92-5.91A6,6,0,0,1,24.13,56.31Zm-1.47-.17c.33-2.32-2.27-4.53-4.79-4.42a4.43,4.43,0,0,0-4.36,4.54A4.53,4.53,0,0,0,18,60.76,4.64,4.64,0,0,0,22.66,56.14Z"/><path class="cls-3" d="M18,53.27a3.05,3.05,0,0,1,3.11,3,3.21,3.21,0,0,1-3.25,3.21c-1.63,0-2.8-1.4-2.78-3.32A3,3,0,0,1,18,53.27Zm0,1.16a1.7,1.7,0,0,0-1.87,1.83A1.86,1.86,0,0,0,18,58.16a2,2,0,0,0,2-1.76A2,2,0,0,0,18,54.43Z"/><path class="cls-3" d="M18.87,56.32a.74.74,0,0,1-.84.75c-.49,0-.67-.34-.65-.8s.25-.76.73-.75A.77.77,0,0,1,18.87,56.32Z"/><path class="cls-3" d="M37.67,42.43a6,6,0,0,1-6.35,6.06c-2.94-.07-5.47-2.78-5.55-6.19a5.86,5.86,0,0,1,5.92-5.91A6,6,0,0,1,37.67,42.43Zm-1.47-.17c.33-2.32-2.27-4.53-4.79-4.42a4.42,4.42,0,0,0-4.36,4.54,4.54,4.54,0,0,0,4.47,4.5A4.65,4.65,0,0,0,36.2,42.26Z"/><path class="cls-3" d="M31.56,39.38a3.07,3.07,0,0,1,3.11,3,3.22,3.22,0,0,1-3.25,3.21c-1.63,0-2.8-1.41-2.78-3.33A3,3,0,0,1,31.56,39.38Zm0,1.17a1.7,1.7,0,0,0-1.87,1.83,1.87,1.87,0,0,0,1.87,1.9,2,2,0,0,0,2-1.77A2,2,0,0,0,31.57,40.55Z"/><path class="cls-3" d="M32.41,42.44a.73.73,0,0,1-.84.74c-.5,0-.68-.34-.65-.79s.24-.77.73-.75S32.37,42,32.41,42.44Z"/><path class="cls-3" d="M37.75,56.31a6,6,0,0,1-6.35,6.07c-2.94-.07-5.47-2.79-5.55-6.19a5.85,5.85,0,0,1,5.92-5.91A6,6,0,0,1,37.75,56.31Zm-1.47-.17c.33-2.32-2.27-4.53-4.79-4.42a4.43,4.43,0,0,0-4.36,4.54,4.53,4.53,0,0,0,4.47,4.5A4.64,4.64,0,0,0,36.28,56.14Z"/><path class="cls-3" d="M31.64,53.27a3.05,3.05,0,0,1,3.11,3,3.21,3.21,0,0,1-3.25,3.21c-1.63,0-2.8-1.4-2.78-3.32A3,3,0,0,1,31.64,53.27Zm0,1.16a1.7,1.7,0,0,0-1.87,1.83,1.86,1.86,0,0,0,1.87,1.9,2,2,0,0,0,2-1.76A2,2,0,0,0,31.65,54.43Z"/><path class="cls-3" d="M32.49,56.32a.74.74,0,0,1-.84.75c-.5,0-.68-.34-.65-.8s.24-.76.73-.75A.77.77,0,0,1,32.49,56.32Z"/><path class="cls-3" d="M24.05,14.49a6,6,0,0,1-6.35,6.07c-2.94-.07-5.47-2.79-5.54-6.19a5.84,5.84,0,0,1,5.91-5.91A6,6,0,0,1,24.05,14.49Zm-1.47-.17c.33-2.32-2.27-4.53-4.79-4.42a4.41,4.41,0,0,0-4.35,4.54,4.51,4.51,0,0,0,4.46,4.5A4.64,4.64,0,0,0,22.58,14.32Z"/><path class="cls-3" d="M17.94,11.45a3.05,3.05,0,0,1,3.11,3,3.21,3.21,0,0,1-3.25,3.21c-1.63,0-2.8-1.4-2.78-3.32A3,3,0,0,1,17.94,11.45Zm0,1.16a1.7,1.7,0,0,0-1.87,1.83A1.87,1.87,0,0,0,18,16.34a2,2,0,0,0,2-1.76A2,2,0,0,0,18,12.61Z"/><path class="cls-3" d="M18.79,14.5a.74.74,0,0,1-.84.75c-.49,0-.67-.34-.65-.8s.25-.77.73-.75A.77.77,0,0,1,18.79,14.5Z"/><path class="cls-3" d="M24.13,28.38a6,6,0,0,1-6.35,6.06c-2.94-.07-5.47-2.78-5.55-6.19a5.86,5.86,0,0,1,5.92-5.91A6,6,0,0,1,24.13,28.38Zm-1.47-.18c.33-2.31-2.27-4.52-4.79-4.41a4.42,4.42,0,0,0-4.36,4.54A4.54,4.54,0,0,0,18,32.83,4.64,4.64,0,0,0,22.66,28.2Z"/><path class="cls-3" d="M18,25.33a3.07,3.07,0,0,1,3.11,3,3.22,3.22,0,0,1-3.25,3.22c-1.63,0-2.8-1.41-2.78-3.33A3,3,0,0,1,18,25.33Zm0,1.16a1.71,1.71,0,0,0-1.87,1.84A1.87,1.87,0,0,0,18,30.23a2,2,0,0,0,2-1.77A2,2,0,0,0,18,26.49Z"/><path class="cls-3" d="M18.87,28.38a.74.74,0,0,1-.84.75c-.49,0-.67-.34-.65-.8s.25-.76.73-.74A.75.75,0,0,1,18.87,28.38Z"/><path class="cls-3" d="M37.67,14.49a6,6,0,0,1-6.35,6.07c-2.94-.07-5.47-2.79-5.55-6.19a5.85,5.85,0,0,1,5.92-5.91A6,6,0,0,1,37.67,14.49Zm-1.47-.17c.33-2.32-2.27-4.53-4.79-4.42a4.43,4.43,0,0,0-4.36,4.54,4.53,4.53,0,0,0,4.47,4.5A4.64,4.64,0,0,0,36.2,14.32Z"/><path class="cls-3" d="M31.56,11.45a3.05,3.05,0,0,1,3.11,3,3.21,3.21,0,0,1-3.25,3.21c-1.63,0-2.8-1.4-2.78-3.32A3,3,0,0,1,31.56,11.45Zm0,1.16a1.7,1.7,0,0,0-1.87,1.83,1.86,1.86,0,0,0,1.87,1.9,2,2,0,0,0,2-1.76A2,2,0,0,0,31.57,12.61Z"/><path class="cls-3" d="M32.41,14.5a.74.74,0,0,1-.84.75c-.5,0-.68-.34-.65-.8s.24-.77.73-.75A.77.77,0,0,1,32.41,14.5Z"/><path class="cls-3" d="M37.75,28.38a6,6,0,0,1-6.35,6.06c-2.94-.07-5.47-2.78-5.55-6.19a5.86,5.86,0,0,1,5.92-5.91A6,6,0,0,1,37.75,28.38Zm-1.47-.18c.33-2.31-2.27-4.52-4.79-4.41a4.42,4.42,0,0,0-4.36,4.54,4.54,4.54,0,0,0,4.47,4.5A4.65,4.65,0,0,0,36.28,28.2Z"/><path class="cls-3" d="M31.64,25.33a3.07,3.07,0,0,1,3.11,3,3.22,3.22,0,0,1-3.25,3.22c-1.63,0-2.8-1.41-2.78-3.33A3,3,0,0,1,31.64,25.33Zm0,1.16a1.71,1.71,0,0,0-1.87,1.84,1.87,1.87,0,0,0,1.87,1.9,2,2,0,0,0,2-1.77A2,2,0,0,0,31.65,26.49Z"/><path class="cls-3" d="M32.49,28.38a.74.74,0,0,1-.84.75c-.5,0-.68-.34-.65-.8s.24-.76.73-.74A.75.75,0,0,1,32.49,28.38Z"/></g></g></svg>