<svg xmlns="http://www.w3.org/2000/svg" viewBox="0 0 49.9 70.58"><defs><style>.cls-1{fill:#fff;}.cls-2{font-size:10px;fill:#1d1d1b;font-family:SerifGothicStd-ExtraBold, ITC Serif Gothic Std;font-weight:800;}.cls-3{fill:#cf1619;}.cls-4{fill:#004f9f;}.cls-5{fill:#14953d;}</style></defs><title>Asset 4</title><g id="Layer_2" data-name="Layer 2"><g id="Layer_1-2" data-name="Layer 1"><rect class="cls-1" width="49.9" height="70.58" rx="3.03"/><text class="cls-2" transform="translate(3.15 10.47)">3</text><text class="cls-2" transform="translate(41 67.14)">3</text><path class="cls-3" d="M31.88,31.48a8.08,8.08,0,0,1-3.43,11.3c-3.49,1.86-8.24.35-10.58-3.59a7.87,7.87,0,0,1,3-10.83A8,8,0,0,1,31.88,31.48Zm-1.83.77c-1.15-2.93-5.65-3.8-8.53-2a5.94,5.94,0,0,0-2.1,8.2,6.09,6.09,0,0,0,8.2,2.31A6.24,6.24,0,0,0,30.05,32.25Z"/><path class="cls-3" d="M22.72,32a4.12,4.12,0,0,1,5.62,1.46,4.33,4.33,0,0,1-1.68,5.91c-1.92,1.07-4.21.2-5.46-2.06A4,4,0,0,1,22.72,32Zm.78,1.36a2.29,2.29,0,0,0-1,3.38,2.53,2.53,0,0,0,3.45,1,2.68,2.68,0,0,0,1.14-3.37A2.62,2.62,0,0,0,23.5,33.31Z"/><path class="cls-3" d="M25.73,35a1,1,0,0,1-.49,1.44c-.59.31-1,0-1.29-.51a.91.91,0,0,1,.35-1.36A1,1,0,0,1,25.73,35Z"/><path class="cls-4" d="M22.66,15.15a8.07,8.07,0,0,1-3.43,11.3C15.74,28.3,11,26.8,8.65,22.86a7.88,7.88,0,0,1,3-10.83A8,8,0,0,1,22.66,15.15Zm-1.83.76c-1.15-2.93-5.65-3.79-8.53-2a6,6,0,0,0-2.1,8.2,6.09,6.09,0,0,0,8.2,2.31A6.25,6.25,0,0,0,20.83,15.91Z"/><path class="cls-4" d="M13.5,15.62a4.11,4.11,0,0,1,5.62,1.46A4.33,4.33,0,0,1,17.44,23c-1.92,1.06-4.21.2-5.46-2.06A4,4,0,0,1,13.5,15.62ZM14.28,17a2.29,2.29,0,0,0-1,3.39,2.51,2.51,0,0,0,3.45,1A2.68,2.68,0,0,0,17.88,18,2.63,2.63,0,0,0,14.28,17Z"/><path class="cls-4" d="M16.51,18.63A1,1,0,0,1,16,20.06c-.59.31-1,.05-1.29-.5a.9.9,0,0,1,.36-1.36A1,1,0,0,1,16.51,18.63Z"/><path class="cls-5" d="M41.19,47.76a8.07,8.07,0,0,1-3.43,11.3c-3.49,1.86-8.24.35-10.58-3.59a7.86,7.86,0,0,1,3-10.82A8,8,0,0,1,41.19,47.76Zm-1.83.77c-1.15-2.93-5.65-3.8-8.53-2a6,6,0,0,0-2.1,8.2A6.09,6.09,0,0,0,36.93,57,6.24,6.24,0,0,0,39.36,48.53Z"/><path class="cls-5" d="M32,48.23a4.11,4.11,0,0,1,5.62,1.47A4.32,4.32,0,0,1,36,55.6c-1.92,1.07-4.21.2-5.46-2.06A4,4,0,0,1,32,48.23Zm.78,1.36a2.28,2.28,0,0,0-1,3.38,2.52,2.52,0,0,0,3.45,1,2.68,2.68,0,0,0,1.13-3.37A2.62,2.62,0,0,0,32.81,49.59Z"/><path class="cls-5" d="M35,51.24a1,1,0,0,1-.49,1.44c-.59.31-1,0-1.29-.51a.9.9,0,0,1,.36-1.36A1,1,0,0,1,35,51.24Z"/></g></g></svg>