<svg xmlns="http://www.w3.org/2000/svg" viewBox="0 0 49.9 70.58"><defs><style>.cls-1{fill:#fff;}.cls-2{font-size:10px;fill:#1d1d1b;font-family:SerifGothicStd-ExtraBold, ITC Serif Gothic Std;font-weight:800;}.cls-3{fill:#14953d;}.cls-4{fill:#004f9f;}</style></defs><title>Asset 3</title><g id="Layer_2" data-name="Layer 2"><g id="Layer_1-2" data-name="Layer 1"><rect class="cls-1" width="49.9" height="70.58" rx="3.03"/><text class="cls-2" transform="translate(3.26 10.6)">2</text><text class="cls-2" transform="translate(41.13 67.29)">2</text><path class="cls-3" d="M35.86,21.83A11.1,11.1,0,0,1,24.13,33C18.7,32.89,14,27.88,13.9,21.59A10.81,10.81,0,0,1,24.82,10.68,11,11,0,0,1,35.86,21.83Zm-2.71-.32c.61-4.28-4.19-8.36-8.84-8.16a8.16,8.16,0,0,0-8,8.38A8.37,8.37,0,0,0,24.51,30C29.17,30.16,33.39,26,33.15,21.51Z"/><path class="cls-3" d="M24.58,16.2a5.65,5.65,0,0,1,5.74,5.55,5.93,5.93,0,0,1-6,5.93c-3,0-5.17-2.6-5.13-6.15A5.54,5.54,0,0,1,24.58,16.2Zm0,2.15a3.15,3.15,0,0,0-3.46,3.38,3.46,3.46,0,0,0,3.46,3.51A3.66,3.66,0,0,0,28.23,22,3.6,3.6,0,0,0,24.6,18.35Z"/><path class="cls-3" d="M26.15,21.84a1.37,1.37,0,0,1-1.55,1.38c-.92,0-1.25-.63-1.2-1.47s.45-1.42,1.34-1.39S26.07,21,26.15,21.84Z"/><path class="cls-4" d="M36,49a11.11,11.11,0,0,1-11.73,11.2C18.85,60,14.18,55,14,48.72A10.81,10.81,0,0,1,25,37.81,11,11,0,0,1,36,49Zm-2.71-.32c.61-4.28-4.19-8.36-8.85-8.16a8.15,8.15,0,0,0-8,8.38,8.35,8.35,0,0,0,8.24,8.31C29.31,57.29,33.54,53.12,33.3,48.64Z"/><path class="cls-4" d="M24.73,43.33a5.66,5.66,0,0,1,5.74,5.55,5.94,5.94,0,0,1-6,5.93c-3,0-5.17-2.6-5.14-6.15A5.56,5.56,0,0,1,24.73,43.33Zm0,2.15a3.15,3.15,0,0,0-3.46,3.38,3.45,3.45,0,0,0,3.46,3.51,3.67,3.67,0,0,0,3.63-3.26A3.61,3.61,0,0,0,24.75,45.48Z"/><path class="cls-4" d="M26.3,49a1.38,1.38,0,0,1-1.55,1.38c-.92,0-1.25-.63-1.21-1.47s.46-1.42,1.35-1.39A1.42,1.42,0,0,1,26.3,49Z"/></g></g></svg>