<svg xmlns="http://www.w3.org/2000/svg" viewBox="0 0 49.9 70.58"><defs><style>.cls-1{fill:#fff;}.cls-2{font-size:10px;fill:#1d1d1b;font-family:SerifGothicStd-ExtraBold, ITC Serif Gothic Std;font-weight:800;}.cls-3{fill:#cf1619;}.cls-4{fill:#14953d;}</style></defs><title>Asset 8</title><g id="Layer_2" data-name="Layer 2"><g id="Layer_1-2" data-name="Layer 1"><rect class="cls-1" width="49.9" height="70.58" rx="3.03"/><text class="cls-2" transform="translate(2.72 10.34)">7</text><text class="cls-2" transform="translate(40.91 67.29)">7</text><path class="cls-3" d="M24.13,42.16a6,6,0,0,1-6.35,6.06c-2.94-.07-5.47-2.78-5.55-6.19a5.85,5.85,0,0,1,5.92-5.91A6,6,0,0,1,24.13,42.16ZM22.66,42c.33-2.32-2.27-4.52-4.79-4.42a4.43,4.43,0,0,0-4.36,4.55A4.52,4.52,0,0,0,18,46.6,4.64,4.64,0,0,0,22.66,42Z"/><path class="cls-3" d="M18,39.11a3.07,3.07,0,0,1,3.11,3,3.21,3.21,0,0,1-3.25,3.21c-1.63,0-2.8-1.4-2.78-3.32A3,3,0,0,1,18,39.11Zm0,1.16a1.71,1.71,0,0,0-1.87,1.84A1.87,1.87,0,0,0,18,44a2,2,0,0,0,2-1.77A2,2,0,0,0,18,40.27Z"/><path class="cls-3" d="M18.87,42.16a.74.74,0,0,1-.84.75c-.5,0-.68-.34-.65-.8s.25-.76.73-.75A.77.77,0,0,1,18.87,42.16Z"/><path class="cls-3" d="M24.21,56a6,6,0,0,1-6.35,6.07c-2.94-.08-5.47-2.79-5.55-6.2A5.86,5.86,0,0,1,18.23,50,6,6,0,0,1,24.21,56Zm-1.47-.17c.33-2.32-2.27-4.53-4.79-4.42A4.43,4.43,0,0,0,13.59,56a4.53,4.53,0,0,0,4.47,4.5A4.64,4.64,0,0,0,22.74,55.87Z"/><path class="cls-3" d="M18.1,53a3.07,3.07,0,0,1,3.11,3A3.21,3.21,0,0,1,18,59.21c-1.63,0-2.8-1.41-2.78-3.33A3,3,0,0,1,18.1,53Zm0,1.17A1.7,1.7,0,0,0,16.24,56a1.87,1.87,0,0,0,1.87,1.9,2,2,0,0,0,2-1.77A2,2,0,0,0,18.11,54.16Z"/><path class="cls-3" d="M19,56.05a.75.75,0,0,1-.84.75c-.5,0-.68-.35-.65-.8s.24-.77.73-.75A.76.76,0,0,1,19,56.05Z"/><path class="cls-3" d="M37.75,42.16a6,6,0,0,1-6.36,6.06c-2.94-.07-5.46-2.78-5.54-6.19a5.85,5.85,0,0,1,5.92-5.91A6,6,0,0,1,37.75,42.16ZM36.28,42c.33-2.32-2.27-4.52-4.79-4.42a4.43,4.43,0,0,0-4.36,4.55A4.52,4.52,0,0,0,31.6,46.6,4.64,4.64,0,0,0,36.28,42Z"/><path class="cls-3" d="M31.64,39.11a3.06,3.06,0,0,1,3.1,3,3.19,3.19,0,0,1-3.24,3.21c-1.63,0-2.8-1.4-2.78-3.32A3,3,0,0,1,31.64,39.11Zm0,1.16a1.71,1.71,0,0,0-1.87,1.84A1.87,1.87,0,0,0,31.65,44a2,2,0,0,0,2-1.77A2,2,0,0,0,31.65,40.27Z"/><path class="cls-3" d="M32.49,42.16a.75.75,0,0,1-.84.75c-.5,0-.68-.34-.65-.8s.24-.76.72-.75A.77.77,0,0,1,32.49,42.16Z"/><path class="cls-4" d="M41.47,29.48a6,6,0,0,1-6.35,6.06c-2.94-.07-5.47-2.78-5.54-6.19a5.84,5.84,0,0,1,5.91-5.91A6,6,0,0,1,41.47,29.48ZM40,29.3c.33-2.32-2.27-4.52-4.79-4.42a4.42,4.42,0,0,0-4.35,4.55,4.51,4.51,0,0,0,4.46,4.49A4.64,4.64,0,0,0,40,29.3Z"/><path class="cls-4" d="M35.36,26.43a3.06,3.06,0,0,1,3.11,3,3.21,3.21,0,0,1-3.25,3.21c-1.63,0-2.8-1.4-2.78-3.32A3,3,0,0,1,35.36,26.43Zm0,1.16a1.71,1.71,0,0,0-1.87,1.84,1.88,1.88,0,0,0,1.88,1.9,2,2,0,0,0,2-1.77A2,2,0,0,0,35.37,27.59Z"/><path class="cls-4" d="M36.21,29.48a.74.74,0,0,1-.84.75c-.49,0-.67-.34-.65-.8s.25-.76.73-.75A.76.76,0,0,1,36.21,29.48Z"/><path class="cls-4" d="M30.85,22.83a6,6,0,0,1-6.36,6.06C21.55,28.82,19,26.11,19,22.7a5.86,5.86,0,0,1,5.92-5.91A6,6,0,0,1,30.85,22.83Zm-1.47-.17c.33-2.32-2.27-4.53-4.79-4.42a4.41,4.41,0,0,0-4.36,4.54,4.54,4.54,0,0,0,4.47,4.5A4.65,4.65,0,0,0,29.38,22.66Z"/><path class="cls-4" d="M24.74,19.78a3.07,3.07,0,0,1,3.11,3A3.22,3.22,0,0,1,24.6,26c-1.63,0-2.8-1.41-2.78-3.33A3,3,0,0,1,24.74,19.78Zm0,1.17a1.7,1.7,0,0,0-1.87,1.83,1.87,1.87,0,0,0,1.87,1.9,2,2,0,0,0,2-1.77A2,2,0,0,0,24.75,21Z"/><path class="cls-4" d="M25.59,22.84a.74.74,0,0,1-.84.74c-.5,0-.68-.34-.65-.79s.24-.77.72-.75A.76.76,0,0,1,25.59,22.84Z"/><path class="cls-4" d="M19.69,16.73a6,6,0,0,1-6.35,6.06C10.4,22.72,7.87,20,7.79,16.6a5.86,5.86,0,0,1,5.92-5.91A6,6,0,0,1,19.69,16.73Zm-1.47-.18c.33-2.31-2.27-4.52-4.79-4.41a4.42,4.42,0,0,0-4.36,4.54,4.54,4.54,0,0,0,4.47,4.5A4.64,4.64,0,0,0,18.22,16.55Z"/><path class="cls-4" d="M13.58,13.68a3.07,3.07,0,0,1,3.11,3,3.22,3.22,0,0,1-3.25,3.22c-1.63,0-2.8-1.41-2.78-3.33A3,3,0,0,1,13.58,13.68Zm0,1.16a1.71,1.71,0,0,0-1.87,1.84,1.87,1.87,0,0,0,1.87,1.9,2,2,0,0,0,2-1.77A2,2,0,0,0,13.59,14.84Z"/><path class="cls-4" d="M14.43,16.74a.73.73,0,0,1-.84.74c-.49,0-.67-.34-.65-.8s.25-.76.73-.74S14.39,16.28,14.43,16.74Z"/><path class="cls-3" d="M37.83,56a6,6,0,0,1-6.36,6.07c-2.94-.08-5.47-2.79-5.54-6.2A5.86,5.86,0,0,1,31.85,50,6,6,0,0,1,37.83,56Zm-1.47-.17c.33-2.32-2.27-4.53-4.79-4.42A4.42,4.42,0,0,0,27.21,56a4.53,4.53,0,0,0,4.47,4.5A4.64,4.64,0,0,0,36.36,55.87Z"/><path class="cls-3" d="M31.72,53a3.06,3.06,0,0,1,3.1,3,3.2,3.2,0,0,1-3.24,3.21c-1.63,0-2.8-1.41-2.78-3.33A3,3,0,0,1,31.72,53Zm0,1.17A1.71,1.71,0,0,0,29.85,56a1.88,1.88,0,0,0,1.88,1.9,2,2,0,0,0,2-1.77A1.94,1.94,0,0,0,31.73,54.16Z"/><path class="cls-3" d="M32.57,56.05a.75.75,0,0,1-.84.75c-.5,0-.68-.35-.66-.8s.25-.77.73-.75A.76.76,0,0,1,32.57,56.05Z"/></g></g></svg>