<svg xmlns="http://www.w3.org/2000/svg" viewBox="0 0 49.9 70.58"><defs><style>.cls-1{fill:#fff;}.cls-2{font-size:10px;fill:#1d1d1b;font-family:SerifGothicStd-ExtraBold, ITC Serif Gothic Std;font-weight:800;}.cls-3{fill:#14953d;}.cls-4{fill:#cf1619;}</style></defs><title>Asset 7</title><g id="Layer_2" data-name="Layer 2"><g id="Layer_1-2" data-name="Layer 1"><rect class="cls-1" width="49.9" height="70.58" rx="3.03"/><text class="cls-2" transform="translate(2.93 10.34)">6</text><text class="cls-2" transform="translate(40.91 67.14)">6</text><path class="cls-3" d="M24,19.76a6.65,6.65,0,0,1-7,6.7c-3.25-.08-6.05-3.08-6.13-6.85a6.47,6.47,0,0,1,6.54-6.53A6.6,6.6,0,0,1,24,19.76Zm-1.63-.2c.37-2.56-2.51-5-5.29-4.88a4.89,4.89,0,0,0-4.82,5,5,5,0,0,0,4.94,5A5.12,5.12,0,0,0,22.36,19.56Z"/><path class="cls-3" d="M17.23,16.39a3.38,3.38,0,0,1,3.44,3.32,3.55,3.55,0,0,1-3.59,3.55c-1.81,0-3.1-1.56-3.08-3.68A3.32,3.32,0,0,1,17.23,16.39Zm0,1.28a1.89,1.89,0,0,0-2.07,2,2.07,2.07,0,0,0,2.07,2.1,2.2,2.2,0,0,0,2.18-1.95A2.17,2.17,0,0,0,17.24,17.67Z"/><path class="cls-3" d="M18.17,19.76a.82.82,0,0,1-.93.83c-.55,0-.74-.38-.72-.88s.27-.85.81-.83A.84.84,0,0,1,18.17,19.76Z"/><path class="cls-3" d="M39,19.76a6.64,6.64,0,0,1-7,6.7c-3.25-.08-6.05-3.08-6.13-6.85a6.46,6.46,0,0,1,6.54-6.53A6.58,6.58,0,0,1,39,19.76Zm-1.62-.2c.37-2.56-2.51-5-5.3-4.88a4.88,4.88,0,0,0-4.81,5,5,5,0,0,0,4.93,5A5.13,5.13,0,0,0,37.42,19.56Z"/><path class="cls-3" d="M32.29,16.39a3.38,3.38,0,0,1,3.43,3.32,3.55,3.55,0,0,1-3.59,3.55c-1.8,0-3.09-1.56-3.07-3.68A3.31,3.31,0,0,1,32.29,16.39Zm0,1.28a1.89,1.89,0,0,0-2.07,2,2.07,2.07,0,0,0,2.07,2.1,2.2,2.2,0,0,0,2.18-1.95A2.17,2.17,0,0,0,32.3,17.67Z"/><path class="cls-3" d="M33.23,19.76a.82.82,0,0,1-.93.83c-.55,0-.75-.38-.72-.88s.27-.85.8-.83A.85.85,0,0,1,33.23,19.76Z"/><path class="cls-4" d="M24,35.23a6.64,6.64,0,0,1-7,6.7c-3.25-.08-6.05-3.08-6.13-6.84a6.47,6.47,0,0,1,6.54-6.54A6.6,6.6,0,0,1,24,35.23ZM22.36,35c.37-2.57-2.51-5-5.29-4.89a4.89,4.89,0,0,0-4.82,5,5,5,0,0,0,4.94,5A5.13,5.13,0,0,0,22.36,35Z"/><path class="cls-4" d="M17.23,31.86a3.38,3.38,0,0,1,3.44,3.32,3.55,3.55,0,0,1-3.59,3.55c-1.81,0-3.1-1.55-3.08-3.68A3.32,3.32,0,0,1,17.23,31.86Zm0,1.29a1.88,1.88,0,0,0-2.07,2,2.07,2.07,0,0,0,2.07,2.1,2.19,2.19,0,0,0,2.18-2A2.16,2.16,0,0,0,17.24,33.15Z"/><path class="cls-4" d="M18.17,35.24a.82.82,0,0,1-.93.82c-.55,0-.74-.38-.72-.88s.27-.85.81-.83A.84.84,0,0,1,18.17,35.24Z"/><path class="cls-4" d="M39,35.23a6.63,6.63,0,0,1-7,6.7c-3.25-.08-6.05-3.08-6.13-6.84a6.47,6.47,0,0,1,6.54-6.54A6.58,6.58,0,0,1,39,35.23ZM37.42,35c.37-2.57-2.51-5-5.3-4.89a4.88,4.88,0,0,0-4.81,5,5,5,0,0,0,4.93,5A5.14,5.14,0,0,0,37.42,35Z"/><path class="cls-4" d="M32.29,31.86a3.38,3.38,0,0,1,3.43,3.32,3.55,3.55,0,0,1-3.59,3.55c-1.8,0-3.09-1.55-3.07-3.68A3.31,3.31,0,0,1,32.29,31.86Zm0,1.29a1.88,1.88,0,0,0-2.07,2,2.07,2.07,0,0,0,2.07,2.1,2.19,2.19,0,0,0,2.18-2A2.16,2.16,0,0,0,32.3,33.15Z"/><path class="cls-4" d="M33.23,35.24a.82.82,0,0,1-.93.82c-.55,0-.75-.38-.72-.88s.27-.85.8-.83A.85.85,0,0,1,33.23,35.24Z"/><path class="cls-4" d="M24,50.7a6.65,6.65,0,0,1-7,6.71c-3.25-.08-6.05-3.08-6.13-6.85A6.48,6.48,0,0,1,17.37,44,6.6,6.6,0,0,1,24,50.7Zm-1.63-.19c.37-2.56-2.51-5-5.29-4.89a4.9,4.9,0,0,0-4.82,5,5,5,0,0,0,4.94,5A5.13,5.13,0,0,0,22.36,50.51Z"/><path class="cls-4" d="M17.23,47.33a3.39,3.39,0,0,1,3.44,3.32,3.55,3.55,0,0,1-3.59,3.55c-1.81,0-3.1-1.55-3.08-3.67A3.33,3.33,0,0,1,17.23,47.33Zm0,1.29a1.89,1.89,0,0,0-2.07,2,2.07,2.07,0,0,0,2.07,2.1,2.2,2.2,0,0,0,2.18-2A2.16,2.16,0,0,0,17.24,48.62Z"/><path class="cls-4" d="M18.17,50.71a.83.83,0,0,1-.93.83c-.55,0-.74-.38-.72-.89s.27-.84.81-.83A.84.84,0,0,1,18.17,50.71Z"/><path class="cls-4" d="M39,50.7a6.64,6.64,0,0,1-7,6.71c-3.25-.08-6.05-3.08-6.13-6.85A6.47,6.47,0,0,1,32.43,44,6.59,6.59,0,0,1,39,50.7Zm-1.62-.19c.37-2.56-2.51-5-5.3-4.89a4.88,4.88,0,0,0-4.81,5,5,5,0,0,0,4.93,5A5.13,5.13,0,0,0,37.42,50.51Z"/><path class="cls-4" d="M32.29,47.33a3.38,3.38,0,0,1,3.43,3.32,3.55,3.55,0,0,1-3.59,3.55c-1.8,0-3.09-1.55-3.07-3.67A3.32,3.32,0,0,1,32.29,47.33Zm0,1.29a1.89,1.89,0,0,0-2.07,2,2.07,2.07,0,0,0,2.07,2.1,2.2,2.2,0,0,0,2.18-2A2.16,2.16,0,0,0,32.3,48.62Z"/><path class="cls-4" d="M33.23,50.71a.83.83,0,0,1-.93.83c-.55,0-.75-.38-.72-.89s.27-.84.8-.83A.86.86,0,0,1,33.23,50.71Z"/></g></g></svg>