<svg xmlns="http://www.w3.org/2000/svg" viewBox="0 0 49.9 70.58"><defs><style>.cls-1{fill:#fff;}</style></defs><title>Asset 37</title><g id="Layer_2" data-name="Layer 2"><g id="Layer_1-2" data-name="Layer 1"><rect class="cls-1" width="49.9" height="70.58" rx="3.03"/><path d="M43.73,35.54q0,12,0,24.07c0,4.1-1.33,5.52-5.14,5.53q-13.64,0-27.27,0c-3.61,0-5.12-1.53-5.13-5.41q0-24.16,0-48.34c0-4.11,1.55-5.68,5.32-5.68H38.59c3.77,0,5.13,1.46,5.14,5.58Q43.75,23.4,43.73,35.54Zm-31.32-26,.9,3.53L9.94,12l-1,4.26L7.45,15V55.75l1.44-1.22,1,4.2,3.36-1-.86,3.58,3.64,1.07-.55,1.45H34.86l-.48-1.52,3.62-1-.87-3.69,3.18,1.08c.53-1.42,1-2.74,1.52-4,.18-.45.7-.85.7-1.28q.06-18,0-36.11a2.61,2.61,0,0,0-.38-1.2A12.4,12.4,0,0,1,41,14.45,14.26,14.26,0,0,1,40.57,12l-3.46,1,.94-3.54-3.78-1L34.86,7H15.79C15.86,10,13.34,8.48,12.41,9.51Z"/></g></g></svg>