<svg xmlns="http://www.w3.org/2000/svg" viewBox="0 0 49.9 70.58"><defs><style>.cls-1{fill:#fff;}.cls-2{fill:#cf1619;}</style></defs><title>Asset 34</title><g id="Layer_2" data-name="Layer 2"><g id="Layer_1-2" data-name="Layer 1"><rect class="cls-1" width="49.9" height="70.58" rx="3.03"/><path class="cls-2" d="M22.7,32.94c-3,.75-6.23-.51-9.18,2.32L9.2,18.7a8.66,8.66,0,0,1,1.9.46C14.78,21,18.39,19.13,22,19c.24,0,.66-1,.63-1.48-.2-3.22-.39-6.46-.81-9.65-.23-1.7.39-2.26,1.88-2,2,.4,3.82,1.32,3.33,4.23-.43,2.61-.41,5.29-.62,8.36,3.22-.63,6-1,8.7-1.74s4.55.23,6.39,1.84c1,.88,1,1.74.31,2.89a65.19,65.19,0,0,0-3.68,6.44,14.47,14.47,0,0,0-.73,3.53l.57.44c-.91.14-1.82.35-2.73.4-2.14.1-4.28.2-6.42.16-1.73,0-2.38.58-2.37,2.41,0,5.44,0,10.89-.32,16.32C26,54.87,25.4,58.55,25,62.24a5,5,0,0,1-1.06,2.44C22.08,54.25,23.33,43.75,22.7,32.94Zm3.87-3c2.55-.26,4.54-.43,6.51-.7a1.47,1.47,0,0,0,1.06-.73c.71-2.43,1.42-4.87,1.94-7.34.28-1.33-.59-1.88-1.88-1.69-2.18.31-4.36.62-6.52,1-.42.08-1.05.61-1.06.95C26.53,24.18,26.57,27,26.57,29.89ZM13.83,21.42l1.43,9.38c2.28-.18,4.41-.29,6.52-.54a1.48,1.48,0,0,0,1-1c.08-2.65,0-5.3,0-7.88Z"/></g></g></svg>