<svg xmlns="http://www.w3.org/2000/svg" viewBox="0 0 49.9 70.58"><defs><style>.cls-1{fill:#fff;}.cls-2{fill:#14953d;}</style></defs><title>Asset 35</title><g id="Layer_2" data-name="Layer 2"><g id="Layer_1-2" data-name="Layer 1"><rect class="cls-1" width="49.9" height="70.58" rx="3.03"/><path class="cls-2" d="M30.82,30.76C28.9,27,27.11,23.24,25,19.64c-1-1.76-2.12-1.52-3.13.23-1.16,2-2.37,4-3.7,6.3.67.1,1.24.2,1.8.27,2.28.3,3.14,1.81,2.35,4-.45,1.22-.71,2.52-1.1,4l-3.46-.69L17,37c2.46-.79,4,.24,4.81,2.43a4.47,4.47,0,0,1,.36,2.14c-.56,3.79-1.17,7.57-1.89,11.34a24.32,24.32,0,0,1-1.25,3.53l-.79,0-3.47-8.81.77-.69a7.5,7.5,0,0,0,.8,1.66c1,1.24,1.78,1.16,2.12-.42a56.31,56.31,0,0,0,1.1-7.86c.11-1.48-1.1-2.06-2.41-1.33-.81.45-1.51,1.13-2.35,1.49a1.93,1.93,0,0,1-1.67-.11,2.08,2.08,0,0,1-.29-1.66,4.59,4.59,0,0,1,.8-1.65c1.73-2.64,1.74-2.64.67-5.64,1,.17,1.87.27,2.72.46,1.08.25,2.32.46,2.64-.85a3.75,3.75,0,0,0-.55-2.93A2,2,0,0,0,16,28c-3.13,2.58-6.51,4.84-9.79,7.24l-.42-.46c.72-.78,1.39-1.62,2.16-2.35,2-1.91,4.08-3.8,6.16-5.65,1-.87,1.25-1.58.27-2.75a45.33,45.33,0,0,1-3.11-4.76c2.83.42,4,2.25,5.67,4.33.81-2.32,1.49-4.25,2.19-6.24l-6.56-1.09.09-.57c2-.55,4-1.12,6.06-1.62a2.09,2.09,0,0,1,2.67,1.09c.53,1.14,1.33,1.21,2.55,1.18s2.34.76,3.93,1.34l2.2-4.14c2.92,2.29,2.36,4.8-1.8,7,.63,1.53,1.27,3.07,2.07,5L35.19,21a2.05,2.05,0,0,1,.46.37c2.33,3.19,2.1,3.76-1.78,4.52-.84.17-1.68.36-2.8.6,1.27,3,3,5.27,5.8,6.57s5.63-.09,8.41-1A9.92,9.92,0,0,1,37.71,37c-2.81.34-4.23-1.6-5.44-3.73-.48-.85-1-1.69-1.48-2.54Z"/><path class="cls-2" d="M24.11,41.94a48.21,48.21,0,0,1,5.74-.78c1.76,0,3.29,2.84,2.26,4.29-1.84,2.59-1.63,4.84.39,7.19a14.16,14.16,0,0,1,2,3.52c.64,1.48.41,2.25-1,4.08l-4-6.68a47,47,0,0,1-3.6,3.94c-1.42,1.26-2.39.94-3.11-.37,1.56-2,3.11-3.82,4.38-5.79a3.32,3.32,0,0,0,0-2.57C26.28,46.53,25.21,44.37,24.11,41.94ZM28.56,47l.69-.09c.07-.92.47-2,.11-2.7-.25-.47-1.55-.41-2.38-.58l-.29.43Z"/><path class="cls-2" d="M30.79,30.72c-.16,1.14-.33,2.27-.48,3.41A20.75,20.75,0,0,0,30,36.84c0,1.36.85,1.75,2.13,1.63a3.79,3.79,0,0,1,2.05.26,1.7,1.7,0,0,1,.67,1.51c-.11.39-.89.79-1.41.85a4.45,4.45,0,0,1-4.85-3.86c-.21-1.4-.15-2.84-.33-4.24a5,5,0,0,0-.71-1.47,5.34,5.34,0,0,0-1,1.48c-.4,1.49-.56,3-1,4.51-.24.94-.8,1.68-2.22,1.13,2.24-3.08,1.44-6.47,1.17-9.41a21.35,21.35,0,0,1,4,.07c.81.16,1.5.95,2.24,1.46Z"/></g></g></svg>