<svg xmlns="http://www.w3.org/2000/svg" viewBox="0 0 49.9 70.58"><defs><style>.cls-1{fill:#fff;}.cls-2{fill:#004f9f;}.cls-3{font-size:10px;fill:#1d1d1b;font-family:SerifGothicStd-ExtraBold, ITC Serif Gothic Std;font-weight:800;}</style></defs><title>Asset 32</title><g id="Layer_2" data-name="Layer 2"><g id="Layer_1-2" data-name="Layer 1"><rect class="cls-1" width="49.9" height="70.58" rx="3.03"/><path class="cls-2" d="M24.46,31.41c4.73,0,9.1,0,13.47,0,2.62,0,5.6,4.07,4.49,6.38-2.25,4.71-2.42,9.79-3.26,14.79a51.75,51.75,0,0,1-2.71,9,3,3,0,0,1-2.11,1.74c-.64,0-1.42-1.14-1.89-1.92a42,42,0,0,1-1.85-3.81c4.19.27,4.58.16,5.36-3.92,1-5.26,1.65-10.58,2.48-15.86a2.82,2.82,0,0,0-2.25-3.51c-2.4-.69-4.83-1.28-6.88-1.82a23.33,23.33,0,0,1-1.2,4.21,41.47,41.47,0,0,0-2.22,3.61,7.64,7.64,0,0,1,2.48-.44A7.16,7.16,0,0,1,30.57,41c-.47.56-.84,1.41-1.44,1.63a49.78,49.78,0,0,1-4.82,1.29V48.1c1.9-.36,3.69-.64,5.43-1.06a2.08,2.08,0,0,1,2.69,1.4A2.12,2.12,0,0,1,32.61,50c-.2.31-1,.36-1.48.38-1.82.08-3.65.09-5.48.13-1.61,0-2.15.88-2.16,2.44,0,2.32-.23,4.65-.42,7a3.37,3.37,0,0,1-1,2.11V51.16c-1.53.49-2.79.84-4,1.3-2.2.84-2.83.54-3.77-2.15,1.59-.35,3.14-.72,4.7-1,3.35-.68,3.57-1.11,2.12-4.39-1.94-.31-4.13,1.44-6.28-.93l4.64-1.86c-1-1.9-1.95-3.76-3-5.53-.18-.29-1-.36-1.47-.26-.75.16-1.43.62-2.17.83-1.41.4-1.82,1.22-1.67,2.67.58,5.33,1.08,10.67,1.53,16,.13,1.53,0,3.09,0,4.64l-1.08.1c-.26-1.5-.57-3-.77-4.5-.6-4.61-1.05-9.25-1.78-13.83a37.35,37.35,0,0,0-1.7-5.52c4.39-1.42,8.79-2.82,13.16-4.31.63-.21,1.5-.83,1.58-1.36.36-2.48.49-5,.71-7.63-2.75-.25-5.07,2.08-7.61.8l-.26-.75c2-.89,4-1.91,6-2.6,1.57-.52,2.38-1.21,2.25-3-.29-3.89-.45-7.78-.67-11.84,1.26-.44,5.89,1.37,6.31,3a4.77,4.77,0,0,1-.48,2.38c-.81,2.43-1.68,4.84-2.56,7.35,3.42,1.12,7.32-2,9.84,2.59-1.61.13-2.83.28-4,.32-5.75.18-5.75.17-6.6,5.69C24.83,28.66,24.67,29.9,24.46,31.41Zm-5.3,3.23,2.47,6.84c2.34-.43,4.33-4.91,3.51-8.56Z"/><text class="cls-3" transform="translate(2.83 10.34)">S</text><text class="cls-3" transform="translate(42.44 67.29)">S</text></g></g></svg>