<svg xmlns="http://www.w3.org/2000/svg" viewBox="0 0 49.9 70.58"><defs><style>.cls-1{fill:#fff;}.cls-2{font-size:10px;fill:#1d1d1b;font-family:SerifGothicStd-ExtraBold, ITC Serif Gothic Std;font-weight:800;}.cls-3{fill:#004f9f;}</style></defs><title>Asset 31</title><g id="Layer_2" data-name="Layer 2"><g id="Layer_1-2" data-name="Layer 1"><rect class="cls-1" width="49.9" height="70.58" rx="3.03"/><text class="cls-2" transform="translate(2.83 10.34)">E</text><text class="cls-2" transform="translate(41.98 67.29)">E</text><path class="cls-3" d="M10.81,27.1c3.18-1,5.77-1.94,8.41-2.71,3.34-1,3.49-1.15,2.5-4.74-3.07-.36-6,2.13-9.9.44,1.71-.83,2.9-1.41,4.1-2,.45-.21.93-.34,1.4-.51,1.41-.54,3.78-.82,4-1.7.49-1.67-.13-3.72-.49-5.57a21.67,21.67,0,0,0-1.29-3.42c1.9-.85,3.38-.12,4.78.84s1.22,2.24,1,3.63-.35,2.76-.5,4c3.2.45,6.14.8,9.05,1.34.43.08.68,1.07,1.28,2.1H28c-3.57,0-3.78.27-3.05,4.21,2.33-.13,4.69-.4,7.05-.33a5.6,5.6,0,0,1,3,1.18c1.74,1.27,1.86,2.85.84,4.82-1.29,2.5-2.24,5.17-3.35,7.76-.33.75-.71,1.48-.82,1.71-2.07,0-3.7-.12-5.3,0-1.92.18-2.24.87-1.11,2.44,3.71,5.11,8.22,9.3,14.14,11.8.82.34,1.62.73,2.43,1.09l0,.81c-2.49.46-5,1-7.49,1.29a2.87,2.87,0,0,1-2-1.27c-2-3-3.93-6-5.87-9-.47-.74-.9-1.52-1.49-2.53-1.39,7.21,1.43,14.35-1.3,21.07l-.94.1A30.79,30.79,0,0,1,22,58.86c.07-4.16.38-8.31.59-12.47a6.71,6.71,0,0,0-.19-2.1C19.1,49.56,16.25,55.13,10,57.63A59.81,59.81,0,0,0,22.21,38.71c-2.19.72-4.86-.73-5.08,3.15l-.7-.42C16,39,15.58,36.48,15,34S13.81,28.91,10.81,27.1Zm21.28,2c-.26-1.44-.19-3.65-.76-3.84a13.55,13.55,0,0,0-6.13-.45c-.46.07-.49,2.8-.71,4.29Zm-9.85-4.33c-1.86.76-3.26,1.36-4.69,1.91-1.63.62-1.74,1.67-1.24,3.19s1.59,1.2,2.69.91a16.19,16.19,0,0,1,2.06-.48,1.51,1.51,0,0,0,1.46-1.89C22.42,27.43,22.36,26.4,22.24,24.82Zm9.21,6.87a7.79,7.79,0,0,0-6.39.11c-.62.33-.37,2.25-.52,3.46,2.08,0,3.81.05,5.53,0,.32,0,.75-.56.88-1A20.57,20.57,0,0,0,31.45,31.69Zm-9.1.79c-4.93.57-5.93.25-4.14,4.4C22.87,36.3,23.07,36.08,22.35,32.48Z"/></g></g></svg>