<svg xmlns="http://www.w3.org/2000/svg" viewBox="0 0 49.9 70.58"><defs><style>.cls-1{fill:#fff;}.cls-2{font-size:10px;fill:#1d1d1b;font-family:SerifGothicStd-ExtraBold, ITC Serif Gothic Std;font-weight:800;}.cls-3{fill:#004f9f;}</style></defs><title>Asset 30</title><g id="Layer_2" data-name="Layer 2"><g id="Layer_1-2" data-name="Layer 1"><rect class="cls-1" width="49.9" height="70.58" rx="3.03"/><text class="cls-2" transform="translate(2.83 10.34)">N</text><text class="cls-2" transform="translate(40.36 67.29)">N</text><path class="cls-3" d="M41.59,32.44c-3.84.82-7.43,0-11.35-.89-.14,1.72-.29,3.4-.4,5.09-.22,3.39-.47,6.78-.6,10.18a13.76,13.76,0,0,0,.43,3.48c.45,1.93,1.5,3.45,3.62,3.76a4.91,4.91,0,0,0,5.4-2.45,27.3,27.3,0,0,0,1.64-4.11,15.4,15.4,0,0,1,1.34-3.32c.43,2.55,1.23,5.09,1.2,7.63,0,3.06-2.52,4.57-5.15,5.43s-5.89,2-8.16-.65A10,10,0,0,1,27.47,51c-.32-5.67-.21-11.37-.25-17-.06-7.11-.09-14.22-.16-21.33,0-.55-.23-1.09-.25-1.64A12.77,12.77,0,0,1,27,9.25,6.07,6.07,0,0,1,29,9.49c2.73,1.41,3.59,4.06,3,7.24-.73,3.88-1.14,7.81-1.66,11.73a10.27,10.27,0,0,0,.08,1.66c2.56-.12,5-.22,7.47-.36A3.15,3.15,0,0,1,41.59,32.44Z"/><path class="cls-3" d="M21.5,50.94l1.65-.31c0,.3,0,.53-.07.64A34,34,0,0,1,20.57,54c-2.26,2-4.61,3.94-6.88,6-1.13,1-2.09.85-2.71-.39-.71-1.41-1.17-2.94-1.68-4.24,3-.89,5.83-1.63,8.55-2.54A2.07,2.07,0,0,0,19,51.23c-.27-5.19-.67-10.36-1-15.54a3.89,3.89,0,0,0-.27-.79C14.25,36.06,11.5,39.68,7,37.68a8.35,8.35,0,0,1,1.06-.82c2.69-1.39,5.37-2.82,8.12-4.1a1.8,1.8,0,0,0,1.27-2.26c-.47-2.67-.64-5.41-1.26-8a13.29,13.29,0,0,0-2.07-4.05c-.81-1.23-.68-2.08.82-2.13a12,12,0,0,1,4.68.73,2.83,2.83,0,0,1,1.23,2.49c-1.69,6.35-.17,12.69-.09,19C20.84,42.59,21.24,46.65,21.5,50.94Z"/></g></g></svg>