<svg xmlns="http://www.w3.org/2000/svg" viewBox="0 0 49.9 70.58"><defs><style>.cls-1{fill:#fff;}.cls-2{fill:#004f9f;}.cls-3{font-size:10px;fill:#1d1d1b;font-family:SerifGothicStd-ExtraBold, ITC Serif Gothic Std;font-weight:800;}</style></defs><title>Asset 33</title><g id="Layer_2" data-name="Layer 2"><g id="Layer_1-2" data-name="Layer 1"><rect class="cls-1" width="49.9" height="70.58" rx="3.03"/><path class="cls-2" d="M44,18.58,31.53,16.05l-.56.36c1.91,1.81.86,3.53.42,5.33-.56,2.26-.87,4.57-1.31,6.86-.24,1.3.25,1.84,1.6,2.12a69,69,0,0,1,8,2.12,6.2,6.2,0,0,1,3.23,8.87,75.76,75.76,0,0,0-3,7.64c-1,2.42-1.87,4.86-3,7.19-.31.65-1.28,1-2,1.47-.46-.67-.93-1.33-1.38-2a1.33,1.33,0,0,1-.12-.4c-1.21-3.83-1.62-4.32-5.6-3.25a47.75,47.75,0,0,0-9.06,3.95c-.61.31-.87,1.62-1,2.5A26.47,26.47,0,0,1,17.38,63c-.55-3.23-1.08-6.47-1.67-9.69-1-5.63-2.26-11.2-5.15-16.25-.77-1.36.25-2.55,1.77-3,2.85-.85,5.62-2,8.38-3.13.32-.13.51-1,.47-1.47-.32-3.72-.74-7.44-1.07-11.16-.14-1.55-1-1.85-2.32-1.57L12.21,18c-2.44.56-4.63-.36-6.37-3a61.93,61.93,0,0,1,7.35-1.12c8.33-.27,16.66-.45,25-.45C41.57,13.41,43.44,15.2,44,18.58ZM29.61,32.78a21.19,21.19,0,0,0-.37,3.64c.12,1.79.12,3.77.94,5.24.43.77,2.5.63,3.83.89,1.85.38,1.85,2,2,3.3.21,1.54-1.13,1.34-2.06,1.4-3.79.24-5.63-1-6.29-4.7a58.67,58.67,0,0,1-.4-8.19c0-.9.37-2-1.13-2-1.2,0-2.37-.07-2.53,1.74a81,81,0,0,1-1.23,8.78c-.47,2.29-1.34,4.49-2,6.74l-.59-.16A46.17,46.17,0,0,0,21.13,33c-1.94.94-3.49,1.7-5.06,2.44-1.3.62-1.54,1.49-1.17,2.92.79,3,1.37,6,1.94,9.08.32,1.68.45,3.4.6,4.54,4.19-.8,8.07-1.76,12-2.22,2.42-.29,5.31-.51,5.55,4,.77-1.09,1.28-1.52,1.41-2q1.66-7.08,3.2-14.2a1.46,1.46,0,0,0-.51-1.23A22.2,22.2,0,0,0,29.61,32.78ZM24.1,16.27v13.8c3.43.43,3.58.3,3.85-2.95.21-2.44.49-4.89.63-7.34a28.28,28.28,0,0,0-.2-3.51Z"/><text class="cls-3" transform="translate(3.51 10.34)">W</text><text class="cls-3" transform="translate(37.61 67.29)">W</text></g></g></svg>